<svg width="6" height="8" viewBox="0 0 6 8" fill="none" xmlns="http://www.w3.org/2000/svg">
<path id="Vector" d="M5.35535 8C4.95575 7.90202 4.65513 7.62978 4.3282 7.40705C3.04369 6.53191 1.76161 5.65327 0.481957 4.77111C0.298349 4.64533 0.136807 4.49907 0.0568457 4.28668C-0.0694733 3.94831 0.0210152 3.65559 0.26596 3.40262C0.342593 3.32846 0.426409 3.26214 0.516169 3.20463C1.95858 2.2155 3.40126 1.2267 4.84421 0.238238C4.97478 0.149386 5.11081 0.0706768 5.26588 0.0276709C5.63026 -0.0715265 5.90719 0.100497 5.97743 0.471322C5.99418 0.568983 6.00164 0.668016 5.9997 0.767089C5.9997 2.92104 5.9997 5.07505 5.9997 7.22914C5.9997 7.38291 5.98958 7.53485 5.93027 7.67989C5.86022 7.8507 5.73127 7.95071 5.55799 8H5.35535Z" fill="#666666"/>
</svg>
