<svg width="32" height="32" viewBox="0 0 32 32" fill="none" xmlns="http://www.w3.org/2000/svg">
<path d="M16 29.3333C23.364 29.3333 29.3333 23.364 29.3333 16C29.3333 8.636 23.364 2.66667 16 2.66667C8.636 2.66667 2.66667 8.636 2.66667 16C2.66667 23.364 8.636 29.3333 16 29.3333ZM16 32C7.164 32 0 24.836 0 16C0 7.164 7.164 0 16 0C24.836 0 32 7.164 32 16C32 24.836 24.836 32 16 32Z" fill="white"/>
<path d="M16.28 7.25333C14.3333 7.25333 12.7867 7.81333 11.6667 8.96C10.52 10.08 9.96 11.6 9.96 13.5467H12.7867C12.7867 12.3733 13.0267 11.44 13.5067 10.8C14.04 10.0533 14.92 9.68 16.12 9.68C17.08 9.68 17.8267 9.94667 18.36 10.48C18.8667 11.0133 19.1333 11.7333 19.1333 12.6667C19.1333 13.36 18.8933 14 18.4133 14.6133L17.96 15.12C16.3067 16.5867 15.2933 17.68 14.92 18.4267C14.5733 19.12 14.4133 19.9733 14.4133 20.96V21.4133H17.2667V20.96C17.2667 20.2933 17.4 19.7067 17.6933 19.1733C17.9333 18.6933 18.3067 18.24 18.7867 17.8133C20.0667 16.72 20.8133 16.0267 21.0533 15.7333C21.6933 14.88 22.04 13.7867 22.04 12.48C22.04 10.88 21.5067 9.6 20.4667 8.66667C19.4 7.70667 18.0133 7.25333 16.28 7.25333ZM15.8267 22.8533C15.2667 22.8533 14.8133 23.0133 14.4667 23.3867C14.0667 23.7333 13.88 24.1867 13.88 24.7467C13.88 25.28 14.0667 25.7333 14.4667 26.1067C14.8133 26.48 15.2667 26.6667 15.8267 26.6667C16.36 26.6667 16.84 26.48 17.24 26.1333C17.6133 25.76 17.8 25.3067 17.8 24.7467C17.8 24.1867 17.6133 23.7333 17.24 23.3867C16.8667 23.0133 16.3867 22.8533 15.8267 22.8533Z" fill="white"/>
</svg>
