<svg width="22" height="15" viewBox="0 0 22 15" fill="none" xmlns="http://www.w3.org/2000/svg">
<path d="M7.14389 10.7743C7.14392 9.75134 7.5503 8.77028 8.27365 8.04694C8.99699 7.3236 9.97806 6.91721 11.001 6.91718C12.024 6.91721 13.005 7.3236 13.7283 8.04695C14.4517 8.77029 14.858 9.75135 14.858 10.7743C14.858 11.7972 14.4517 12.7783 13.7283 13.5016C13.005 14.225 12.024 14.6314 11.001 14.6314C9.97806 14.6314 8.99699 14.225 8.27365 13.5017C7.5503 12.7783 7.14392 11.7973 7.14389 10.7743V10.7743ZM11.4707 13.6921L11.6888 14.1065C12.0905 14.0239 12.4739 13.8688 12.8202 13.649L12.6634 13.2096L13.3877 12.4853L13.8522 12.6295C14.0759 12.2866 14.2355 11.906 14.3232 11.5062L13.8899 11.301V10.2762L14.3241 10.0477C14.2372 9.64775 14.0783 9.2669 13.8551 8.92375L13.4079 9.08346L12.6835 8.35915L12.8251 7.90283C12.4792 7.68262 12.0963 7.52705 11.6949 7.44367L11.4992 7.85676H10.4745L10.2623 7.45305C9.86095 7.54198 9.4792 7.70337 9.13575 7.92931L9.28191 8.33849L8.5576 9.06279L8.14024 8.93337C7.91702 9.27947 7.75892 9.66344 7.67372 10.0664L8.05533 10.2472V11.2719L7.67204 11.4738C7.75628 11.877 7.91354 12.2614 8.13607 12.6081L8.53742 12.4648L9.26171 13.1891L9.12969 13.6145C9.47284 13.8412 9.85439 14.0034 10.2557 14.0933L10.4457 13.6915L11.4707 13.6921ZM8.73973 10.7743C8.73973 10.4774 8.79823 10.1833 8.91187 9.90901C9.0255 9.63468 9.19205 9.38543 9.40202 9.17547C9.61198 8.96551 9.86125 8.79897 10.1356 8.68535C10.4099 8.57173 10.704 8.51325 11.0009 8.51327C11.6006 8.51327 12.1757 8.75148 12.5997 9.17551C13.0237 9.59953 13.2619 10.1746 13.2619 10.7743C13.2619 11.0712 13.2035 11.3653 13.0899 11.6396C12.9762 11.9139 12.8097 12.1632 12.5997 12.3732C12.3898 12.5831 12.1405 12.7497 11.8662 12.8633C11.5918 12.977 11.2978 13.0354 11.0009 13.0354C10.704 13.0354 10.41 12.9769 10.1356 12.8633C9.86133 12.7496 9.61208 12.5831 9.40213 12.3731C9.19219 12.1632 9.02566 11.9139 8.91204 11.6396C8.79843 11.3652 8.73998 11.0712 8.73999 10.7743H8.73973ZM10.2319 11.8135H10.7584V12.2015H11.2849V11.8128C11.449 11.8057 11.604 11.7355 11.7175 11.6169C11.8311 11.4983 11.8945 11.3404 11.8945 11.1762C11.8945 11.0207 11.8375 10.8705 11.7344 10.754C11.6313 10.6375 11.4892 10.5628 11.3348 10.5438V10.5438H10.798V10.543C10.7925 10.543 10.7869 10.5438 10.7813 10.5438C10.7238 10.5438 10.6686 10.5209 10.6279 10.4802C10.5872 10.4395 10.5643 10.3843 10.5643 10.3268C10.5643 10.2692 10.5871 10.214 10.6278 10.1732C10.6685 10.1325 10.7238 10.1096 10.7813 10.1096C10.787 10.1096 10.7925 10.1096 10.798 10.1104V10.1096H11.7835V9.66622H11.2848V9.34753H10.7583V9.66622H10.7306C10.5641 9.66983 10.4055 9.73852 10.289 9.85759C10.1725 9.97667 10.1072 10.1366 10.1071 10.3033C10.1073 10.4543 10.1611 10.6004 10.259 10.7154C10.3568 10.8304 10.4924 10.9069 10.6415 10.9313H11.2266V10.9321C11.2323 10.9321 11.2385 10.9313 11.2437 10.9313C11.3025 10.9313 11.3589 10.9547 11.4004 10.9962C11.442 11.0378 11.4653 11.0942 11.4653 11.153C11.4653 11.2117 11.442 11.2681 11.4004 11.3097C11.3589 11.3512 11.3025 11.3746 11.2437 11.3746C11.2379 11.3746 11.2318 11.3746 11.2266 11.3738V11.3746H10.2323L10.2319 11.8135ZM16.7317 11.627L15.6673 10.772C15.6674 10.4962 15.6432 10.2209 15.5951 9.9493L16.9104 11.0061C16.9969 11.0756 17.1076 11.1079 17.2179 11.0959C17.3283 11.0838 17.4293 11.0285 17.4989 10.942L21.2223 6.30556C21.2918 6.21899 21.3241 6.10834 21.3121 5.99796C21.3 5.88758 21.2446 5.7865 21.1581 5.71697L18.5134 3.59308C18.4705 3.55864 18.4213 3.53299 18.3685 3.51757C18.3158 3.50216 18.2605 3.4973 18.2058 3.50327C18.1512 3.50923 18.0982 3.52591 18.05 3.55234C18.0018 3.57877 17.9593 3.61445 17.9249 3.65732L15.4532 6.73504L14.996 8.30583C14.9928 8.31676 14.9893 8.32756 14.9858 8.33813C14.8609 8.13344 14.7206 7.93861 14.566 7.75536L14.9408 6.46811L16.1919 2.16976C16.2073 2.11699 16.2121 2.0617 16.2061 2.00707C16.2001 1.95243 16.1834 1.89951 16.1569 1.85134C16.1305 1.80316 16.0947 1.76067 16.0519 1.7263C16.009 1.69192 15.9597 1.66633 15.9069 1.65099L12.6501 0.702859C12.5973 0.687494 12.542 0.682676 12.4873 0.688682C12.4327 0.694688 12.3798 0.711401 12.3316 0.737864C12.2834 0.764327 12.2409 0.800022 12.2065 0.842913C12.1721 0.885803 12.1465 0.935046 12.1312 0.987832L11.3031 3.83258L12.0853 6.21828C11.8775 6.16802 11.6664 6.13207 11.4537 6.11071L11.0225 4.79603L10.7099 3.84244L9.76125 0.94948C9.74413 0.89724 9.7169 0.848884 9.68109 0.807173C9.64529 0.765461 9.6016 0.731213 9.55256 0.706382C9.50351 0.681551 9.45008 0.666624 9.39526 0.662454C9.34045 0.658285 9.28533 0.664953 9.2331 0.68208L6.00981 1.73886C5.95758 1.75597 5.90926 1.78321 5.86756 1.81901C5.82586 1.85481 5.79161 1.89847 5.76679 1.94751C5.74197 1.99654 5.72707 2.04998 5.72291 2.10478C5.71874 2.15958 5.7254 2.21467 5.74253 2.26689L7.14818 6.55337L7.78936 7.3425C7.64988 7.47244 7.51837 7.61067 7.39551 7.75643L6.64235 6.82943L4.06357 3.65483C3.99357 3.56867 3.89222 3.51384 3.7818 3.50239C3.67138 3.49095 3.56093 3.52383 3.47475 3.5938L0.841939 5.73252C0.755781 5.80252 0.70096 5.90388 0.689515 6.0143C0.67807 6.12472 0.710948 6.23516 0.780917 6.32135L4.53033 10.9369C4.56498 10.9795 4.60768 11.0149 4.65602 11.0411C4.70436 11.0672 4.7574 11.0836 4.81207 11.0893C4.86674 11.0949 4.92197 11.0897 4.97464 11.074C5.02731 11.0583 5.07638 11.0324 5.11904 10.9978L6.36092 9.98848C6.3173 10.2474 6.29537 10.5096 6.29538 10.7722C6.29538 10.7846 6.29538 10.7972 6.29538 10.8098L5.30094 11.6172C5.14947 11.7402 4.95539 11.798 4.76131 11.778C4.56723 11.758 4.38904 11.6617 4.26589 11.5104L0.16464 6.46158C0.0416587 6.31011 -0.0161416 6.11602 0.00389614 5.92194C0.0239339 5.72786 0.120188 5.54968 0.271523 5.42653L3.29166 2.97315C3.44312 2.85017 3.63721 2.79234 3.83129 2.81238C4.02536 2.83242 4.20353 2.92868 4.32668 3.08001L6.14745 5.32133L5.11643 2.17712C5.05577 1.9917 5.07121 1.78978 5.15933 1.61572C5.24745 1.44166 5.40105 1.3097 5.5864 1.24882L9.28368 0.0364965C9.46909 -0.0241639 9.671 -0.00875401 9.84505 0.0793422C10.0191 0.167438 10.1511 0.321018 10.212 0.506347L10.9896 2.87768L11.6642 0.560016C11.7188 0.372696 11.8456 0.214725 12.0166 0.120813C12.1876 0.026901 12.3889 0.00473162 12.5763 0.0591749L16.3123 1.14682C16.4051 1.1738 16.4916 1.2188 16.567 1.27923C16.6424 1.33967 16.7051 1.41436 16.7516 1.49905C16.7981 1.58373 16.8275 1.67675 16.838 1.77278C16.8486 1.86881 16.8401 1.96598 16.8131 2.05874L15.8656 5.31373L17.657 3.0831C17.7793 2.93105 17.9569 2.83374 18.1508 2.81255C18.3447 2.79135 18.5392 2.848 18.6914 2.97006L21.7252 5.40646C21.8772 5.52872 21.9745 5.70633 21.9957 5.90027C22.0168 6.09421 21.9601 6.28862 21.8381 6.4408L17.7653 11.5125C17.6965 11.5985 17.6091 11.6678 17.5097 11.7154C17.4104 11.763 17.3016 11.7877 17.1915 11.7875C17.0245 11.7879 16.8623 11.7312 16.7319 11.6268L16.7317 11.627ZM16.8148 10.4357L17.0633 9.70529L17.1874 9.80479L17.1191 9.98658L17.3322 10.1577L17.4933 10.0508L17.6127 10.1468L16.9571 10.5505L16.8148 10.4357ZM17.0431 10.1731C17.0144 10.2479 16.9837 10.3316 16.954 10.4072L16.957 10.4096C17.0248 10.3622 17.0986 10.3147 17.1646 10.271L17.2367 10.2249L17.0724 10.093L17.0431 10.1731ZM3.38807 8.08332L3.22979 5.98354L5.25262 6.56868L5.38049 8.63106L3.38807 8.08332ZM16.9619 8.23293C16.9619 8.23293 16.3123 6.8007 16.8907 6.07983C17.0169 5.92294 17.2002 5.82256 17.4004 5.80072C17.6006 5.77888 17.8012 5.83737 17.9583 5.96335C18.0588 6.04392 18.137 6.14875 18.1858 6.26795C18.2345 6.38715 18.2521 6.5168 18.2368 6.64468C18.3585 6.60194 18.4891 6.59092 18.6162 6.61268C18.7434 6.63443 18.8628 6.68823 18.9634 6.769C19.1203 6.89519 19.2207 7.0785 19.2426 7.27866C19.2645 7.47883 19.206 7.67949 19.08 7.83658C18.7757 8.21559 18.2061 8.30548 17.7344 8.30548C17.4755 8.30517 17.2171 8.28073 16.9628 8.23245L16.9619 8.23293ZM1.29504 5.89626L1.43682 5.78109L2.09844 6.17779L1.97506 6.27813L1.8118 6.17304L1.59962 6.34545L1.67085 6.52546L1.55211 6.62212L1.29504 5.89626ZM1.4323 5.92559C1.46388 6.0017 1.4957 6.08411 1.52396 6.15785L1.55379 6.23799L1.71741 6.10513L1.64508 6.05941C1.57823 6.01583 1.50261 5.96775 1.43517 5.92334L1.4323 5.92559ZM12.8709 6.02628L12.4757 5.91123L12.4767 5.68063C12.6818 5.58564 12.7891 5.31361 12.8378 5.145C12.7234 5.16373 12.6063 5.15654 12.495 5.12399C12.3969 5.09545 12.3053 5.04786 12.2256 4.98393C12.1458 4.92 12.0795 4.84099 12.0303 4.75141C11.9811 4.66183 11.95 4.56343 11.9389 4.46185C11.9277 4.36026 11.9367 4.25747 11.9653 4.15935C12.0173 3.98085 12.1314 3.82684 12.2871 3.7252C12.4428 3.62356 12.6297 3.58099 12.814 3.60519C12.8129 3.52767 12.8234 3.45042 12.8453 3.37603C12.8738 3.27791 12.9214 3.18637 12.9853 3.10665C13.0492 3.02692 13.1282 2.96057 13.2178 2.91138C13.3073 2.86219 13.4057 2.83113 13.5073 2.81997C13.6089 2.80881 13.7117 2.81777 13.8098 2.84634C14.008 2.904 14.1751 3.03802 14.2745 3.21893C14.3738 3.39983 14.3973 3.61279 14.3396 3.81097C14.3174 3.8874 14.2836 3.95997 14.2394 4.02612C14.3995 4.10903 14.5259 4.24495 14.597 4.41068C14.6681 4.57641 14.6794 4.76167 14.6291 4.93483C14.5714 5.13299 14.4374 5.30011 14.2565 5.39945C14.0756 5.49878 13.8626 5.52219 13.6644 5.46453C13.5561 5.43304 13.4559 5.37834 13.3708 5.30423C13.3218 5.47308 13.2683 5.75722 13.3888 5.94637L13.2663 6.14146L12.8709 6.02628ZM8.67491 5.94863C8.79472 5.74677 8.72027 5.44696 8.66398 5.28369C8.60056 5.32803 8.53095 5.36275 8.45738 5.38675C8.2579 5.45216 8.04059 5.43565 7.85328 5.34086C7.66597 5.24607 7.524 5.08076 7.45856 4.88128C7.42132 4.76813 7.41014 4.64802 7.42589 4.52994V4.52994C7.42589 4.52994 7.42745 4.51806 7.4316 4.49431V4.49123C7.5555 3.90689 7.80723 3.35723 8.16874 2.88172V2.88172C8.74183 3.05078 9.27034 3.34474 9.71626 3.74246L9.71779 3.74388C9.73489 3.76039 9.74345 3.76953 9.74345 3.76953C9.82612 3.85526 9.88828 3.95862 9.92524 4.07184C9.95764 4.17064 9.97025 4.27485 9.96237 4.37852C9.95449 4.4822 9.92625 4.5833 9.87929 4.67607C9.83233 4.76883 9.76758 4.85144 9.68869 4.91916C9.6098 4.98689 9.51833 5.03841 9.41953 5.07079C9.34601 5.09491 9.26936 5.10815 9.19202 5.11009C9.24355 5.2749 9.36098 5.56071 9.57708 5.65249L9.58589 5.88285L9.19463 6.01108L8.80351 6.13932L8.67491 5.94863ZM18.2186 4.81515L18.2869 4.63359L18.0739 4.46237L17.9128 4.56924L17.7932 4.4733L18.449 4.06958L18.5915 4.18393L18.343 4.91417L18.2186 4.81515ZM18.2412 4.34898L18.1693 4.39505L18.3336 4.52709L18.3631 4.4467C18.3917 4.37201 18.4224 4.28818 18.452 4.2129L18.449 4.21053C18.3816 4.25743 18.3079 4.30587 18.2417 4.34909L18.2412 4.34898ZM6.37493 2.05316L6.54843 1.99628L7.02469 2.60328L6.87354 2.65291L6.75848 2.49641L6.4988 2.58155L6.50056 2.77497L6.35498 2.82247L6.37493 2.05316ZM6.49236 2.12975C6.49474 2.21215 6.49499 2.30037 6.49535 2.3791L6.49451 2.46459L6.69494 2.39881L6.64365 2.33041C6.59616 2.2657 6.54344 2.19386 6.4963 2.12856L6.49236 2.12975ZM12.8463 1.94487L12.8398 1.75073L12.5774 1.67426L12.4695 1.83504L12.3225 1.79217L12.7737 1.16832L12.9491 1.21937L12.9994 1.98928L12.8463 1.94487ZM12.6885 1.50553L12.6397 1.57571L12.8416 1.63508L12.8379 1.54959C12.8358 1.46968 12.8323 1.38038 12.8305 1.29964L12.8267 1.29845C12.7832 1.36732 12.7335 1.44023 12.6891 1.50553H12.6885Z" fill="#272C43"/>
</svg>
