<?xml version="1.0" encoding="UTF-8"?>
<svg width="9px" height="9px" viewBox="0 0 9 9" version="1.1" xmlns="http://www.w3.org/2000/svg" xmlns:xlink="http://www.w3.org/1999/xlink">
    <title>棋牌（场馆）</title>
    <g id="控件" stroke="none" stroke-width="1" fill="none" fill-rule="evenodd">
        <g id="redbox" transform="translate(-103.000000, -125.000000)" fill="#262626" fill-rule="nonzero" stroke="#262626" stroke-width="0.5">
            <g id="类型" transform="translate(10.000000, 123.115955)">
                <g id="游戏类型" transform="translate(58.000000, 1.408000)">
                    <g id="棋牌（场馆）" transform="translate(35.189718, 0.672433)">
                        <rect id="矩形" opacity="0" x="0" y="0" width="8.44553244" height="8.448"></rect>
                        <path d="M1.718138,8.026095 C1.33107859,8.026095 0.990947971,7.7420475 0.93239008,7.3478625 L0.110682661,1.8210225 C0.0461865055,1.38732 0.346481267,0.98208 0.780057088,0.917565 L4.05270091,0.4307325 C4.26268455,0.399465 4.4723383,0.451935 4.64289847,0.5784075 C4.81345863,0.70488 4.92463615,0.890175 4.95589452,1.1003025 L5.77760194,6.6271425 C5.8088603,6.8371875 5.75640563,7.0469025 5.62997007,7.2175125 C5.50353451,7.3881225 5.31829363,7.4993325 5.10822751,7.5306 L1.83558369,8.0174325 C1.79670101,8.02320192 1.75744614,8.026095 1.718138,8.026095 Z M4.17088888,0.5939175 C4.14004289,0.5939175 4.10903195,0.5962275 4.07793853,0.6008475 L0.805294714,1.08768 C0.640672812,1.1121825 0.495432747,1.1993025 0.396379188,1.333035 C0.297325629,1.4667675 0.256170154,1.6311075 0.280665497,1.7957775 L1.10237292,7.3226175 C1.15293064,7.6625175 1.47046287,7.8979725 1.81026359,7.8474 L5.08290741,7.3605675 C5.24752931,7.336065 5.39276937,7.248945 5.49182293,7.1152125 C5.59087649,6.98148 5.63203197,6.81714 5.60753662,6.65247 L4.78582921,1.12563 C4.76133386,0.96096 4.67423931,0.8156775 4.54054587,0.716595 C4.43209006,0.636075 4.30342765,0.5939175 4.17088888,0.5939175 Z" id="形状"></path>
                        <path d="M6.66512512,7.85268 C6.65143412,7.8519375 6.63774312,7.850865 6.62396965,7.8496275 L4.21451863,7.656825 L4.23084886,7.4856375 L6.64029988,7.67844 C6.65143412,7.6795125 6.66256837,7.6803375 6.67370262,7.680915 C7.10719596,7.7045925 7.49054396,7.3811925 7.53640056,6.9455925 L8.00016256,2.5448775 C8.02342077,2.3242725 7.95875966,2.1082875 7.81805577,1.93677 C7.67735188,1.7652525 7.47825505,1.6596525 7.25746706,1.639275 L4.92463615,1.4481225 L4.94038905,1.276935 L7.27321995,1.4680875 C7.54019445,1.4926725 7.78094161,1.6203825 7.95100692,1.827705 C8.12107223,2.0350275 8.19925939,2.29614 8.17113511,2.5628625 L7.70737311,6.96366 C7.67974368,7.22601 7.55207098,7.462455 7.34786065,7.6295175 C7.1542897,7.78767 6.91329512,7.86621 6.66512512,7.85268 Z" id="路径"></path>
                        <path d="M6.35988181,4.3024575 C6.05810248,3.9854925 5.81834503,3.4602975 5.68473407,2.82348 L5.65710464,2.69181 L5.58130929,2.80302 C5.56580382,2.8258725 5.55071073,2.848065 5.53611249,2.869515 C5.46006971,2.98155 5.39433642,3.07824 5.34163431,3.14457 C5.27268446,3.2312775 5.24752931,3.2375475 5.24489008,3.23796 C5.24538494,3.2378775 5.24711693,3.237795 5.2492613,3.238455 L5.22212673,3.32541 L5.21511628,3.34785 C5.21891017,3.349005 5.22270406,3.3499125 5.22641548,3.3507375 L5.51343162,5.0343975 C5.47639994,5.0987475 5.43945073,5.1711825 5.40109944,5.254755 L5.5052665,5.3025225 C5.72927106,4.81371 5.91277994,4.71537 6.35262393,4.3879275 L6.40450127,4.3493175 L6.35988181,4.3024575 L6.35988181,4.3024575 Z M3.45508052,3.5106225 C3.20691052,3.3494175 2.95041047,3.182685 2.81284066,2.9153025 L2.72335431,2.74131 L2.68261121,2.9326275 C2.60524881,3.2961225 2.38116179,3.5652375 2.18346705,3.8026725 C2.0241236,3.9940725 1.87360508,4.17483 1.83022276,4.3737375 C1.78098464,4.5997875 1.87261537,4.81701 2.11855851,5.0573325 L2.12391945,5.0626125 L2.13027009,5.0665725 C2.46833882,5.2784325 2.69457022,5.10708 2.82966575,5.00478 C2.84847025,4.99059 2.87148103,4.9731 2.89012058,4.9611375 C2.89911046,5.1213525 2.84599597,5.30013 2.7223646,5.5305525 L2.6566313,5.6529825 L3.64419776,5.5061325 L3.54877314,5.4084525 C3.31767566,5.171925 3.23569461,5.0215275 3.21573545,4.9274775 C3.21944686,4.92855 3.22315828,4.9296225 3.22670474,4.9306125 C3.32460364,4.9583325 3.48848326,5.0048625 3.6502185,4.9873725 C3.85607835,4.96518 4.00164832,4.8497625 4.08280461,4.644255 L4.0845366,4.6398 L4.08569127,4.63518 C4.23662217,4.0184925 3.83933575,3.76035 3.45508052,3.5106225 L3.45508052,3.5106225 Z" id="形状"></path>
                        <path d="M0.522072464,1.8104625 C0.522072464,1.96655898 0.605324619,2.11079808 0.740468652,2.18884632 C0.875612686,2.26689457 1.042117,2.26689457 1.17726104,2.18884632 C1.31240507,2.11079808 1.39565723,1.96655898 1.39565723,1.8104625 C1.39565723,1.56915825 1.20009862,1.3735425 0.958864845,1.3735425 C0.717631074,1.3735425 0.522072464,1.56915825 0.522072464,1.8104625 Z" id="路径"></path>
                        <path d="M4.83943854,6.221325 C4.59860891,6.221325 4.40264616,6.4172625 4.40264616,6.658245 C4.40264616,6.8992275 4.59852643,7.0952475 4.83943854,7.0952475 C5.08035065,7.0952475 5.27623092,6.899145 5.27623092,6.658245 C5.27623092,6.417345 5.08026818,6.221325 4.83943854,6.221325 Z M6.73456983,6.4700625 C6.4937402,6.4700625 6.29777745,6.666165 6.29777745,6.907065 C6.29777745,7.147965 6.49365772,7.343985 6.73456983,7.343985 C6.97548195,7.343985 7.17136222,7.1480475 7.17136222,6.907065 C7.17136222,6.6660825 6.97539947,6.4700625 6.73456983,6.4700625 Z" id="形状"></path>
                    </g>
                </g>
            </g>
        </g>
    </g>
</svg>