<svg width="15" height="15" viewBox="0 0 15 15" fill="none" xmlns="http://www.w3.org/2000/svg">
<path d="M6.61417 5.625H5.66929V6.5625H4.72441V5.625H3.77953V4.6875H4.72441V3.75H5.66929V4.6875H6.61417V5.625ZM8.85638 7.96688L12.9846 12.1622C13.2132 12.51 12.8891 12.7856 12.7455 12.9459C11.3915 14.2163 9.56976 15 7.55906 15C3.38457 15 0 11.6419 0 7.5C0 3.35812 3.38457 0 7.55906 0C9.78803 0 12.0472 1.20094 13.1698 2.48719L13.1622 2.49469C13.218 2.51625 13.5373 3.04687 13.2104 3.38062L8.85638 7.96688ZM7.55906 7.99781L12.3118 2.95781C11.1099 1.71844 9.42992 0.9375 7.55906 0.9375C3.90614 0.9375 0.944882 3.87563 0.944882 7.5C0.944882 11.1244 3.90614 14.0625 7.55906 14.0625C9.22961 14.0625 10.749 13.4419 11.9121 12.4284L7.55906 7.99781ZM13.5827 9.29719C14.366 9.29719 15 8.66719 15 7.89094C15 7.11469 14.366 6.48469 13.5827 6.48469C12.7994 6.48469 12.1654 7.11469 12.1654 7.89094C12.1654 8.66719 12.7994 9.29719 13.5827 9.29719Z" fill="url(#paint0_linear_30_91)"/>
<defs>
<linearGradient id="paint0_linear_30_91" x1="7.5" y1="0" x2="7.5" y2="15" gradientUnits="userSpaceOnUse">
<stop stop-color="#FF846D"/>
<stop offset="1" stop-color="#FF4848"/>
</linearGradient>
</defs>
</svg>
