<?xml version="1.0" encoding="UTF-8"?>
<svg width="9px" height="8px" viewBox="0 0 9 8" version="1.1" xmlns="http://www.w3.org/2000/svg" xmlns:xlink="http://www.w3.org/1999/xlink">
    <title>电竞</title>
    <defs>
        <polygon id="path-1" points="0 0 7.72572524 0 7.72572524 7.7257895 0 7.7257895"></polygon>
    </defs>
    <g id="控件" stroke="none" stroke-width="1" fill="none" fill-rule="evenodd">
        <g id="redbox" transform="translate(-140.000000, -125.000000)">
            <g id="类型" transform="translate(10.000000, 123.115955)">
                <g id="游戏类型" transform="translate(58.000000, 1.408000)">
                    <g id="电竞" transform="translate(72.490820, 0.690643)">
                        <g id="编组" transform="translate(0.012524, 0.000000)">
                            <mask id="mask-2" fill="white">
                                <use xlink:href="#path-1"></use>
                            </mask>
                            <g id="Clip-2"></g>
                            <path d="M6.31489824,6.43384225 L2.79575997,6.43384225 L2.79575997,0.648731417 L1.32227122,0.648731417 C1.44704333,0.834708417 1.56923487,1.00844425 1.68068502,1.18774608 C1.71639406,1.24522108 1.7413176,1.31741775 1.741472,1.38293925 C1.74482454,2.89134542 1.7441408,4.39977175 1.74392024,5.90817792 C1.74389818,6.08913342 1.78353323,6.28134192 1.72940724,6.44783792 C1.67532535,6.61419275 1.52648989,6.75475442 1.41942893,6.90677075 C1.38153632,6.96055525 1.34434951,7.01476325 1.29893572,7.08019249 C2.78821674,7.08019249 4.25440488,7.08038558 5.72061508,7.07883275 C5.74891323,7.07881258 5.78746753,7.06574458 5.80389942,7.04642492 C5.9701152,6.85115108 6.13271375,6.65331608 6.31489824,6.43384225 L6.31489824,6.43384225 Z M3.50378713,-1.00833333e-05 L3.50378713,5.78897275 L7.72572524,5.78897275 C7.69950038,5.82648275 7.68470065,5.85128775 7.66621752,5.87351142 C7.17401061,6.46574592 6.68109789,7.05749642 6.18957472,7.65021492 C6.14993967,7.69798975 6.11178239,7.72588025 6.03811457,7.72579976 C4.05867786,7.72339975 2.07926322,7.72388375 0.0998265142,7.72388375 L0,7.72388375 C0.0284304854,7.68058592 0.0473106215,7.64956958 0.068484606,7.61992458 C0.374911862,7.19085858 0.682927167,6.76270008 0.986465057,6.33191992 C1.01776285,6.28749275 1.03787814,6.22765825 1.03796636,6.17492242 C1.04065722,4.62971208 1.04059105,3.08448158 1.03820898,1.53925108 C1.03812076,1.48921758 1.02060811,1.43295258 0.992177622,1.39015892 C0.704983401,0.958007417 0.413598496,0.52819525 0.124198653,0.0972739167 C0.103642243,0.0666609167 0.0894380281,0.0324985833 0.0723003344,-1.00833333e-05 L3.50378713,-1.00833333e-05 Z" id="Fill-1" fill="#262626" mask="url(#mask-2)"></path>
                        </g>
                        <path d="M4.22276622,1.30690819 L4.22276622,0.6857895 C4.76048698,0.762604808 5.2598518,0.906973868 5.71063244,1.13805257 C7.09353615,1.84699305 7.77838636,2.85015572 7.74022712,4.14174971 C7.73334272,4.37476509 7.65530314,4.60672584 7.60455528,4.83843732 C7.59885106,4.86457293 7.55752008,4.90578015 7.53158065,4.90629787 C7.27990668,4.91143679 7.02798684,4.90938506 6.7722314,4.90938506 C7.48378325,3.36448847 6.25804053,1.68128214 4.22276622,1.30690819" id="Fill-3" fill="#262626"></path>
                        <path d="M0.70379437,5.6137895 C-0.22024689,4.4460584 -0.248840455,2.61641498 0.70379437,1.3897895 L0.70379437,5.6137895 Z" id="Fill-5" fill="#262626"></path>
                    </g>
                </g>
            </g>
        </g>
    </g>
</svg>