<svg width="18" height="17" viewBox="0 0 18 17" fill="none" xmlns="http://www.w3.org/2000/svg">
<path d="M5.42833 16.0329C4.60708 15.8775 4.0957 14.9397 3.8818 14.4527C3.02717 14.0375 2.30663 13.3902 1.80257 12.5849C1.29851 11.7795 1.03127 10.8485 1.03144 9.89836C1.0297 8.77207 1.40528 7.67766 2.09825 6.78978V6.78978C2.09825 6.78978 3.42741 4.48235 9.69347 2.45408C9.78376 2.35725 9.89301 2.28007 10.0145 2.22735C10.1359 2.17464 10.2669 2.14752 10.3993 2.14769C10.5263 2.14769 10.6521 2.1727 10.7694 2.22131C10.8867 2.26991 10.9933 2.34115 11.0831 2.43095C11.1729 2.52076 11.2442 2.62737 11.2927 2.74471C11.3413 2.86204 11.3663 2.9878 11.3663 3.11479C11.3663 3.11768 11.3663 3.12057 11.3663 3.12334C11.3639 3.32053 11.3743 3.51766 11.3976 3.71348C11.0085 3.83623 10.6542 4.0497 10.3638 4.33627C10.0734 4.62285 9.85522 4.97434 9.72731 5.36177C9.67046 4.89942 9.73126 4.37636 9.78606 3.90811C9.79409 3.8393 9.80189 3.77201 9.80943 3.70625C9.85098 3.3329 9.98417 3.06517 10.2052 2.90897C10.3002 2.84019 10.4112 2.79676 10.5277 2.78275C10.5675 2.78081 10.6048 2.76329 10.6317 2.73398C10.6586 2.70467 10.6729 2.66594 10.6714 2.62618C10.6695 2.58637 10.652 2.54889 10.6227 2.52186C10.5934 2.49482 10.5547 2.48038 10.5148 2.48166C10.3473 2.49635 10.1866 2.55474 10.0487 2.65099C9.83907 2.79287 9.5753 3.0854 9.50967 3.67362C9.50232 3.73877 9.49462 3.8061 9.48655 3.87378C9.37961 4.78825 9.23688 6.00707 10.0514 6.60299C9.74657 6.69356 9.33395 6.77593 9.12198 6.67019C9.09208 6.65649 9.06572 6.63611 9.04495 6.61061C9.02417 6.58512 9.00954 6.55519 9.00216 6.52314C8.8468 5.92553 8.81836 5.77306 8.81342 5.73681C8.81474 5.7059 8.80657 5.67533 8.78999 5.64921C8.77341 5.62309 8.74922 5.60268 8.72069 5.59072C8.69467 5.57982 8.66612 5.57641 8.63827 5.58086C8.61042 5.5853 8.58438 5.59744 8.56305 5.61589C8.49079 5.67876 8.50656 5.75475 8.53318 5.88085C8.56317 6.02321 8.62265 6.26492 8.7096 6.59925C8.7278 6.67306 8.76207 6.74194 8.80995 6.80098C8.85784 6.86002 8.91815 6.90777 8.98661 6.94081C9.11552 6.99883 9.256 7.02656 9.39729 7.02186C9.75078 7.00381 10.0988 6.92697 10.427 6.79448C10.5956 7.15579 8.66179 7.39232 8.66179 7.39232C8.66179 7.39232 6.87935 7.96656 5.00524 10.7766C3.13114 13.5866 5.03558 14.1006 5.54924 14.3122C6.0629 14.5238 5.9421 14.3122 5.9421 14.3122C4.61248 13.4662 5.54925 11.9854 6.36521 10.9882C7.18117 9.99098 11.9256 6.39487 12.3486 5.97166C12.7716 5.54845 12.1672 5.72994 12.1672 5.72994L10.9147 6.15231C10.9167 5.95984 10.9631 5.77042 11.0503 5.59881C11.1375 5.4272 11.2631 5.27804 11.4174 5.16293C11.4174 5.16293 11.6038 5.53857 11.7918 5.53857C11.8672 5.37092 11.9484 5.20532 12.0309 5.04358C12.1375 5.09427 12.2535 5.12232 12.3716 5.12597C12.4896 5.12962 12.6071 5.10878 12.7166 5.06478V5.06478C12.7854 5.01572 12.8678 4.98937 12.9523 4.98938C13.0457 4.98941 13.1363 5.02146 13.2088 5.08017C13.2814 5.13889 13.3317 5.22073 13.3512 5.31203C13.357 5.70947 12.9523 5.82039 12.9523 5.82039H12.951L12.9269 5.84207L12.9028 5.86387L12.8606 5.90253L12.8522 5.91C12.8439 5.9177 12.8352 5.92565 12.826 5.93408L12.8148 5.94432L12.6784 6.06897L12.6709 6.07584L12.625 6.11775L12.613 6.12847L12.5648 6.17207L12.5519 6.18411L12.4955 6.23542L12.4911 6.23951C12.4469 6.27974 12.4003 6.32225 12.3512 6.36657L12.3451 6.37223L12.2776 6.43353L12.2672 6.44281L12.203 6.50098C12.1976 6.50604 12.1922 6.51085 12.1865 6.51603L12.0227 6.66429L12.0217 6.66513L11.9397 6.73932L11.9238 6.75365L11.8489 6.8211C11.8448 6.82495 11.8405 6.8288 11.8363 6.83314C11.7455 6.91516 11.651 7.00018 11.5541 7.08738L11.5484 7.09244C11.5189 7.11902 11.4892 7.14571 11.4591 7.17253C11.454 7.17723 11.4488 7.1818 11.4438 7.18638L11.358 7.26322L11.346 7.27394L11.2288 7.37884C11.4943 7.55973 11.8102 7.65233 12.1314 7.64347C12.4526 7.6346 12.7628 7.52473 13.018 7.32946C13.2256 7.16458 13.8773 6.54662 13.8622 5.29035C13.8482 4.45502 14.126 3.64094 14.6477 2.98845C14.5395 2.7942 14.4953 2.57073 14.5215 2.3499C14.5478 2.12907 14.6431 1.92216 14.7938 1.75868C14.9572 1.58151 15.1763 1.46555 15.4146 1.43004C15.653 1.39453 15.8964 1.4416 16.1043 1.56345L17.3971 0.075583C17.416 0.0538177 17.439 0.0359888 17.4648 0.0231127C17.4906 0.0102367 17.5187 0.00256642 17.5474 0.000541959C17.5761 -0.0014825 17.605 0.00217712 17.6323 0.0113128C17.6597 0.0204484 17.6849 0.0348806 17.7067 0.0537841C17.7506 0.0919426 17.7776 0.145988 17.7817 0.204032C17.7857 0.262076 17.7666 0.319367 17.7285 0.363306L16.4285 1.85925C16.5699 2.05671 16.6389 2.29687 16.6239 2.53928C16.6089 2.78168 16.5109 3.01152 16.3462 3.19006C16.1955 3.35357 15.9969 3.4653 15.7789 3.50931C15.5609 3.55332 15.3345 3.52737 15.1321 3.43515C14.3613 4.60844 14.6365 4.47933 14.5208 5.73332C14.4661 6.47461 14.1365 7.16875 13.5966 7.67957V7.67957C13.2176 8.0451 12.7188 8.26053 12.1929 8.28576C11.667 8.311 11.1498 8.14432 10.7376 7.81674L10.7146 7.8371C9.97505 8.49215 9.21351 9.15214 8.70563 9.55355C7.40624 10.5811 2.7561 14.3138 9.23557 13.8678C8.3418 14.5785 7.23318 14.9646 6.09132 14.9628C5.86981 14.9628 5.64855 14.9484 5.42892 14.9196C5.40658 15.1322 5.42637 15.3471 5.48711 15.5521C5.62236 16.0117 5.46712 16.0359 5.43303 16.0359C5.43141 16.035 5.42984 16.034 5.42833 16.0329V16.0329ZM5.63704 5.04707C4.72016 5.45284 3.8995 6.04798 3.22893 6.7934C2.73475 7.35577 2.35437 8.00867 2.10887 8.71592C1.85452 9.41917 1.75035 10.1679 1.80307 10.9139C1.80748 10.9506 1.82517 10.9844 1.85279 11.0089C1.88041 11.0334 1.91608 11.047 1.95303 11.0471C1.95911 11.0471 1.96517 11.0467 1.9712 11.0459C1.99093 11.0435 2.01002 11.0374 2.02736 11.0276C2.0447 11.0179 2.05996 11.0049 2.07226 10.9893C2.08456 10.9737 2.09365 10.9558 2.09905 10.9367C2.10444 10.9176 2.10603 10.8976 2.10369 10.8779C2.05824 10.1776 2.15733 9.47541 2.39478 8.81504C2.62764 8.14451 2.98832 7.52552 3.45689 6.99236C4.0996 6.27914 4.88581 5.70985 5.76397 5.32179C5.80035 5.30502 5.82862 5.27449 5.84251 5.23691C5.85639 5.19933 5.85477 5.15778 5.83804 5.12138C5.82596 5.09513 5.80662 5.07289 5.78229 5.0573C5.75795 5.04172 5.72965 5.03344 5.70075 5.03346C5.67862 5.03318 5.65671 5.03779 5.63656 5.04695L5.63704 5.04707ZM6.16974 7.78964C5.71528 7.93379 5.26994 8.10524 4.83615 8.30306C3.90108 8.73386 3.36996 9.16587 3.2576 9.5874C3.25165 9.60978 3.25089 9.63323 3.25542 9.65595C3.25995 9.67867 3.26962 9.70004 3.28371 9.71843C3.29783 9.7368 3.31598 9.75168 3.33675 9.76193C3.35753 9.77219 3.38039 9.77753 3.40356 9.77756C3.7132 9.77756 4.74353 9.76215 5.00536 9.56596C5.02125 9.55407 5.03461 9.53917 5.04473 9.5221C5.05486 9.50504 5.06153 9.48614 5.06435 9.4665C5.06716 9.44686 5.06609 9.42686 5.06117 9.40764C5.05626 9.38841 5.04761 9.37035 5.03571 9.35447C5.02382 9.33859 5.0089 9.3252 4.99184 9.31508C4.97477 9.30496 4.95588 9.2983 4.93624 9.29548C4.9166 9.29266 4.89659 9.29374 4.87737 9.29865C4.85815 9.30357 4.84009 9.31222 4.82421 9.32412C4.71654 9.40481 4.1705 9.45889 3.64552 9.47214C3.84147 9.19514 4.29587 8.88513 4.9602 8.57874C5.38266 8.3865 5.81612 8.21949 6.25836 8.07857C6.29667 8.06682 6.32876 8.04034 6.34757 8.00496C6.36638 7.96958 6.37037 7.92818 6.35868 7.88985C6.34916 7.85894 6.33 7.83189 6.30399 7.81267C6.27798 7.79344 6.24651 7.78305 6.21416 7.78302C6.19911 7.78297 6.18414 7.78516 6.16974 7.78952V7.78964ZM8.25329 4.32289C8.25329 4.41105 8.28831 4.49559 8.35064 4.55793C8.41298 4.62027 8.49754 4.65529 8.58569 4.65529C8.62935 4.65529 8.67256 4.64669 8.71289 4.62999C8.75322 4.61328 8.78985 4.5888 8.82072 4.55793C8.85158 4.52707 8.87608 4.49042 8.89278 4.45009C8.90949 4.40977 8.9181 4.36654 8.9181 4.32289C8.9181 4.27924 8.90949 4.23601 8.89278 4.19568C8.87608 4.15535 8.85158 4.11871 8.82072 4.08784C8.78985 4.05698 8.75322 4.03249 8.71289 4.01579C8.67256 3.99908 8.62935 3.99048 8.58569 3.99048C8.49762 3.99061 8.41317 4.02569 8.35094 4.08801C8.2887 4.15034 8.25376 4.23481 8.25376 4.32289H8.25329ZM15.1796 2.11047C15.1321 2.16191 15.0953 2.22219 15.0711 2.28787C15.047 2.35355 15.036 2.42335 15.0388 2.49327C15.0417 2.56319 15.0582 2.63187 15.0876 2.69539C15.117 2.7589 15.1586 2.81601 15.21 2.86344C15.2615 2.9109 15.3218 2.94776 15.3875 2.97192C15.4531 2.99608 15.5229 3.00706 15.5929 3.00424C15.6628 3.00142 15.7315 2.98486 15.795 2.95549C15.8585 2.92613 15.9157 2.88454 15.9631 2.83309C16.054 2.73447 16.1044 2.60521 16.1043 2.47108C16.1041 2.33694 16.0534 2.2078 15.9623 2.10939C15.9532 2.10356 15.9445 2.09708 15.9364 2.09C15.9245 2.0797 15.9138 2.06815 15.9043 2.05555C15.8099 1.97987 15.6925 1.9387 15.5715 1.93885C15.4979 1.93881 15.4251 1.95404 15.3577 1.98359C15.2904 2.01313 15.2299 2.05634 15.18 2.11047H15.1796ZM9.01722 14.8702C9.85907 14.3523 10.1011 13.2165 9.61314 13.2979C9.28856 13.3521 8.68202 13.2979 8.21171 13.2401C8.44536 12.0073 9.58276 10.6689 9.58276 10.6689C9.58276 10.6689 10.5801 11.364 10.6404 12.9051C10.7008 14.4462 11.6376 15.2319 11.6376 15.2319C11.387 15.2659 11.1345 15.2832 10.8816 15.2838C10.2362 15.2964 9.59718 15.1546 9.01769 14.8703L9.01722 14.8702ZM1.72371 4.33361C2.34541 4.37888 2.9639 4.46063 3.57601 4.57845C1.94759 5.63829 1.49354 6.42691 1.49354 6.42691C0.800503 7.31471 0.42488 8.40909 0.42661 9.53537C0.426611 9.78276 0.444606 10.0298 0.480448 10.2746L0.474303 10.2844C-0.705852 8.33329 0.546676 4.25629 1.72418 4.33373L1.72371 4.33361ZM9.92108 5.99129C9.94871 5.48845 10.1509 5.01101 10.4929 4.64132C10.704 4.41185 10.9622 4.23068 11.2497 4.1102L11.2529 4.11682L11.2542 4.11237L12.7646 3.45334C12.7646 3.45334 11.7966 4.50306 11.6992 5.26133C11.5993 5.09065 11.5209 4.90824 11.4659 4.71828C11.2766 4.80274 11.1065 4.92495 10.966 5.07742C10.8193 5.23622 10.7081 5.42439 10.6396 5.62945C10.5712 5.83452 10.5472 6.05179 10.5692 6.26685L10.2545 6.37307C10.1125 6.27665 9.99778 6.14518 9.92155 5.99141L9.92108 5.99129Z" fill="#272C43"/>
</svg>
