<?xml version="1.0" encoding="UTF-8"?>
<svg width="12px" height="10px" viewBox="0 0 12 10" version="1.1" xmlns="http://www.w3.org/2000/svg" xmlns:xlink="http://www.w3.org/1999/xlink">
    <title>捕鱼</title>
    <defs>
        <polygon id="path-1" points="0 0 9.84379973 0 9.84379973 9.12043253 0 9.12043253"></polygon>
    </defs>
    <g id="控件" stroke="none" stroke-width="1" fill="none" fill-rule="evenodd">
        <g id="redbox" transform="translate(-78.000000, -124.000000)">
            <g id="类型" transform="translate(10.000000, 123.115955)">
                <g id="游戏类型" transform="translate(58.000000, 1.408000)">
                    <g id="捕鱼" transform="translate(10.556916, 0.000000)">
                        <g id="编组" transform="translate(0.709448, 0.000000)">
                            <mask id="mask-2" fill="white">
                                <use xlink:href="#path-1"></use>
                            </mask>
                            <g id="Clip-2"></g>
                            <path d="M4.74532735,2.46327467 C4.6054418,2.36627733 4.5164041,2.25686933 4.44254166,2.26567467 C4.35544582,2.276144 4.28143953,2.38881067 4.20175151,2.45717333 C4.2827341,2.536352 4.35235323,2.653664 4.44901451,2.68042667 C4.5066229,2.69637333 4.60659253,2.57011733 4.74532735,2.46327467 L4.74532735,2.46327467 Z M9.08026914,1.416688 C8.84739027,1.26124267 8.70995001,1.09824 8.58552739,1.106976 C8.46685841,1.115296 8.27605308,1.30194133 8.27497029,1.41155733 C8.27396738,1.51944 8.46434119,1.706432 8.58372937,1.716624 C8.70750471,1.727232 8.84688682,1.56714133 9.08026914,1.416688 L9.08026914,1.416688 Z M3.15696106,4.568304 C3.14566953,4.53738133 3.13430608,4.50638933 3.12294262,4.47546667 C3.06921794,4.46520533 3.00290716,4.429984 2.96371043,4.44842667 C2.44803978,4.690816 1.92977999,4.92966933 1.42921267,5.19889067 C1.33924001,5.24735467 1.3262943,5.4288 1.2777479,5.548816 C1.39914986,5.56767467 1.52004838,5.59783467 1.6420257,5.60248 C1.78327775,5.60781867 1.93078688,5.61073067 2.06570991,5.57738133 C2.17790604,5.54957867 2.27578997,5.467904 2.3800029,5.41008 C2.36648183,5.37811733 2.35288884,5.346224 2.33929585,5.31433067 C2.13389064,5.325424 1.92848542,5.33651733 1.72315213,5.34761067 C1.71279557,5.31100267 1.70251092,5.27439467 1.69215436,5.23778667 C2.18042326,5.014672 2.66869216,4.791488 3.15696106,4.568304 L3.15696106,4.568304 Z M0.505968024,6.31917867 C0.664696772,5.63402667 0.684403014,4.88432533 1.19921062,4.34144533 C1.69014058,3.82380267 2.27039592,3.38485333 2.79951572,2.921776 C2.53930702,2.82914667 1.91604316,3.14010667 1.36656983,3.70732267 C0.658871204,4.43781867 0.276972858,5.28389333 0.505968024,6.31917867 L0.505968024,6.31917867 Z M9.84385007,0 C9.64693149,0.276709333 9.43505343,0.545029333 9.26007063,0.83408 C9.18232446,0.962624 9.13126084,1.13935467 9.15154245,1.28322133 C9.19901004,1.61962667 8.98252906,1.94674133 8.64270426,1.979536 C8.19600546,2.02266133 8.00807695,2.20889067 7.96585956,2.65484267 C7.94104696,2.91726933 7.93040271,3.18136 7.89537738,3.44246933 C7.76153316,4.44052267 6.80427007,4.95074667 5.86678515,4.53862933 C5.78414839,4.50229867 5.62822454,4.51221333 5.56277681,4.56525333 C4.85313632,5.14072 4.14299239,5.716672 3.46003444,6.320912 C3.22924126,6.525168 3.04296693,6.793488 2.89423514,7.062224 C2.69364861,7.42456 2.82655786,7.740096 3.2384471,7.837232 C3.68198139,7.94178667 4.14529385,7.96848 4.60119848,8.02935467 C4.01928897,8.45949867 3.31957352,8.54886933 2.54606755,8.5176 C2.56232161,8.72941333 2.57656188,8.913632 2.59245633,9.12045333 C2.18294048,9.05541867 1.99494005,8.76851733 1.79385007,8.487024 C1.69654151,8.350784 1.58412963,8.2056 1.44230222,8.120736 C-0.223738307,7.12323733 -0.496964638,4.96808 0.887650609,3.62121067 C1.69941834,2.831504 2.71357061,2.35234133 3.76015907,1.930448 C4.28503556,1.71877333 4.81580953,1.52054933 5.34514509,1.319344 C5.59744253,1.223456 5.89677604,1.33432 5.98574181,1.58898133 C6.06694016,1.821664 6.14209718,2.05684267 5.80126549,2.223104 C5.5596123,2.34097067 5.37448869,2.566512 5.15520281,2.75156267 C5.16016533,2.27170667 5.12801682,1.776528 5.73833497,1.523392 C5.71726224,1.48685333 5.69611758,1.45031467 5.67497293,1.41384533 C5.54069718,1.44150933 5.34888496,1.42584 5.28394067,1.50578133 C5.13844531,1.685008 5.0015085,1.901952 4.95871575,2.121184 C4.8509787,2.67286933 4.77632513,3.23703467 5.19152271,3.73138133 C4.5450285,3.99436267 4.74993027,3.33229867 4.48662898,3.15002133 C4.25684269,3.38679467 4.39147804,3.662464 4.51230463,3.795792 C4.6613241,3.96025067 4.94958183,4.00746667 5.22367121,4.048928 C5.09435799,4.07797867 4.96648317,4.121312 4.83544385,4.13351467 C4.35041138,4.17865067 3.96542045,4.42006933 3.60473867,4.70613867 C2.96327891,5.214768 2.45501608,5.83128 2.0513258,6.528704 C1.9937174,6.62819733 1.9479759,6.73517867 1.90748461,6.84243733 C1.62936768,7.57965867 1.9888268,8.12087467 2.81843084,8.21759467 C2.8267017,8.197488 2.84770252,8.16739733 2.84043854,8.158384 C2.42236413,7.64011733 2.38050635,7.38476267 2.75880866,6.83501867 C3.00535246,6.47663467 3.30073033,6.13170133 3.63810983,5.852496 C4.56725196,5.08352 5.53105982,4.35344 6.47825403,3.60464 C6.59023439,3.51610133 6.68430652,3.406416 6.78664953,3.306576 C6.76974819,3.27731733 6.75291877,3.24805867 6.73601743,3.2188 C6.46228766,3.28882667 6.18855788,3.35885333 5.82787611,3.451136 C5.91482811,3.27960533 5.96697053,3.17692267 6.03033258,3.05191467 C6.14195334,3.09767467 6.23171024,3.13449067 6.32139521,3.17123733 C6.31549773,3.136432 6.30967216,3.10162667 6.30377467,3.066752 C6.54852045,3.013296 6.79204357,2.952976 7.03909081,2.91255467 C7.08274661,2.90541333 7.18954869,2.99117867 7.18386696,3.016416 C7.16315383,3.10765867 7.12784082,3.21283733 7.06023546,3.27398933 C6.80074596,3.50896 6.53039646,3.733392 6.25565979,3.952 C6.16511177,4.02410667 6.04924769,4.066608 5.92762997,4.13198933 C6.3978468,4.47414933 6.93617244,4.44704 7.19702843,4.08962667 C7.38035402,3.83857067 7.51736275,3.52352 7.56533378,3.22081067 C7.64106617,2.74338133 7.66753295,2.265952 7.9656438,1.84939733 C8.01706702,1.777568 8.01692318,1.65762133 8.00894,1.56235733 C7.9673699,1.07029867 8.24764444,0.81016 8.75339005,0.869578667 C8.83372535,0.879008 8.95239433,0.863546667 8.99928656,0.813002667 C9.24280968,0.550298667 9.46885611,0.272549333 9.70101578,0 L9.84385007,0 Z" id="Fill-1" fill="#262626" mask="url(#mask-2)"></path>
                        </g>
                        <path d="M0,4.64039633 C0.0679076108,4.39320585 0.138817111,4.14655865 0.202911511,3.89868908 C0.25905496,3.68144668 0.373289029,3.528175 0.633723235,3.41592065 C0.975046196,3.26882873 1.26671628,3.04323347 1.59619395,2.87379933 C1.73882427,2.8004571 1.92258859,2.7832081 2.11138311,2.78449838 C0.989487719,3.47262506 0.283151209,4.33487162 0.220030395,5.60043253 C0.124294456,5.35867481 0.062147228,5.20173602 0,5.04486515 C0,4.90999693 0,4.77519663 0,4.64039633" id="Fill-3" fill="#262626"></path>
                        <path d="M6.98250328,8.41643253 C6.49756268,8.35499308 6.01254055,8.29362874 5.48585657,8.22693163 C5.67141891,7.96404888 5.82705974,7.79069648 5.92562954,7.59308377 C6.08069965,7.28220614 5.98433116,7.16052898 5.61467402,7.14453069 C5.42642118,7.13634377 5.23792376,7.13161188 5.04975246,7.12312452 C5.02415203,7.12199788 4.99920384,7.10787732 4.92656059,7.08459342 C5.03369104,6.51075794 5.40603868,6.07099265 5.76778741,5.60043253 C6.17674202,5.89433545 6.37877343,6.26304728 6.42443024,6.67359502 C6.48998039,7.26245238 6.59172986,7.82734985 7.0379437,8.29730909 C7.01943638,8.33704194 7.00101059,8.37669968 6.98250328,8.41643253" id="Fill-5" fill="#262626"></path>
                        <path d="M7.0379437,2.13077656 C6.91649927,2.32262813 6.79512991,2.51441166 6.68081603,2.69503787 C5.97894531,2.57142287 6.04724842,3.15031116 5.7305772,3.48843253 C5.69755152,3.36427328 5.59246982,3.19977076 5.64463538,3.12323423 C5.82672696,2.85607072 6.03336262,2.58924738 6.28901139,2.38099999 C6.47185355,2.23207691 6.74799326,2.17724274 6.98247557,2.08043253 L7.0379437,2.13077656 Z" id="Fill-7" fill="#262626"></path>
                    </g>
                </g>
            </g>
        </g>
    </g>
</svg>