<svg width="18" height="18" viewBox="0 0 18 18" fill="none" xmlns="http://www.w3.org/2000/svg">
<mask id="mask0_2207_16543" style="mask-type:alpha" maskUnits="userSpaceOnUse" x="0" y="0" width="18" height="18">
<rect width="18" height="18" fill="#D9D9D9"/>
</mask>
<g mask="url(#mask0_2207_16543)">
<g filter="url(#filter0_i_2207_16543)">
<path d="M5.69971 6.3071C6.20397 6.41098 6.12141 6.04706 6.13517 5.77602C6.69997 5.71342 6.69997 5.71342 6.75844 5.13555C7.00335 5.13555 7.30329 5.22154 7.47665 5.11079C7.6335 5.00966 7.65345 4.6939 7.75733 4.40771C8.17009 4.66088 8.62 4.91472 9.04308 5.21191C9.26528 5.36807 9.45034 5.43274 9.73101 5.36807C11.2218 5.0241 12.7132 5.16651 14.2026 5.38871C14.5423 5.43787 14.8867 5.4455 15.2283 5.41141C15.866 5.3495 16.2829 5.61779 16.3538 6.26789C16.3992 6.68478 16.3538 7.11268 16.3428 7.53507C16.3386 7.77585 16.3208 8.01662 16.3228 8.25603C16.3228 8.68048 16.3916 9.05679 16.9275 9.12764C17.0218 9.14071 17.1779 9.30651 17.1635 9.36704C17.1441 9.43014 17.1118 9.4885 17.0685 9.53837C17.0253 9.58824 16.9721 9.62853 16.9124 9.65666C16.3916 9.86304 15.8688 10.0694 15.3301 10.2242C14.1868 10.5537 13.0324 10.8434 11.887 11.1681C11.6717 11.234 11.4691 11.3358 11.2878 11.4694C10.8964 11.7494 10.5311 12.0631 10.1417 12.3472C9.96079 12.4793 9.75234 12.5735 9.46891 12.7345C9.43107 12.4008 9.40012 12.1415 9.36779 11.8402C8.70186 12.0651 8.06621 12.332 7.63212 12.9195C7.44363 13.1748 7.41542 13.4699 7.61699 13.8249C7.65827 13.2649 7.94307 12.9202 8.37922 12.6341C8.44251 13.1631 8.75759 13.483 9.17379 13.7347C9.37191 13.8551 9.48542 13.8352 9.66979 13.6783C10.115 13.3027 10.5815 12.9531 11.067 12.6313C11.402 12.4077 11.4632 12.449 11.5822 12.8446C11.7557 13.4078 11.7507 14.011 11.5678 14.5713C11.2926 15.4223 11.1358 16.2746 11.4123 17.2274C10.8345 16.9887 10.3061 16.6446 9.85415 16.2127C9.55718 15.9316 9.20141 15.7202 8.81262 15.5936C8.02425 15.3239 7.25444 14.9999 6.44474 14.6862C6.35256 14.9132 6.26038 15.1677 6.1448 15.4112C6.09596 15.5138 5.99621 15.5915 5.91916 15.6809C5.82836 15.5991 5.69283 15.5351 5.65362 15.434C5.48439 14.9992 5.34542 14.5527 5.19064 14.1117C5.14661 13.9886 5.12184 13.8194 5.02691 13.7588C4.36787 13.3275 4.11471 12.6581 3.95029 11.9468C3.69782 10.8557 3.67099 9.76674 4.10095 8.70525C4.15685 8.5425 4.24066 8.39073 4.3486 8.25671C4.7194 7.85083 5.07094 7.4367 5.28007 6.91937C5.29864 6.87259 5.35437 6.81067 5.39496 6.80861C5.69834 6.8038 5.69283 6.58434 5.69971 6.3071ZM16.2348 9.55554L16.2182 9.43446C16.1015 9.39692 15.9822 9.36795 15.8612 9.34778C15.3721 9.29619 14.8823 9.24803 14.3918 9.21019C14.0024 9.1813 13.8683 9.06917 13.893 8.68049C13.9018 8.42912 13.9566 8.1815 14.0547 7.94989C14.2968 7.43325 14.5775 6.93381 14.852 6.43644C15.0226 6.1248 15.2524 5.90535 15.6548 5.99616C15.7092 6.00785 15.7807 5.93975 15.8447 5.90879C15.7972 5.85238 15.7615 5.7712 15.7009 5.74369C15.4505 5.62467 14.993 5.73681 14.8066 6.02574C14.2026 6.97371 13.4995 7.89348 13.6371 9.12489C13.0785 9.23427 12.815 8.96735 12.9595 8.43283C12.998 8.28974 13.0661 8.15353 13.0971 8.00906C13.1095 7.94783 13.0579 7.87147 13.0345 7.80268C12.9739 7.83914 12.8831 7.86115 12.8577 7.91481C12.7914 8.06037 12.7378 8.21136 12.6974 8.3661C12.5405 8.9247 12.7105 9.25353 13.2546 9.42277C13.4156 9.47299 13.5938 9.46748 13.7582 9.50876C13.8627 9.54606 13.9632 9.59377 14.0581 9.65116C13.9536 9.69519 13.8421 9.78875 13.7465 9.77499C13.311 9.7062 12.8811 9.60301 12.447 9.52252C12.2076 9.47849 11.9441 9.37736 11.7253 9.43446C10.8523 9.66079 9.97936 9.90294 9.13045 10.207C8.11093 10.5716 7.15745 11.0704 6.42892 11.9097C5.67838 12.7737 5.90127 13.8421 6.93043 14.3106C6.93043 14.2995 6.93043 14.2865 6.93043 14.2775C6.58646 13.6178 6.79284 13.0578 7.26201 12.5577C7.89766 11.8876 8.71493 11.5155 9.58173 11.2836C11.4151 10.7945 13.2615 10.3535 15.101 9.88644C15.4835 9.79081 15.8571 9.6663 16.2348 9.55554ZM10.355 6.00923C9.94221 6.09591 9.55422 6.15232 9.18548 6.2562C7.56814 6.70611 6.12761 7.45871 5.02622 8.76579C4.95743 8.84559 4.95193 8.97217 4.91684 9.08155C5.01384 9.0389 5.13973 9.0217 5.2044 8.94947C6.57477 7.40849 8.3118 6.58916 10.3316 6.31123C10.4437 6.2961 10.5455 6.20598 10.6522 6.15026L10.355 6.00923ZM6.83343 9.29412C7.13747 9.57292 7.51481 9.75909 7.92106 9.83071C7.97127 9.84103 8.03525 9.786 8.09235 9.76192C8.05314 9.70276 8.02356 9.62433 7.97127 9.58787C7.85839 9.52081 7.74145 9.46085 7.62112 9.40832L7.62868 9.29687L9.75303 8.95979C9.21438 8.7878 7.35901 8.97767 6.83343 9.29343V9.29412ZM13.8456 6.66621C13.6461 6.541 13.5319 6.41442 13.4239 6.41924C13.333 6.42337 13.1673 6.5981 13.181 6.6669C13.2044 6.77765 13.3399 6.929 13.4424 6.94207C13.5449 6.95514 13.6543 6.80792 13.8456 6.66621Z" fill="url(#paint0_linear_2207_16543)"/>
<path d="M5.69971 6.3071C6.20397 6.41098 6.12141 6.04706 6.13517 5.77602C6.69997 5.71342 6.69997 5.71342 6.75844 5.13555C7.00335 5.13555 7.30329 5.22154 7.47665 5.11079C7.6335 5.00966 7.65345 4.6939 7.75733 4.40771C8.17009 4.66088 8.62 4.91472 9.04308 5.21191C9.26528 5.36807 9.45034 5.43274 9.73101 5.36807C11.2218 5.0241 12.7132 5.16651 14.2026 5.38871C14.5423 5.43787 14.8867 5.4455 15.2283 5.41141C15.866 5.3495 16.2829 5.61779 16.3538 6.26789C16.3992 6.68478 16.3538 7.11268 16.3428 7.53507C16.3386 7.77585 16.3208 8.01662 16.3228 8.25603C16.3228 8.68048 16.3916 9.05679 16.9275 9.12764C17.0218 9.14071 17.1779 9.30651 17.1635 9.36704C17.1441 9.43014 17.1118 9.4885 17.0685 9.53837C17.0253 9.58824 16.9721 9.62853 16.9124 9.65666C16.3916 9.86304 15.8688 10.0694 15.3301 10.2242C14.1868 10.5537 13.0324 10.8434 11.887 11.1681C11.6717 11.234 11.4691 11.3358 11.2878 11.4694C10.8964 11.7494 10.5311 12.0631 10.1417 12.3472C9.96079 12.4793 9.75234 12.5735 9.46891 12.7345C9.43107 12.4008 9.40012 12.1415 9.36779 11.8402C8.70186 12.0651 8.06621 12.332 7.63212 12.9195C7.44363 13.1748 7.41542 13.4699 7.61699 13.8249C7.65827 13.2649 7.94307 12.9202 8.37922 12.6341C8.44251 13.1631 8.75759 13.483 9.17379 13.7347C9.37191 13.8551 9.48542 13.8352 9.66979 13.6783C10.115 13.3027 10.5815 12.9531 11.067 12.6313C11.402 12.4077 11.4632 12.449 11.5822 12.8446C11.7557 13.4078 11.7507 14.011 11.5678 14.5713C11.2926 15.4223 11.1358 16.2746 11.4123 17.2274C10.8345 16.9887 10.3061 16.6446 9.85415 16.2127C9.55718 15.9316 9.20141 15.7202 8.81262 15.5936C8.02425 15.3239 7.25444 14.9999 6.44474 14.6862C6.35256 14.9132 6.26038 15.1677 6.1448 15.4112C6.09596 15.5138 5.99621 15.5915 5.91916 15.6809C5.82836 15.5991 5.69283 15.5351 5.65362 15.434C5.48439 14.9992 5.34542 14.5527 5.19064 14.1117C5.14661 13.9886 5.12184 13.8194 5.02691 13.7588C4.36787 13.3275 4.11471 12.6581 3.95029 11.9468C3.69782 10.8557 3.67099 9.76674 4.10095 8.70525C4.15685 8.5425 4.24066 8.39073 4.3486 8.25671C4.7194 7.85083 5.07094 7.4367 5.28007 6.91937C5.29864 6.87259 5.35437 6.81067 5.39496 6.80861C5.69834 6.8038 5.69283 6.58434 5.69971 6.3071ZM16.2348 9.55554L16.2182 9.43446C16.1015 9.39692 15.9822 9.36795 15.8612 9.34778C15.3721 9.29619 14.8823 9.24803 14.3918 9.21019C14.0024 9.1813 13.8683 9.06917 13.893 8.68049C13.9018 8.42912 13.9566 8.1815 14.0547 7.94989C14.2968 7.43325 14.5775 6.93381 14.852 6.43644C15.0226 6.1248 15.2524 5.90535 15.6548 5.99616C15.7092 6.00785 15.7807 5.93975 15.8447 5.90879C15.7972 5.85238 15.7615 5.7712 15.7009 5.74369C15.4505 5.62467 14.993 5.73681 14.8066 6.02574C14.2026 6.97371 13.4995 7.89348 13.6371 9.12489C13.0785 9.23427 12.815 8.96735 12.9595 8.43283C12.998 8.28974 13.0661 8.15353 13.0971 8.00906C13.1095 7.94783 13.0579 7.87147 13.0345 7.80268C12.9739 7.83914 12.8831 7.86115 12.8577 7.91481C12.7914 8.06037 12.7378 8.21136 12.6974 8.3661C12.5405 8.9247 12.7105 9.25353 13.2546 9.42277C13.4156 9.47299 13.5938 9.46748 13.7582 9.50876C13.8627 9.54606 13.9632 9.59377 14.0581 9.65116C13.9536 9.69519 13.8421 9.78875 13.7465 9.77499C13.311 9.7062 12.8811 9.60301 12.447 9.52252C12.2076 9.47849 11.9441 9.37736 11.7253 9.43446C10.8523 9.66079 9.97936 9.90294 9.13045 10.207C8.11093 10.5716 7.15745 11.0704 6.42892 11.9097C5.67838 12.7737 5.90127 13.8421 6.93043 14.3106C6.93043 14.2995 6.93043 14.2865 6.93043 14.2775C6.58646 13.6178 6.79284 13.0578 7.26201 12.5577C7.89766 11.8876 8.71493 11.5155 9.58173 11.2836C11.4151 10.7945 13.2615 10.3535 15.101 9.88644C15.4835 9.79081 15.8571 9.6663 16.2348 9.55554ZM10.355 6.00923C9.94221 6.09591 9.55422 6.15232 9.18548 6.2562C7.56814 6.70611 6.12761 7.45871 5.02622 8.76579C4.95743 8.84559 4.95193 8.97217 4.91684 9.08155C5.01384 9.0389 5.13973 9.0217 5.2044 8.94947C6.57477 7.40849 8.3118 6.58916 10.3316 6.31123C10.4437 6.2961 10.5455 6.20598 10.6522 6.15026L10.355 6.00923ZM6.83343 9.29412C7.13747 9.57292 7.51481 9.75909 7.92106 9.83071C7.97127 9.84103 8.03525 9.786 8.09235 9.76192C8.05314 9.70276 8.02356 9.62433 7.97127 9.58787C7.85839 9.52081 7.74145 9.46085 7.62112 9.40832L7.62868 9.29687L9.75303 8.95979C9.21438 8.7878 7.35901 8.97767 6.83343 9.29343V9.29412ZM13.8456 6.66621C13.6461 6.541 13.5319 6.41442 13.4239 6.41924C13.333 6.42337 13.1673 6.5981 13.181 6.6669C13.2044 6.77765 13.3399 6.929 13.4424 6.94207C13.5449 6.95514 13.6543 6.80792 13.8456 6.66621Z" fill="url(#paint1_radial_2207_16543)"/>
</g>
<path d="M7.53083 5.19483L7.53049 5.19506C7.41435 5.26925 7.26657 5.27223 7.13837 5.26452C7.08635 5.26139 7.03251 5.25601 6.98103 5.25086C6.96714 5.24947 6.95342 5.2481 6.93995 5.24679C6.90838 5.24373 6.87786 5.24099 6.84839 5.23898C6.83793 5.33894 6.82788 5.42264 6.81373 5.4909C6.79527 5.57996 6.76704 5.65844 6.70834 5.71875C6.64937 5.77935 6.57202 5.80894 6.48428 5.82842C6.41633 5.8435 6.33284 5.85432 6.23323 5.86568C6.23321 5.87075 6.2332 5.87587 6.23319 5.88104C6.23319 5.88551 6.23319 5.89003 6.23318 5.89458C6.23316 5.92564 6.23315 5.95856 6.2322 5.99089C6.23006 6.06358 6.22317 6.14589 6.19441 6.21884C6.16378 6.29651 6.10783 6.36442 6.01363 6.39971C5.95218 6.42273 5.87998 6.42972 5.79663 6.4226C5.7955 6.4526 5.79394 6.48213 5.79148 6.51042C5.78594 6.57403 5.77535 6.63941 5.75088 6.69835C5.72554 6.7594 5.68496 6.81426 5.62139 6.85275C5.56275 6.88825 5.49202 6.9053 5.41075 6.90823C5.40807 6.91028 5.40453 6.91332 5.40039 6.91751C5.3941 6.92388 5.38794 6.93138 5.38275 6.93898C5.37743 6.94678 5.37435 6.95291 5.37301 6.95627L5.37278 6.95685C5.15674 7.49126 4.79501 7.91622 4.42457 8.32182C4.32482 8.44622 4.24733 8.58693 4.19552 8.73774L4.19377 8.74285L4.19363 8.74279C3.77382 9.77923 3.79818 10.8459 4.04772 11.9243L4.04772 11.9243C4.21067 12.6293 4.45621 13.2658 5.08167 13.6752L5.02691 13.7588M7.53083 5.19483L8.39631 12.7429C8.48744 13.2078 8.78693 13.5007 9.17379 13.7347L9.12186 13.8202C9.12192 13.8202 9.12197 13.8203 9.12203 13.8203M7.53083 5.19483C7.58937 5.15709 7.63016 5.10255 7.66046 5.04528C7.69066 4.98818 7.71333 4.9228 7.73276 4.85695C7.74806 4.80509 7.76128 4.75403 7.77445 4.70314C7.78689 4.6551 7.79928 4.60722 7.81335 4.55895C7.89002 4.60539 7.96743 4.65179 8.04528 4.69846C8.3583 4.88609 8.67843 5.07797 8.98558 5.29373L7.53083 5.19483ZM5.02691 13.7588L5.08068 13.6745C5.15835 13.724 5.19749 13.8102 5.22192 13.8778C5.23491 13.9138 5.24592 13.9513 5.2558 13.985L5.25617 13.9863C5.26624 14.0207 5.2751 14.0509 5.2848 14.0781L5.285 14.0786C5.33861 14.2314 5.38991 14.3835 5.44097 14.5348C5.53894 14.8252 5.63601 15.113 5.74681 15.3977L5.74685 15.3978C5.75581 15.4209 5.7797 15.4479 5.82831 15.4856C5.84502 15.4986 5.86192 15.5108 5.88029 15.5241C5.88789 15.5296 5.89574 15.5353 5.90393 15.5413C5.90562 15.5426 5.90733 15.5438 5.90904 15.5451C5.91562 15.5383 5.92215 15.5316 5.92851 15.5251C5.94355 15.5098 5.95769 15.4953 5.96958 15.4826C6.00827 15.4413 6.03687 15.4053 6.05453 15.3682C6.13607 15.1964 6.20511 15.0206 6.27228 14.8495C6.29896 14.7816 6.32534 14.7144 6.35209 14.6485L6.38911 14.5574L6.48087 14.5929C6.72367 14.687 6.96215 14.7817 7.19816 14.8754C7.75251 15.0955 8.29323 15.3102 8.84429 15.4987C9.24691 15.6299 9.61532 15.849 9.92289 16.1401L9.92325 16.1404C10.317 16.5167 10.77 16.825 11.2635 17.0532C11.0548 16.1536 11.2141 15.3401 11.4727 14.5405L11.4727 14.5402C11.6492 13.9996 11.6541 13.4175 11.4867 12.874L11.4865 12.8734C11.4568 12.7746 11.4326 12.705 11.409 12.6573C11.3847 12.6082 11.3689 12.5988 11.3652 12.5972C11.3643 12.5968 11.3521 12.5908 11.3085 12.6078C11.2646 12.625 11.2056 12.659 11.1225 12.7145L11.1222 12.7147C10.64 13.0343 10.1767 13.3815 9.73452 13.7546C9.63884 13.836 9.54565 13.8964 9.43938 13.9097C9.33041 13.9234 9.22881 13.8852 9.12203 13.8203M5.02691 13.7588C5.09877 13.8046 5.13042 13.9127 5.16066 14.016C5.17037 14.0491 5.17993 14.0818 5.19064 14.1117L4.3486 8.25671C4.24066 8.39073 4.15685 8.5425 4.10095 8.70525C3.67099 9.76674 3.69782 10.8557 3.95029 11.9468C4.11471 12.6581 4.36787 13.3275 5.02691 13.7588ZM9.12203 13.8203C8.73369 13.5854 8.41579 13.2832 8.30742 12.8059C7.96292 13.062 7.75101 13.367 7.71672 13.8322L7.69253 14.1604L7.53003 13.8742C7.4224 13.6847 7.37211 13.5039 7.37835 13.3312C7.38461 13.1578 7.44751 13.0012 7.55168 12.8601L7.55169 12.8601C8.00565 12.2457 8.66824 11.9709 9.33578 11.7454L9.45391 11.7055L9.46722 11.8295C9.48899 12.0324 9.5101 12.2159 9.53316 12.4164C9.53906 12.4677 9.54509 12.5201 9.55128 12.5742M9.12203 13.8203L9.55128 12.5742M11.5678 14.5713C11.7507 14.011 11.7557 13.4078 11.5822 12.8446C11.4632 12.449 11.402 12.4077 11.067 12.6313L11.5678 14.5713ZM11.5678 14.5713C11.3045 15.3856 11.1495 16.2011 11.379 17.1048L11.5678 14.5713ZM9.85415 16.2127C10.2752 16.6151 10.7626 16.9412 11.2944 17.1769L9.85415 16.2127ZM9.85415 16.2127C9.55718 15.9316 9.20141 15.7202 8.81262 15.5936C8.25893 15.4042 7.7144 15.188 7.15877 14.9673C6.92327 14.8738 6.68577 14.7795 6.44474 14.6862M9.85415 16.2127L6.44474 14.6862M6.44474 14.6862C6.41888 14.7499 6.39302 14.8157 6.36664 14.8829C6.299 15.0551 6.22795 15.236 6.1448 15.4112L6.44474 14.6862ZM9.55128 12.5742C9.60066 12.5472 9.64699 12.5223 9.69082 12.4988C9.8449 12.4162 9.96792 12.3502 10.0828 12.2664L10.0828 12.2664C10.265 12.1334 10.4421 11.9938 10.6208 11.8529C10.6312 11.8447 10.6416 11.8364 10.6521 11.8282C10.8407 11.6795 11.0314 11.5299 11.2291 11.3884M9.55128 12.5742L11.2878 11.4694M11.2291 11.3884C11.2293 11.3883 11.2295 11.3882 11.2296 11.388L11.2878 11.4694M11.2291 11.3884C11.2289 11.3886 11.2287 11.3887 11.2285 11.3889L11.2878 11.4694M11.2291 11.3884C11.4193 11.2484 11.6319 11.1416 11.8577 11.0724L11.8597 11.0718L11.8597 11.0719C12.3949 10.9201 12.9319 10.7761 13.4681 10.6323C13.5065 10.622 13.545 10.6117 13.5834 10.6014C14.1582 10.4472 14.7318 10.2926 15.3024 10.1281L15.3025 10.1281C15.8347 9.97518 16.3521 9.77114 16.8724 9.56493M11.2878 11.4694C11.4691 11.3358 11.6717 11.234 11.887 11.1681C12.4214 11.0166 12.9578 10.8727 13.4941 10.7289C14.1072 10.5644 14.7202 10.4 15.3301 10.2242C15.8688 10.0694 16.3916 9.86304 16.9124 9.65666M16.8724 9.56493C16.8715 9.56535 16.8707 9.56578 16.8698 9.5662L16.9124 9.65666M16.8724 9.56493C16.8735 9.56452 16.8745 9.56411 16.8755 9.5637L16.9124 9.65666M16.8724 9.56493C16.9185 9.54279 16.9595 9.51146 16.993 9.47286C17.0223 9.43906 17.0452 9.40032 17.0608 9.3585M16.9124 9.65666C16.9721 9.62853 17.0253 9.58824 17.0685 9.53837C17.1118 9.4885 17.1441 9.43014 17.1635 9.36704M17.1635 9.36704L17.0662 9.34383C17.0642 9.35235 17.0643 9.35902 17.0646 9.36271C17.0647 9.36463 17.065 9.36606 17.0651 9.36694L17.0655 9.36836C17.0655 9.36838 17.0651 9.36728 17.0641 9.36499C17.0633 9.36325 17.0622 9.36108 17.0608 9.3585M17.1635 9.36704C17.1779 9.30651 17.0218 9.14071 16.9275 9.12764L16.9246 9.23056C16.9318 9.23374 16.9407 9.23861 16.951 9.24542C16.9717 9.25914 16.9941 9.27809 17.0144 9.29909C17.0349 9.32032 17.0505 9.34072 17.0595 9.35613C17.0599 9.35696 17.0604 9.35775 17.0608 9.3585M17.1635 9.36704L17.0679 9.33768C17.0657 9.3447 17.0634 9.35164 17.0608 9.3585M16.9138 9.2267C16.9138 9.2267 16.9138 9.2267 16.9138 9.2267L16.9138 9.2267ZM16.9138 9.2267C16.6203 9.18776 16.4382 9.06091 16.3362 8.87193C16.2392 8.6922 16.2228 8.46976 16.2228 8.25646M16.9138 9.2267L16.3538 6.26789M16.2228 8.25646C16.2216 8.11418 16.2275 7.9663 16.2334 7.82119C16.2373 7.72311 16.2412 7.62631 16.2428 7.53336L16.2428 7.53247C16.246 7.41154 16.2517 7.29226 16.2574 7.17424C16.2721 6.86931 16.2864 6.57288 16.2544 6.27872M16.2228 8.25646C16.2228 8.25631 16.2228 8.25617 16.2228 8.25603H16.3228L16.2228 8.25689C16.2228 8.25674 16.2228 8.2566 16.2228 8.25646ZM16.2544 6.27872L16.3538 6.26789M16.2544 6.27872C16.2544 6.27872 16.2544 6.27872 16.2544 6.27873L16.3538 6.26789M16.2544 6.27872C16.2211 5.97357 16.1089 5.77321 15.9447 5.65344C15.7785 5.53227 15.5425 5.4814 15.2381 5.51093M16.3538 6.26789C16.2829 5.61779 15.866 5.3495 15.2283 5.41141M15.2381 5.51093C15.2381 5.51093 15.2382 5.51092 15.2382 5.51092L15.2283 5.41141M15.2381 5.51093C14.8885 5.54581 14.536 5.538 14.1883 5.48768L14.1878 5.48762C12.7003 5.26569 11.2248 5.12604 9.7535 5.46551L9.75347 5.46552C9.6005 5.50076 9.46772 5.50191 9.3406 5.46975C9.21484 5.43794 9.10158 5.37525 8.9856 5.29374L15.2283 5.41141M15.2381 5.51093C15.2381 5.51094 15.238 5.51094 15.238 5.51095L15.2283 5.41141M16.3338 9.54203L16.3455 9.62728L16.2629 9.6515C16.1437 9.68645 16.0238 9.72315 15.9032 9.76005C15.6467 9.83856 15.3872 9.91798 15.1253 9.98344M16.3338 9.54203L13.1601 10.3724C11.9654 10.6694 10.7708 10.9664 9.58173 11.2836M16.3338 9.54203L16.3173 9.42095L16.3088 9.35854L16.2489 9.33926C16.1275 9.30023 16.0034 9.27011 15.8777 9.24914L15.8777 9.24896L15.8717 9.24833C15.3822 9.19669 14.8913 9.14843 14.3995 9.11049L14.3992 9.11047C14.2063 9.09615 14.1094 9.06191 14.0583 9.01005C14.0106 8.96163 13.9809 8.87442 13.9928 8.68684L13.9929 8.68685L13.993 8.68398C14.0013 8.44545 14.0532 8.21047 14.146 7.99062M16.3338 9.54203L14.146 7.99062M15.1253 9.98344C15.1253 9.98344 15.1253 9.98345 15.1253 9.98345L15.101 9.88644L15.1257 9.98336C15.1256 9.98338 15.1255 9.98341 15.1253 9.98344ZM15.1253 9.98344C14.478 10.1478 13.8303 10.3088 13.1829 10.4698C11.9889 10.7666 10.7959 11.0632 9.60751 11.3803M9.60751 11.3803C9.60753 11.3802 9.60755 11.3802 9.60757 11.3802L9.58173 11.2836M9.60751 11.3803C8.75087 11.6094 7.95307 11.9746 7.33476 12.6263M9.60751 11.3803L9.58173 11.2836M9.58173 11.2836L7.33476 12.6263M7.33476 12.6263C7.33482 12.6262 7.33488 12.6262 7.33494 12.6261L7.26201 12.5577L7.33456 12.6265C7.33463 12.6264 7.3347 12.6264 7.33476 12.6263ZM7.33476 12.6263C7.10728 12.8688 6.95044 13.1187 6.88862 13.3807C6.82741 13.6401 6.85711 13.9206 7.0191 14.2313L7.03043 14.253V14.2775V14.2776V14.2776V14.2777V14.2777V14.2778V14.2778V14.2779V14.278V14.278V14.2781V14.2781V14.2782V14.2782V14.2783V14.2783V14.2784V14.2784V14.2785V14.2785V14.2786V14.2787V14.2787V14.2788V14.2788V14.2789V14.2789V14.279V14.279V14.2791V14.2791V14.2792V14.2793V14.2793V14.2794V14.2794V14.2795V14.2795V14.2796V14.2796V14.2797V14.2798V14.2798V14.2799V14.2799V14.28V14.28V14.2801V14.2801V14.2802V14.2803V14.2803V14.2804V14.2804V14.2805V14.2805V14.2806V14.2807V14.2807V14.2808V14.2808V14.2809V14.281V14.281V14.2811V14.2811V14.2812V14.2812V14.2813V14.2814V14.2814V14.2815V14.2815V14.2816V14.2816V14.2817V14.2818V14.2818V14.2819V14.2819V14.282V14.2821V14.2821V14.2822V14.2822V14.2823V14.2824V14.2824V14.2825V14.2825V14.2826V14.2827V14.2827V14.2828V14.2828V14.2829V14.283V14.283V14.2831V14.2831V14.2832V14.2833V14.2833V14.2834V14.2834V14.2835V14.2836V14.2836V14.2837V14.2837V14.2838V14.2839V14.2839V14.284V14.284V14.2841V14.2842V14.2842V14.2843V14.2844V14.2844V14.2845V14.2845V14.2846V14.2847V14.2847V14.2848V14.2849V14.2849V14.285V14.285V14.2851V14.2852V14.2852V14.2853V14.2854V14.2854V14.2855V14.2855V14.2856V14.2857V14.2857V14.2858V14.2859V14.2859V14.286V14.286V14.2861V14.2862V14.2862V14.2863V14.2864V14.2864V14.2865V14.2866V14.2866V14.2867V14.2867V14.2868V14.2869V14.2869V14.287V14.2871V14.2871V14.2872V14.2873V14.2873V14.2874V14.2874V14.2875V14.2876V14.2876V14.2877V14.2878V14.2878V14.2879V14.288V14.288V14.2881V14.2882V14.2882V14.2883V14.2884V14.2884V14.2885V14.2885V14.2886V14.2887V14.2887V14.2888V14.2889V14.2889V14.289V14.2891V14.2891V14.2892V14.2893V14.2893V14.2894V14.2895V14.2895V14.2896V14.2897V14.2897V14.2898V14.2899V14.2899V14.29V14.2901V14.2901V14.2902V14.2903V14.2903V14.2904V14.2905V14.2905V14.2906V14.2907V14.2907V14.2908V14.2909V14.2909V14.291V14.2911V14.2911V14.2912V14.2913V14.2913V14.2914V14.2915V14.2915V14.2916V14.2917V14.2917V14.2918V14.2919V14.2919V14.292V14.2921V14.2921V14.2922V14.2923V14.2923V14.2924V14.2925V14.2925V14.2926V14.2927V14.2927V14.2928V14.2929V14.2929V14.293V14.2931V14.2931V14.2932V14.2933V14.2933V14.2934V14.2935V14.2935V14.2936V14.2937V14.2937V14.2938V14.2939V14.2939V14.294V14.2941V14.2941V14.2942V14.2943V14.2943V14.2944V14.2945V14.2946V14.2946V14.2947V14.2948V14.2948V14.2949V14.295V14.295V14.2951V14.2952V14.2952V14.2953V14.2954V14.2954V14.2955V14.2956V14.2956V14.2957V14.2958V14.2958V14.2959V14.296V14.2961V14.2961V14.2962V14.2963V14.2963V14.2964V14.2965V14.2965V14.2966V14.2967V14.2967V14.2968V14.2969V14.2969V14.297V14.2971V14.2971V14.2972V14.2973V14.2973V14.2974V14.2975V14.2976V14.2976V14.2977V14.2978V14.2978V14.2979V14.298V14.298V14.2981V14.2982V14.2982V14.2983V14.2984V14.2984V14.2985V14.2986V14.2987V14.2987V14.2988V14.2989V14.2989V14.299V14.2991V14.2991V14.2992V14.2993V14.2993V14.2994V14.2995V14.2995V14.2996V14.2997V14.2997V14.2998V14.2999V14.3V14.3V14.3001V14.3002V14.3002V14.3003V14.3004V14.3004V14.3005V14.3006V14.3006V14.3007V14.3008V14.3008V14.3009V14.301V14.301V14.3011V14.3012V14.3013V14.3013V14.3014V14.3015V14.3015V14.3016V14.3017V14.3017V14.3018V14.3019V14.3019V14.302V14.3021V14.3021V14.3022V14.3023V14.3023V14.3024V14.3025V14.3026V14.3026V14.3027V14.3028V14.3028V14.3029V14.303V14.303V14.3031V14.3032V14.3032V14.3033V14.3034V14.3034V14.3035V14.3036V14.3036V14.3037V14.3038V14.3038V14.3039V14.304V14.304V14.3041V14.3042V14.3042V14.3043V14.3044V14.3045V14.3045V14.3046V14.3047V14.3047V14.3048V14.3049V14.3049V14.305V14.3051V14.3051V14.3052V14.3053V14.3053V14.3054V14.3055V14.3055V14.3056V14.3057V14.3057V14.3058V14.3059V14.3059V14.306V14.3061V14.3061V14.3062V14.3063V14.3063V14.3064V14.3065V14.3065V14.3066V14.3067V14.3067V14.3068V14.3069V14.3069V14.307V14.3071V14.3071V14.3072V14.3073V14.3073V14.3074V14.3075V14.3075V14.3076V14.3077V14.3077V14.3078V14.3079V14.3079V14.308V14.3081V14.3081V14.3082V14.3083V14.3083V14.3084V14.3085V14.3085V14.3086V14.3087V14.3087V14.3088V14.3089V14.3089V14.309V14.3091V14.3091V14.3092V14.3093V14.3093V14.3094V14.3094V14.3095V14.3096V14.3096V14.3097V14.3098V14.3098V14.3099V14.31V14.31V14.3101V14.3102V14.3102V14.3103V14.3104V14.3104V14.3105V14.3106V14.4659L6.889 14.4016C6.3502 14.1563 6.01246 13.7485 5.9144 13.2789C5.8164 12.8095 5.96132 12.2955 6.3534 11.8441C7.09781 10.9865 8.06934 10.4803 9.09673 10.1129M7.33476 12.6263L9.09673 10.1129M14.146 7.99062C14.3635 7.52696 14.6122 7.07709 14.8611 6.62668C14.8873 6.57938 14.9134 6.53208 14.9396 6.48475L14.9397 6.48446C15.0216 6.33483 15.1118 6.21898 15.2203 6.14965C15.3248 6.08291 15.4551 6.0536 15.6328 6.09371L15.6338 6.09392C15.6714 6.10202 15.7056 6.09499 15.7306 6.08646C15.7558 6.07791 15.7788 6.06541 15.7973 6.05442C15.8108 6.04639 15.8251 6.03711 15.8375 6.02912C15.8418 6.02638 15.8458 6.0238 15.8495 6.02146C15.8656 6.01119 15.8779 6.00383 15.8883 5.99881L16.004 5.9428L15.9212 5.8444C15.9087 5.8295 15.8999 5.81642 15.8888 5.79998C15.8807 5.78795 15.8714 5.77413 15.8585 5.75649C15.8348 5.72394 15.7981 5.67833 15.7432 5.65304C15.5889 5.58002 15.3853 5.5822 15.2018 5.63573C15.0165 5.68975 14.8322 5.80157 14.7226 5.97152L14.7223 5.972C14.6615 6.06736 14.5993 6.16292 14.5369 6.25899C14.0016 7.0817 13.4419 7.94218 13.5287 9.04118C13.3142 9.06804 13.1789 9.02449 13.106 8.95028C13.0251 8.86778 12.9876 8.71221 13.056 8.45892L13.0561 8.45882C13.0719 8.39994 13.0932 8.34218 13.1163 8.27945C13.1192 8.27169 13.1221 8.26386 13.125 8.25594C13.1507 8.18593 13.1778 8.10986 13.1949 8.03001L13.1951 8.02888C13.2077 7.9668 13.1867 7.9079 13.1719 7.87126C13.1655 7.85532 13.1581 7.8389 13.1517 7.82467C13.1501 7.82117 13.1486 7.81781 13.1472 7.81461C13.1394 7.79707 13.1334 7.783 13.1292 7.77049L13.0892 7.65298L12.9829 7.71702C12.9728 7.7231 12.96 7.72939 12.943 7.73722C12.9394 7.73889 12.9354 7.7407 12.9312 7.74261C12.9179 7.74869 12.9023 7.75577 12.8881 7.7629C12.8547 7.77963 12.7961 7.81131 12.7673 7.87195L12.7667 7.87338C12.6982 8.02388 12.6427 8.17997 12.6009 8.33995M14.146 7.99062L12.9648 9.62598C13.2247 9.67981 13.4846 9.73362 13.7465 9.77499M12.6009 8.33995C12.601 8.33965 12.601 8.33936 12.6011 8.33907L12.6974 8.3661L12.6006 8.34084C12.6007 8.34054 12.6008 8.34025 12.6009 8.33995ZM12.6009 8.33995C12.5194 8.63072 12.5169 8.88183 12.6246 9.08692C12.7327 9.29293 12.9397 9.42955 13.2248 9.51823M13.2248 9.51823C13.2249 9.51824 13.2249 9.51825 13.2249 9.51826L13.2546 9.42277L13.2248 9.51823ZM13.2248 9.51823C13.3152 9.54643 13.4085 9.55841 13.4934 9.56843C13.5007 9.56929 13.5079 9.57013 13.515 9.57097C13.5923 9.58002 13.6623 9.58822 13.7292 9.6046C13.7678 9.61852 13.8058 9.63395 13.8432 9.65086C13.7975 9.67333 13.7736 9.67786 13.7607 9.67601L13.7465 9.77499M13.7465 9.77499L13.7621 9.67621C13.5014 9.63503 13.2468 9.58228 12.9895 9.52895C12.8169 9.49318 12.643 9.45716 12.4652 9.42419L12.4651 9.42417C12.4082 9.41371 12.3494 9.39976 12.2873 9.3849L12.2805 9.38327C12.2213 9.36911 12.1591 9.35424 12.0973 9.34236C11.9702 9.31796 11.8317 9.30339 11.7002 9.33766M13.7465 9.77499L9.09673 10.1129M11.7002 9.33766C10.8265 9.5642 9.94997 9.80725 9.09673 10.1129M11.7002 9.33766L11.7253 9.43446L11.7001 9.3377C11.7001 9.33769 11.7002 9.33767 11.7002 9.33766ZM10.3674 5.90444L10.3978 5.91889L10.695 6.05991L10.8763 6.14594L10.6985 6.23888C10.6677 6.25498 10.6413 6.27177 10.6115 6.29069C10.5916 6.30334 10.5702 6.31694 10.545 6.33192C10.4897 6.36483 10.4219 6.39992 10.3451 6.41032M10.3674 5.90444L10.3316 6.31123M10.3674 5.90444L10.3344 5.91136C10.2012 5.93933 10.0686 5.96447 9.93721 5.98935C9.67006 6.03996 9.40831 6.08954 9.15851 6.1599M10.3674 5.90444L10.5489 6.21193L10.6093 6.2406L10.6522 6.15026L10.6058 6.06163C10.5855 6.07228 10.5637 6.08501 10.5423 6.09812L10.355 6.00923C10.2173 6.03814 10.0824 6.06368 9.95002 6.08874C9.68553 6.13882 9.43123 6.18697 9.18548 6.2562M10.3451 6.41032C10.345 6.41032 10.345 6.41033 10.345 6.41033L10.3316 6.31123M10.3451 6.41032C10.3451 6.41031 10.3452 6.4103 10.3452 6.4103L10.3316 6.31123M10.3451 6.41032C8.34551 6.68549 6.63146 7.49522 5.27912 9.01592L5.2789 9.01617C5.22894 9.07198 5.16079 9.10113 5.1067 9.12066C5.08071 9.13004 5.05874 9.13713 5.03876 9.14357C5.00938 9.15304 4.9843 9.16113 4.95709 9.17309L4.75379 9.26249L4.82162 9.05101C4.83162 9.01982 4.83772 8.99237 4.84466 8.96115C4.84952 8.93929 4.85479 8.91558 4.8621 8.88744C4.87732 8.82885 4.9004 8.75879 4.95011 8.70092M10.3316 6.31123C8.3118 6.58916 6.57477 7.40849 5.2044 8.94947C5.1636 8.99503 5.09845 9.0187 5.03155 9.04067C5.02559 9.06534 5.01909 9.09018 5.01206 9.11209L4.91684 9.08155L4.87659 8.99001C4.89773 8.98071 4.92235 8.97172 4.94673 8.96336C4.96349 8.88945 4.98146 8.81772 5.02622 8.76579M4.95011 8.70092C4.94999 8.70107 4.94987 8.70121 4.94975 8.70135L5.02622 8.76579M4.95011 8.70092C6.06801 7.37445 7.52828 6.61343 9.15851 6.1599M4.95011 8.70092C4.95023 8.70078 4.95036 8.70064 4.95048 8.7005L5.02622 8.76579M5.02622 8.76579L9.15851 6.1599M9.18548 6.2562L9.15868 6.15986C9.15862 6.15987 9.15857 6.15989 9.15851 6.1599M9.18548 6.2562L9.15837 6.15994C9.15841 6.15993 9.15846 6.15992 9.15851 6.1599M9.18548 6.2562L9.15851 6.1599M6.73343 9.29412V9.3381L6.76584 9.36783C7.08366 9.65926 7.47804 9.85394 7.90265 9.92901C7.96562 9.94122 8.02266 9.91246 8.0507 9.89771C8.06303 9.89122 8.07624 9.88365 8.08737 9.87727C8.09113 9.87511 8.09465 9.8731 8.09782 9.8713C8.11215 9.86319 8.12261 9.85768 8.13121 9.85406L8.24233 9.8072L8.1757 9.70667C8.16499 9.6905 8.15748 9.6769 8.14846 9.66053C8.14148 9.64788 8.13358 9.63356 8.12259 9.61514C8.10259 9.58163 8.07313 9.53699 8.02847 9.50584L8.02863 9.50563L8.02235 9.50189C7.94475 9.4558 7.86529 9.41295 7.78417 9.37345L9.7687 9.05855L9.78344 8.86453C9.63337 8.81661 9.40343 8.79642 9.14407 8.79496C8.88164 8.79348 8.5789 8.81125 8.27743 8.8443C7.97598 8.87735 7.67392 8.92589 7.41298 8.9865C7.15478 9.04646 6.92743 9.1203 6.78193 9.20772L6.73343 9.23685V9.29343V9.29412ZM13.9051 6.74655L14.0228 6.65936L13.8987 6.58151C13.8345 6.54122 13.783 6.50331 13.7341 6.46727C13.7084 6.44833 13.6834 6.4299 13.6576 6.41193C13.5926 6.36661 13.5112 6.31525 13.4194 6.31934L13.4193 6.31934C13.3702 6.32157 13.3247 6.3446 13.2916 6.36585C13.2559 6.38881 13.2212 6.41845 13.1913 6.44929C13.1617 6.47997 13.1338 6.5149 13.1137 6.54989C13.1036 6.56738 13.0942 6.58713 13.088 6.60807C13.082 6.6281 13.0769 6.65601 13.083 6.68651L13.0832 6.68756C13.1 6.76709 13.1522 6.84841 13.2089 6.90924C13.2635 6.96794 13.3433 7.03024 13.4298 7.04127C13.4823 7.04796 13.5291 7.03303 13.5674 7.0134C13.605 6.99413 13.641 6.96688 13.6744 6.9393C13.6999 6.91827 13.7243 6.89682 13.7494 6.87484C13.7957 6.8342 13.8442 6.79171 13.9051 6.74655Z" stroke="white" stroke-opacity="0.24" stroke-width="0.2"/>
<g filter="url(#filter1_i_2207_16543)">
<path d="M16.2347 9.55545C15.857 9.6669 15.4835 9.79141 15.1024 9.88841C13.2628 10.3555 11.4164 10.7965 9.58305 11.2856C8.71625 11.5174 7.89899 11.8896 7.26333 12.5597C6.79141 13.057 6.58778 13.617 6.93175 14.2795C6.93656 14.2884 6.93175 14.3015 6.93175 14.3125C5.89984 13.844 5.67971 12.7757 6.43024 11.9116C7.15877 11.0723 8.11224 10.5736 9.13176 10.209C9.98068 9.90492 10.8516 9.66277 11.7267 9.43644C11.9454 9.37934 12.2082 9.48046 12.4483 9.52449C12.8824 9.60498 13.3124 9.70886 13.7478 9.77696C13.8434 9.79141 13.9542 9.69716 14.0594 9.65314C13.9645 9.59574 13.864 9.54803 13.7595 9.51073C13.5951 9.46946 13.4155 9.47496 13.2559 9.42474C12.7118 9.25551 12.5419 8.92668 12.6987 8.36807C12.7391 8.21333 12.7927 8.06234 12.859 7.91679C12.8845 7.86313 12.9753 7.84111 13.0358 7.80465C13.0592 7.87345 13.1108 7.94774 13.0984 8.01103C13.0695 8.1555 13.0014 8.29171 12.9608 8.4348C12.8164 8.96933 13.0798 9.23625 13.6384 9.12687C13.5008 7.89546 14.2005 6.97569 14.8079 6.02771C14.9923 5.73878 15.4498 5.62665 15.7022 5.74566C15.7628 5.77387 15.7985 5.85435 15.846 5.91076C15.782 5.94172 15.7084 6.00983 15.6561 5.99813C15.2537 5.90733 15.0239 6.12678 14.8533 6.43841C14.5782 6.93923 14.2982 7.43867 14.056 7.95187C13.9579 8.18347 13.9031 8.4311 13.8943 8.68246C13.8696 9.07114 14.0037 9.18328 14.3931 9.21217C14.8836 9.24932 15.3734 9.29747 15.8625 9.34976C15.9835 9.36993 16.1028 9.3989 16.2196 9.43644L16.2347 9.55545Z" fill="#EBF4FF"/>
</g>
<g filter="url(#filter2_i_2207_16543)">
<path d="M10.465 6.08203L10.7588 6.22306C10.6521 6.27878 10.5524 6.3689 10.4382 6.38403C8.4184 6.65921 6.68136 7.48129 5.31099 9.02227C5.24633 9.0945 5.12044 9.1117 5.02344 9.15435C5.05852 9.04841 5.06609 8.91839 5.13282 8.83859C6.23351 7.53151 7.67818 6.77891 9.29208 6.329C9.66425 6.22512 10.0495 6.16871 10.465 6.08203Z" fill="white"/>
</g>
<g filter="url(#filter3_i_2207_16543)">
<path d="M6.8335 9.29337C7.35908 8.97761 9.21444 8.78774 9.7531 8.95903L7.62875 9.29612L7.62118 9.40757C7.74152 9.46009 7.85846 9.52006 7.97134 9.58712C8.02569 9.62358 8.05321 9.702 8.09242 9.76117C8.03532 9.78593 7.97134 9.84097 7.92112 9.82996C7.51487 9.75833 7.13753 9.57217 6.8335 9.29337Z" fill="white"/>
</g>
<g filter="url(#filter4_i_2207_16543)">
<path d="M13.846 6.66613C13.6548 6.80371 13.5399 6.95231 13.4429 6.9413C13.3459 6.93029 13.2049 6.77826 13.1815 6.66613C13.1677 6.59733 13.3335 6.4226 13.4243 6.41847C13.5323 6.41709 13.6486 6.54367 13.846 6.66613Z" fill="white"/>
</g>
<path d="M14.8583 13.7178L14.765 13.6646C13.5625 12.9778 11.9553 13.2892 13.0577 14.1274C13.4829 14.4507 14.0328 14.6229 14.5735 14.6788C15.406 14.7649 16.1972 14.3986 16.9357 14.0048C16.7291 14.0933 15.9559 14.3412 14.8583 13.7178Z" fill="url(#paint2_linear_2207_16543)"/>
<path d="M2.23566 9.37485L2.32842 9.32081C3.52582 8.62513 4.06275 7.07863 2.78464 7.61172C2.29169 7.81733 1.86679 8.20668 1.54717 8.64633C1.05504 9.32328 0.975033 10.1915 0.945118 11.0279C0.972213 10.8048 1.14571 10.0115 2.23566 9.37485Z" fill="url(#paint3_linear_2207_16543)"/>
<path d="M12.4719 2.70012L12.3787 2.75335C11.1752 3.43853 10.6248 4.98027 11.9075 4.45838C12.4023 4.25709 12.8305 3.87148 13.154 3.43464C13.652 2.76202 13.7396 1.89454 13.7769 1.05842C13.7478 1.28132 13.5674 2.07299 12.4719 2.70012Z" fill="url(#paint4_linear_2207_16543)"/>
</g>
<defs>
<filter id="filter0_i_2207_16543" x="3.76758" y="4.40771" width="13.397" height="14.8198" filterUnits="userSpaceOnUse" color-interpolation-filters="sRGB">
<feFlood flood-opacity="0" result="BackgroundImageFix"/>
<feBlend mode="normal" in="SourceGraphic" in2="BackgroundImageFix" result="shape"/>
<feColorMatrix in="SourceAlpha" type="matrix" values="0 0 0 0 0 0 0 0 0 0 0 0 0 0 0 0 0 0 127 0" result="hardAlpha"/>
<feOffset dy="2"/>
<feGaussianBlur stdDeviation="1"/>
<feComposite in2="hardAlpha" operator="arithmetic" k2="-1" k3="1"/>
<feColorMatrix type="matrix" values="0 0 0 0 1 0 0 0 0 1 0 0 0 0 1 0 0 0 0.25 0"/>
<feBlend mode="normal" in2="shape" result="effect1_innerShadow_2207_16543"/>
</filter>
<filter id="filter1_i_2207_16543" x="5.98535" y="5.69873" width="10.2495" height="8.61377" filterUnits="userSpaceOnUse" color-interpolation-filters="sRGB">
<feFlood flood-opacity="0" result="BackgroundImageFix"/>
<feBlend mode="normal" in="SourceGraphic" in2="BackgroundImageFix" result="shape"/>
<feColorMatrix in="SourceAlpha" type="matrix" values="0 0 0 0 0 0 0 0 0 0 0 0 0 0 0 0 0 0 127 0" result="hardAlpha"/>
<feOffset dy="2"/>
<feComposite in2="hardAlpha" operator="arithmetic" k2="-1" k3="1"/>
<feColorMatrix type="matrix" values="0 0 0 0 0.357813 0 0 0 0 0.657842 0 0 0 0 0.954167 0 0 0 0.08 0"/>
<feBlend mode="normal" in2="shape" result="effect1_innerShadow_2207_16543"/>
</filter>
<filter id="filter2_i_2207_16543" x="5.02344" y="6.08203" width="5.73535" height="3.07227" filterUnits="userSpaceOnUse" color-interpolation-filters="sRGB">
<feFlood flood-opacity="0" result="BackgroundImageFix"/>
<feBlend mode="normal" in="SourceGraphic" in2="BackgroundImageFix" result="shape"/>
<feColorMatrix in="SourceAlpha" type="matrix" values="0 0 0 0 0 0 0 0 0 0 0 0 0 0 0 0 0 0 127 0" result="hardAlpha"/>
<feOffset dy="2"/>
<feComposite in2="hardAlpha" operator="arithmetic" k2="-1" k3="1"/>
<feColorMatrix type="matrix" values="0 0 0 0 0.357813 0 0 0 0 0.657842 0 0 0 0 0.954167 0 0 0 0.08 0"/>
<feBlend mode="normal" in2="shape" result="effect1_innerShadow_2207_16543"/>
</filter>
<filter id="filter3_i_2207_16543" x="6.8335" y="8.89453" width="2.91943" height="0.937012" filterUnits="userSpaceOnUse" color-interpolation-filters="sRGB">
<feFlood flood-opacity="0" result="BackgroundImageFix"/>
<feBlend mode="normal" in="SourceGraphic" in2="BackgroundImageFix" result="shape"/>
<feColorMatrix in="SourceAlpha" type="matrix" values="0 0 0 0 0 0 0 0 0 0 0 0 0 0 0 0 0 0 127 0" result="hardAlpha"/>
<feOffset dy="2"/>
<feComposite in2="hardAlpha" operator="arithmetic" k2="-1" k3="1"/>
<feColorMatrix type="matrix" values="0 0 0 0 0.357813 0 0 0 0 0.657842 0 0 0 0 0.954167 0 0 0 0.08 0"/>
<feBlend mode="normal" in2="shape" result="effect1_innerShadow_2207_16543"/>
</filter>
<filter id="filter4_i_2207_16543" x="13.1807" y="6.41846" width="0.665527" height="0.523438" filterUnits="userSpaceOnUse" color-interpolation-filters="sRGB">
<feFlood flood-opacity="0" result="BackgroundImageFix"/>
<feBlend mode="normal" in="SourceGraphic" in2="BackgroundImageFix" result="shape"/>
<feColorMatrix in="SourceAlpha" type="matrix" values="0 0 0 0 0 0 0 0 0 0 0 0 0 0 0 0 0 0 127 0" result="hardAlpha"/>
<feOffset dy="2"/>
<feComposite in2="hardAlpha" operator="arithmetic" k2="-1" k3="1"/>
<feColorMatrix type="matrix" values="0 0 0 0 0.357813 0 0 0 0 0.657842 0 0 0 0 0.954167 0 0 0 0.08 0"/>
<feBlend mode="normal" in2="shape" result="effect1_innerShadow_2207_16543"/>
</filter>
<linearGradient id="paint0_linear_2207_16543" x1="10.0467" y1="6.08215" x2="9.83741" y2="15.5009" gradientUnits="userSpaceOnUse">
<stop stop-color="#77C6FF"/>
<stop offset="1" stop-color="#3555FF"/>
</linearGradient>
<radialGradient id="paint1_radial_2207_16543" cx="0" cy="0" r="1" gradientUnits="userSpaceOnUse" gradientTransform="translate(14.4421 7.12867) rotate(111.491) scale(10.8533 11.3419)">
<stop stop-color="#9FF7FA"/>
<stop offset="1" stop-color="#1253AA" stop-opacity="0"/>
</radialGradient>
<linearGradient id="paint2_linear_2207_16543" x1="16.4043" y1="14.6225" x2="12.979" y2="13.0398" gradientUnits="userSpaceOnUse">
<stop stop-color="#9CABFF" stop-opacity="0.65"/>
<stop offset="0.942708" stop-color="#60BAFF"/>
</linearGradient>
<linearGradient id="paint3_linear_2207_16543" x1="0.677451" y1="10.2583" x2="3.76498" y2="8.08925" gradientUnits="userSpaceOnUse">
<stop stop-color="#F3FF66" stop-opacity="0.65"/>
<stop offset="0.942708" stop-color="#FFDD64" stop-opacity="0.46"/>
</linearGradient>
<linearGradient id="paint4_linear_2207_16543" x1="14.0378" y1="1.83031" x2="10.9314" y2="3.97229" gradientUnits="userSpaceOnUse">
<stop stop-color="#667AE8" stop-opacity="0.65"/>
<stop offset="0.942708" stop-color="#608CFF"/>
</linearGradient>
</defs>
</svg>
