<svg width="16" height="16" viewBox="0 0 16 16" fill="none" xmlns="http://www.w3.org/2000/svg">
<path d="M5.9708 15.9983C5.65474 15.9447 5.33188 15.915 5.02292 15.8338C2.35832 15.1332 0.724649 13.4281 0.11772 10.7454C0.0333702 10.3721 0.0207667 9.97882 0.00913225 9.59391C-0.00831939 9.02997 0.00460727 8.46537 0.00460727 7.90078V7.74759H4.9069V7.58309C4.9069 7.19528 4.90367 6.80747 4.9069 6.42224C4.91272 5.86152 5.14702 5.41133 5.56845 5.04679C5.92912 4.73492 6.35086 4.56945 6.81172 4.4809C7.01241 4.44212 7.08739 4.33968 7.08157 4.13607C7.074 4.09625 7.05174 4.06071 7.01919 4.03653C6.78744 3.84209 6.61443 3.58694 6.51956 3.29969C6.49695 3.24626 6.46312 3.19831 6.42035 3.15911C6.28526 3.02079 6.13142 2.89798 6.01153 2.74834C5.46923 2.07226 5.60529 1.02645 6.30691 0.436328C6.64722 0.149992 7.03955 -0.00222774 7.48877 0.00100404C7.86495 0.00358947 8.24146 -0.00384174 8.61764 0.00294501C9.76718 0.0239516 10.6213 1.26819 10.23 2.33791C10.112 2.6585 9.87771 2.88279 9.64017 3.11031C9.56123 3.18751 9.49849 3.27969 9.45564 3.38145C9.35157 3.62901 9.21455 3.85362 9.00093 4.01553C8.86939 4.11539 8.95406 4.20944 8.96247 4.31382C8.97119 4.425 9.0494 4.43469 9.1289 4.45117C9.33865 4.49416 9.54904 4.53003 9.75781 4.58045C10.1384 4.6756 10.4766 4.89465 10.7191 5.20311C10.9615 5.51157 11.0945 5.89191 11.0971 6.28424C11.0996 6.7619 11.0971 7.23988 11.0971 7.73854H16V10.0283C15.9457 10.3492 15.916 10.6766 15.8336 10.9897C15.1591 13.5464 13.5416 15.1668 10.9797 15.8313C10.6708 15.9114 10.3489 15.9418 10.0332 15.9951L5.9708 15.9983ZM2.08264 8.2608C2.08264 8.79599 2.06778 9.31663 2.08846 9.83597C2.10209 10.1145 2.14642 10.3906 2.22064 10.6594C2.74678 12.6172 4.45736 13.9235 6.49274 13.9339C7.47132 13.9382 8.44969 13.9375 9.42784 13.9319C9.69095 13.9347 9.9538 13.9148 10.2135 13.8725C11.9974 13.5493 13.1738 12.518 13.7458 10.8023C14.0186 9.98431 13.9275 9.13338 13.9333 8.29247C13.9333 8.28375 13.9223 8.27535 13.9184 8.26953H10.5761V9.80818H6.97621C6.96296 10.0861 6.89477 10.3485 6.68535 10.4991C6.44717 10.6711 6.43683 10.8815 6.45331 11.1248C6.45784 11.1946 6.45331 11.2647 6.45331 11.3346C6.4504 11.6558 6.23904 11.8675 5.91716 11.8688C5.58924 11.8703 5.26132 11.8703 4.9334 11.8688C4.59988 11.8688 4.39111 11.6587 4.39014 11.3255C4.39014 10.8634 4.38206 10.4009 4.39466 9.93874C4.39886 9.79008 4.42052 9.61556 4.50163 9.5018C4.58275 9.38805 4.75016 9.32503 4.89268 9.23163V8.26015L2.08264 8.2608ZM14.4529 8.26371C14.4529 8.38878 14.4562 8.49575 14.4529 8.60272C14.4339 9.17637 14.4681 9.75841 14.3828 10.322C14.0222 12.7051 11.9671 14.4464 9.55679 14.4497C8.52499 14.451 7.49319 14.451 6.46139 14.4497C5.19906 14.4477 4.09475 14.0224 3.16271 13.176C2.24908 12.3464 1.7042 11.3123 1.58915 10.079C1.53841 9.53542 1.56297 8.98472 1.5536 8.43693C1.5536 8.38038 1.5536 8.3235 1.5536 8.27049H0.527186C0.527186 8.79372 0.505858 9.30467 0.534297 9.81367C0.554801 10.2044 0.611601 10.5924 0.703966 10.9726C1.36551 13.6395 3.72472 15.4706 6.49759 15.4822C7.50235 15.4861 8.50743 15.4884 9.51219 15.4796C9.82899 15.4798 10.1453 15.4557 10.4585 15.4076C12.021 15.149 13.2947 14.3951 14.2619 13.1408C14.9707 12.2217 15.3801 11.1781 15.4535 10.017C15.4887 9.46012 15.4765 8.90037 15.4858 8.34192C15.4842 8.31561 15.4805 8.28946 15.4748 8.26371H14.4529ZM5.42205 8.76561H6.45622V6.46425H6.9733V7.7324H9.03906V6.46005H9.55098V7.73046H10.5777C10.5777 7.22534 10.5913 6.7312 10.5735 6.23835C10.5596 5.86185 10.3883 5.54966 10.0887 5.31212C9.75523 5.04744 9.34543 5.03806 8.95536 4.95307C8.78827 5.39065 8.50097 5.66083 8.03236 5.6744C7.5337 5.68862 7.22441 5.41586 7.04537 4.96083C6.88152 5.00219 6.71929 5.0358 6.56061 5.08428C5.90649 5.28594 5.38036 5.82048 5.41397 6.58512C5.4353 7.07279 5.41785 7.56241 5.41785 8.05138L5.42205 8.76561ZM9.55873 2.4145L9.60559 2.43163C9.66376 2.29654 9.74424 2.16695 9.77591 2.02604C9.92586 1.36223 9.44465 0.641867 8.76436 0.554932C8.35715 0.502901 7.93993 0.517444 7.52691 0.518737C6.81818 0.520999 6.2956 0.99187 6.20446 1.69478C6.16891 1.96625 6.2817 2.29428 6.45654 2.4145C6.45654 2.36732 6.45654 2.32466 6.45654 2.282C6.45913 1.83634 6.7474 1.55032 7.19339 1.54968C7.74645 1.54968 8.29963 1.54968 8.85291 1.54968C9.18966 1.54968 9.46695 1.76976 9.5374 2.09585C9.55808 2.19894 9.55097 2.30818 9.55744 2.4145H9.55873ZM8.00424 2.06482C7.74085 2.06482 7.47746 2.06288 7.21407 2.06482C7.04311 2.06644 6.97557 2.12946 6.97266 2.2946C6.9691 2.48269 6.96652 2.67111 6.97266 2.8592C6.98009 3.11982 7.08506 3.36818 7.2668 3.55513C7.44855 3.74208 7.69384 3.85402 7.95415 3.86881C8.46025 3.90112 8.92563 3.53109 9.00933 3.00172C9.04423 2.78099 9.03163 2.5525 9.03421 2.32724C9.03648 2.12881 8.97216 2.06579 8.77567 2.0645C8.51874 2.06353 8.26085 2.06482 8.00295 2.06482H8.00424ZM8.50776 9.28722V8.26888H6.98203V9.28722H8.50776ZM9.04358 8.2608V9.27817H10.0529V8.2608H9.04358ZM5.42172 9.29497C5.42172 9.47886 5.41558 9.64497 5.42172 9.81012C5.42512 9.93997 5.47657 10.0639 5.56613 10.158C5.65568 10.2521 5.77696 10.3096 5.90649 10.3194C6.03097 10.327 6.1538 10.2879 6.25109 10.2099C6.34839 10.1319 6.41321 10.0205 6.43295 9.89738C6.46042 9.70056 6.43844 9.49696 6.43844 9.29497H5.42172ZM5.92815 11.3459V10.8449C5.40815 10.8042 5.08045 10.5311 4.91337 10.0195V11.3446L5.92815 11.3459ZM7.57636 4.36521C7.47649 4.64476 7.53854 4.92625 7.73439 5.06909C7.815 5.1284 7.91311 5.15911 8.01315 5.15636C8.1132 5.15361 8.20947 5.11756 8.2867 5.0539C8.47253 4.90201 8.52618 4.61438 8.42244 4.36521H7.57636Z" fill="url(#paint0_linear_30_109)"/>
<defs>
<linearGradient id="paint0_linear_30_109" x1="8" y1="0" x2="8" y2="15.9983" gradientUnits="userSpaceOnUse">
<stop stop-color="#FF846D"/>
<stop offset="1" stop-color="#FF4848"/>
</linearGradient>
</defs>
</svg>
