<?xml version="1.0" encoding="UTF-8"?>
<svg width="9px" height="9px" viewBox="0 0 9 9" version="1.1" xmlns="http://www.w3.org/2000/svg" xmlns:xlink="http://www.w3.org/1999/xlink">
    <title>转盘</title>
    <defs>
        <polygon id="path-1" points="0 0 8.33689116 0 8.33689116 8.44332435 0 8.44332435"></polygon>
    </defs>
    <g id="控件" stroke="none" stroke-width="1" fill="none" fill-rule="evenodd">
        <g id="redbox" transform="translate(-91.000000, -125.000000)">
            <g id="类型" transform="translate(10.000000, 123.115955)">
                <g id="游戏类型" transform="translate(58.000000, 1.408000)">
                    <g id="转盘" transform="translate(23.234424, 0.677108)">
                        <g id="编组">
                            <mask id="mask-2" fill="white">
                                <use xlink:href="#path-1"></use>
                            </mask>
                            <g id="Clip-2"></g>
                            <path d="M4.16731661,7.68402414 C5.96715489,7.70960951 7.58822345,6.19910711 7.58958655,4.22016311 C7.59093943,2.25752031 5.9766651,0.741026723 4.15594183,0.748515895 C2.30282256,0.756190021 0.734788089,2.29258813 0.737398643,4.22681807 C0.739973152,6.1308852 2.28895316,7.70353213 4.16731661,7.68402414 M-8.51405718e-07,4.52177396 C-8.51405718e-07,4.34090055 -8.51405718e-07,4.16001853 -8.51405718e-07,3.9791365 C0.00239159952,3.96375769 0.00637617971,3.94843061 0.00692959363,3.93298284 C0.0171464659,3.6450612 0.065497814,3.3636566 0.144678574,3.08717425 C0.413441914,2.14864455 0.934544971,1.38653151 1.71095064,0.807240078 C2.21371441,0.432114396 2.77508897,0.18550176 3.38978709,0.0704193107 C3.57021706,0.0366359311 3.75375465,0.011438478 3.93680695,0.00276634739 C4.12308607,-0.00605233016 4.31060825,0.00835237188 4.4974493,0.0161193596 C4.86251518,0.0313085188 5.21648723,0.111038674 5.55710924,0.238319 C6.236991,0.492371049 6.82664076,0.885478902 7.30277255,1.44453823 C7.89794793,2.14336024 8.23967677,2.95099766 8.32074765,3.87103658 C8.35651522,4.27700609 8.33307601,4.67988086 8.2482334,5.07751443 C8.0313888,6.09377435 7.51456831,6.92221281 6.70636263,7.56169193 C6.05037132,8.08072671 5.30177257,8.36384677 4.47347371,8.43049115 C4.10174132,8.46039534 3.73205231,8.43788746 3.36559865,8.36460537 C2.61955412,8.21539472 1.96196216,7.88489689 1.39346985,7.37462045 C0.929632358,6.95828922 0.575047291,6.46151234 0.333367177,5.88216057 C0.181748792,5.51870692 0.0717641623,5.14431397 0.023940686,4.75215436 C0.0145922478,4.67553618 0.00790871056,4.59858179 -8.51405718e-07,4.52177396" id="Fill-1" fill="#262626" mask="url(#mask-2)"></path>
                        </g>
                        <path d="M4.12193097,5.63326886 C4.39645661,5.6390268 4.49483662,5.62534312 4.7757905,5.48303109 C5.20539848,5.26542024 5.46072409,4.90518891 5.55768972,4.43330317 C5.58140391,4.31787869 5.56930121,4.19472553 5.5717912,4.07507684 C5.57409486,3.96453632 5.55763044,3.85668627 5.52208456,3.75170663 C5.32298699,3.16362525 4.93214324,2.79936678 4.31568438,2.71094979 C4.1750931,2.69077986 4.02709961,2.69288767 3.88616956,2.71214937 C3.60928944,2.75000442 3.363314,2.8699273 3.15788135,3.06295549 C2.75593428,3.44064059 2.59277218,3.90479766 2.69149097,4.45371303 C2.82495952,5.1958708 3.53710514,5.68143165 4.12193097,5.63326886 M6.30839632,4.15974945 C6.32934103,5.37400717 5.30178819,6.39873259 4.09082303,6.38264976 C2.95330411,6.3675523 1.93095146,5.40636133 1.93331876,4.16544742 C1.93568582,2.93018863 2.94149783,1.95063565 4.11441018,1.95279131 C5.37341352,1.95510834 6.31508711,2.9988898 6.30839632,4.15974945" id="Fill-5" fill="#262626"></path>
                        <path d="M1.80853045,4.21932435 C1.81317062,4.31076131 1.81734343,4.39931527 1.82235915,4.48782745 C1.82369445,4.51135103 1.82672391,4.53487462 1.8305462,4.55813915 C1.83581229,4.59019473 1.82028944,4.60426709 1.79092119,4.60882975 C1.5253051,4.65017777 1.2597224,4.69168457 0.994106307,4.73304931 C0.975044908,4.73602423 0.957260389,4.73660083 0.955090527,4.70990177 C0.942046321,4.54951523 0.928785129,4.38915375 0.915790997,4.22877556 C0.915607393,4.22646917 0.917894093,4.22396221 0.9200723,4.21932435 L1.80853045,4.21932435 Z" id="Fill-7" fill="#262626"></path>
                        <path d="M5.98910332,1.43766581 C6.13308815,1.55861313 6.27064276,1.6741692 6.41046438,1.79162022 C6.29540293,1.9229586 6.18860048,2.0462012 6.08033164,2.16799369 C6.00166038,2.25647784 5.92210423,2.34414352 5.84092156,2.4300388 C5.79350812,2.48020592 5.7893449,2.47888924 5.73691706,2.43579481 C5.65738619,2.37043255 5.57838626,2.30434967 5.49468375,2.23485945 C5.65752104,1.97229834 5.82036674,1.70972834 5.98910332,1.43766581" id="Fill-9" fill="#262626"></path>
                        <path d="M5.49468375,1.20863218 C5.44294733,1.3321664 5.3958868,1.44678605 5.34704139,1.56057379 C5.2832633,1.70914411 5.21926735,1.85763563 5.15292507,2.00497122 C5.12569096,2.06543792 5.12283347,2.06391422 5.0647117,2.04175039 C4.9797832,2.00937596 4.8950139,1.97653742 4.80971669,1.94524886 C4.78554118,1.93638683 4.77815026,1.9250028 4.78466131,1.89721702 C4.83760441,1.67134038 4.88888832,1.44504342 4.94095155,1.2189391 C4.95491217,1.15833229 4.96983646,1.09797067 4.98717411,1.02556825 C5.15628534,1.08656913 5.32212846,1.14638782 5.49468375,1.20863218" id="Fill-11" fill="#262626"></path>
                        <path d="M6.54061883,4.21932435 L7.42799841,4.21932435 C7.4251435,4.28223766 7.42449616,4.34328674 7.4191349,4.40391595 C7.410288,4.50397095 7.39801354,4.60371524 7.38804624,4.70367787 C7.38565608,4.72766924 7.3786101,4.73775451 7.35169591,4.73349703 C7.08606464,4.69148485 6.82030888,4.65036279 6.55442864,4.6099713 C6.51926509,4.60463056 6.50860897,4.59298337 6.5132399,4.55345682 C6.5260455,4.44421507 6.53173043,4.33412518 6.54061883,4.21932435" id="Fill-13" fill="#262626"></path>
                        <path d="M6.41046438,3.45261902 C6.53660245,3.41283031 6.65683859,3.37410393 6.77767734,3.33698711 C6.92925748,3.2904221 7.08119208,3.24481477 7.23325075,3.19955351 C7.29139266,3.18224253 7.29620458,3.18207352 7.31152654,3.23264638 C7.35161707,3.36495349 7.38675389,3.49849997 7.42541768,3.63118532 C7.43463389,3.66279739 7.41835487,3.67157762 7.38950103,3.67608443 C7.18383767,3.7082518 6.97828951,3.7410308 6.77258184,3.77298892 C6.69725701,3.78469859 6.6214182,3.79373635 6.54619085,3.80592889 C6.51478483,3.81101515 6.5011023,3.80131745 6.494199,3.77391443 C6.46768466,3.66862405 6.43955749,3.56367168 6.41046438,3.45261902" id="Fill-15" fill="#262626"></path>
                        <path d="M1.23901153,5.7646902 C1.16643664,5.59685857 1.09338084,5.42789715 1.01753403,5.25249503 C1.31386217,5.14615244 1.59867417,5.04393758 1.88690408,4.94049508 C1.89829141,4.96864197 1.90782378,4.99291911 1.91789719,5.01695606 C1.95367366,5.10231303 1.9896906,5.18755435 2.02548425,5.27290242 C2.0353859,5.29651236 2.04524461,5.31734675 2.01304922,5.33536112 C1.76191829,5.4758376 1.51153449,5.61777303 1.26085012,5.75911242 C1.25735492,5.76108733 1.2528893,5.76122966 1.23901153,5.7646902" id="Fill-17" fill="#262626"></path>
                        <path d="M1.93331465,1.78557048 C2.07768304,1.66824705 2.21739605,1.55471703 2.36143683,1.43766581 C2.38607584,1.47388759 2.40521461,1.5005995 2.42290503,1.52825977 C2.54653113,1.72153038 2.66995032,1.91493271 2.79314537,2.10848432 C2.80637008,2.12927782 2.81839647,2.15094942 2.82975042,2.17286688 C2.85864823,2.22865281 2.85768267,2.23181398 2.80964609,2.26939682 C2.72675453,2.33425356 2.6439147,2.39918932 2.55616086,2.46790971 C2.34950527,2.24151703 2.1455998,2.01813624 1.93331465,1.78557048" id="Fill-19" fill="#262626"></path>
                        <path d="M6.20695757,5.31069263 C6.25900482,5.18981318 6.30758856,5.07456701 6.35916312,4.96082911 C6.36444003,4.94920818 6.3907043,4.93720564 6.4020746,4.94132158 C6.67165287,5.03886832 6.94052642,5.1385866 7.20948591,5.23805956 C7.2132846,5.23946788 7.21645591,5.242757 7.2244916,5.24833577 C7.16880036,5.42513015 7.0963158,5.59414696 7.00583472,5.7646902 C6.73910975,5.61310933 6.47614051,5.46367274 6.20695757,5.31069263" id="Fill-21" fill="#262626"></path>
                        <path d="M2.03305913,3.08605606 C1.7591462,2.93181281 1.48913559,2.77976059 1.22104083,2.6287949 C1.25046716,2.53419441 1.43891749,2.23964431 1.51993038,2.15883654 C1.58178482,2.20659924 1.64483115,2.25453255 1.70707405,2.30351648 C1.87651601,2.43685513 2.04505744,2.57139706 2.21543525,2.70347856 C2.24336952,2.72512847 2.24405816,2.74376122 2.22790149,2.76994584 C2.16409589,2.87340026 2.10034327,2.97689059 2.03305913,3.08605606" id="Fill-23" fill="#262626"></path>
                        <path d="M3.89848244,7.51610484 C3.7213533,7.50407548 3.55136851,7.47793191 3.38345873,7.43865036 C3.34057511,7.42861487 3.36359288,7.39966666 3.36775166,7.38233413 C3.3985967,7.25393278 3.43147298,7.12593682 3.46588144,6.99833798 C3.49776836,6.88006313 3.53112618,6.76210267 3.56623506,6.64464687 C3.58463002,6.58309365 3.58695018,6.58377206 3.65390221,6.59426258 C3.74418721,6.60841817 3.83436714,6.62319425 3.92484475,6.63618331 C3.95837768,6.64099836 3.97086278,6.65465755 3.96798228,6.6878996 C3.94779248,6.92085042 3.92927495,7.15393361 3.91008326,7.38696717 C3.90661615,7.429103 3.90253616,7.47118918 3.89848244,7.51610484" id="Fill-25" fill="#262626"></path>
                        <path d="M5.97014701,5.66166581 C6.21744656,5.84368439 6.4636059,6.0248669 6.71572459,6.210424 C6.67772373,6.25493845 6.64806061,6.29280656 6.61498579,6.32778642 C6.54285007,6.40406312 6.47017098,6.47995135 6.39538964,6.55389719 C6.34661029,6.60213595 6.32940033,6.60021046 6.28021122,6.54987729 C6.18661651,6.45408382 6.09341375,6.35795254 6.00013081,6.26188882 C5.89993539,6.15872272 5.79983796,6.05548061 5.69819056,5.95070993 C5.78635148,5.8570193 5.87373743,5.76413096 5.97014701,5.66166581" id="Fill-27" fill="#262626"></path>
                        <path d="M4.4524771,7.51610484 C4.42656042,7.22397389 4.40124256,6.93862212 4.37539632,6.64733238 C4.49826941,6.62698664 4.61727657,6.60648419 4.73678569,6.58896722 C4.7464461,6.58755696 4.76610157,6.60466982 4.76995869,6.61639728 C4.80222465,6.71443953 4.8347548,6.81255601 4.86166659,6.91195904 C4.90548631,7.07384257 4.94560741,7.23661679 4.98545552,7.39940751 C4.98818545,7.41059066 4.97826085,7.43454866 4.96978927,7.43661045 C4.80261213,7.47730194 4.63272267,7.50316504 4.4524771,7.51610484" id="Fill-29" fill="#262626"></path>
                        <path d="M2.82097561,6.17678776 C2.92973052,6.23547007 3.03420927,6.2909444 3.13731691,6.34893121 C3.14742887,6.35461688 3.15754939,6.37953295 3.15340177,6.38925248 C3.03758564,6.6603908 2.91993564,6.93071191 2.80004044,7.20703167 C2.77180409,7.19371296 2.74593292,7.18296757 2.72139858,7.16968364 C2.61224947,7.11061012 2.5019692,7.05344921 2.39512528,6.99032444 C2.32644969,6.94974237 2.32752088,6.94396107 2.36965687,6.87786307 C2.50882476,6.65952143 2.64880676,6.44171011 2.78860022,6.22378577 C2.79864362,6.20812846 2.80968107,6.19314057 2.82097561,6.17678776" id="Fill-31" fill="#262626"></path>
                        <path d="M0.915780626,3.60680218 C0.9580508,3.44394603 1.00052678,3.281146 1.04241219,3.11817762 C1.05122593,3.0838744 1.06911291,3.08074147 1.0987933,3.09166464 C1.36730376,3.19048748 1.63614529,3.28834706 1.90507631,3.38590737 C1.92898526,3.3945767 1.93722633,3.4072674 1.93163386,3.43423863 C1.90806492,3.54780961 1.8853192,3.66157699 1.86407674,3.77564363 C1.85733893,3.81184531 1.83556853,3.80899295 1.81105112,3.80489676 C1.63661059,3.77579326 1.46214321,3.74690486 1.28776532,3.71738052 C1.18668019,3.70026631 1.08560401,3.68294636 0.984841,3.66387759 C0.956279104,3.65847212 0.917364415,3.66023965 0.915780626,3.60680218" id="Fill-33" fill="#262626"></path>
                        <path d="M4.11268737,0.929247984 C4.18746434,0.929247984 4.2622413,0.92972805 4.33701008,0.929029772 C4.37001413,0.928715547 4.37769406,0.945395663 4.37485298,0.978083802 C4.35915743,1.15860612 4.3447637,1.33925065 4.33019803,1.51988644 C4.32274736,1.61237336 4.31464986,1.70482537 4.30938526,1.79746068 C4.30751031,1.83051541 4.29883969,1.84997118 4.26510695,1.84976337 C4.16453917,1.84915071 4.06396321,1.84902851 3.96339544,1.84853971 C3.94132178,1.84842624 3.92815619,1.83866781 3.92627305,1.81277915 C3.90701591,1.54814051 3.8857692,1.28364153 3.86847708,1.01886324 C3.86241828,0.926140647 3.866684,0.9252067 3.95336568,0.923164237 C4.00644562,0.921916065 4.05956649,0.922937296 4.11267099,0.922937296 C4.11267918,0.925040859 4.11267918,0.927144421 4.11268737,0.929247984" id="Fill-35" fill="#262626"></path>
                        <path d="M5.90169736,6.94029561 C5.87385189,6.96341447 5.85201049,6.98740539 5.82563454,7.00246201 C5.70910509,7.06893539 5.59113971,7.13258787 5.47398885,7.19785102 C5.44511891,7.21393989 5.42787923,7.21035371 5.41372977,7.17529279 C5.30856188,6.91464063 5.20227714,6.6544779 5.09506031,6.3947601 C5.07975202,6.35767027 5.08786382,6.34481163 5.12278822,6.32753923 C5.20852474,6.28514577 5.29065882,6.2345388 5.37407768,6.186904 C5.39394571,6.17556704 5.41013572,6.16859045 5.42684636,6.19494843 C5.58387603,6.44260847 5.74180421,6.68961891 5.90169736,6.94029561" id="Fill-37" fill="#262626"></path>
                        <path d="M3.34475397,1.02556825 C3.36928253,1.11736938 3.39505684,1.20709356 3.41710247,1.29778109 C3.46380552,1.48986791 3.50880747,1.68239663 3.55398984,1.87487232 C3.56765882,1.93307991 3.56708319,1.9338223 3.5104828,1.95521929 C3.42888133,1.98607303 3.34585368,2.01328548 3.26561824,2.04748 C3.22219712,2.06598694 3.20054669,2.05324243 3.18294284,2.01344456 C3.13155745,1.89725917 3.0772252,1.78242601 3.02749796,1.66551589 C2.96862943,1.52710274 2.91370437,1.38692196 2.85625343,1.24786362 C2.84411373,1.21846817 2.84485259,1.19877693 2.87878018,1.18694274 C3.02590854,1.13563769 3.17261593,1.08303344 3.31952951,1.03106554 C3.32586999,1.02882066 3.33272596,1.02813129 3.34475397,1.02556825" id="Fill-39" fill="#262626"></path>
                        <path d="M6.00345077,2.78594171 C6.24444475,2.6101298 6.48414368,2.43526941 6.72185222,2.26186093 C6.78702237,2.30667316 6.99313668,2.59777629 7.0209848,2.68055956 C7.01003329,2.68767964 6.99892533,2.69631726 6.98653101,2.7027401 C6.74628451,2.82725952 6.50573379,2.95126217 6.26569589,3.07614252 C6.23504906,3.09208889 6.21377184,3.09003817 6.19393745,3.0608688 C6.13243518,2.97043226 6.06941187,2.88091444 6.00345077,2.78594171" id="Fill-41" fill="#262626"></path>
                        <path d="M1.62805445,6.32074427 C1.71770912,6.24433986 1.79708568,6.17525324 1.87790265,6.10813015 C2.01011013,5.99832854 2.1436278,5.89031746 2.27565624,5.7802823 C2.30062316,5.75947933 2.31789167,5.75812995 2.33983131,5.78454669 C2.40073496,5.85787175 2.46339639,5.92956197 2.52549631,6.00176255 C2.55108984,6.03152679 2.54954365,6.05838468 2.52305495,6.08799323 C2.35049189,6.28092886 2.17822993,6.47417589 2.00710726,6.6685647 C1.97880383,6.70071632 1.96029836,6.69908149 1.93289009,6.66721532 C1.8344384,6.55274277 1.73373254,6.44045865 1.62805445,6.32074427" id="Fill-43" fill="#262626"></path>
                        <path d="M1.77103585,5.97073573 C1.69912055,5.97131832 1.62818202,5.89346557 1.62805445,5.81382221 C1.62792721,5.73399037 1.69902712,5.66283739 1.78007304,5.66168078 C1.8627752,5.66050703 1.93235476,5.72853288 1.93330604,5.81149185 C1.93425732,5.89352554 1.8562776,5.97005033 1.77103585,5.97073573" id="Fill-45" fill="#262626"></path>
                        <path d="M4.10504775,3.99296979 C3.98966143,3.99276982 3.88048532,4.09029822 3.8477016,4.21331462 C3.84259791,4.23245457 3.83927837,4.25332739 3.84104536,4.27285048 C3.84441637,4.3102683 3.87268825,4.3349813 3.90645839,4.33344 C3.94359096,4.33174196 3.96394569,4.30921464 3.96789998,4.27370386 C3.97694938,4.19249405 4.02718858,4.14992987 4.09776534,4.12446799 C4.11766545,4.11728398 4.13893798,4.11116233 4.15599031,4.09924122 C4.19547316,4.07165462 4.19044667,4.02298621 4.14659781,4.00327154 C4.13019737,3.99589595 4.11122365,3.99441561 4.10504775,3.99296979 M5.18942354,4.57617252 C5.18486024,4.68947962 5.12532289,4.77170825 5.02903038,4.79258107 C4.93325253,4.81333198 4.83360617,4.75612112 4.79462083,4.65342023 C4.7799445,4.61475719 4.7568192,4.58995711 4.71988391,4.57629443 C4.65969466,4.55403705 4.59990856,4.53047349 4.53888728,4.51089815 C4.52685286,4.50703185 4.50634374,4.51453805 4.49598196,4.52390774 C4.45561561,4.56044606 4.42084189,4.60387232 4.37830541,4.63730192 C4.29752126,4.70080859 4.20229238,4.72722833 4.1012307,4.72093253 C4.05178923,4.71784993 4.03023364,4.73514381 4.01784753,4.78129564 C4.00328271,4.83554581 3.98149552,4.88774963 3.96446892,4.94138154 C3.95310356,4.97717098 3.95601138,5.01070508 3.97706947,5.04478777 C4.0175902,5.11039304 4.00794037,5.22201081 3.96057468,5.2831228 C3.91257424,5.34504463 3.82509096,5.36850369 3.74271138,5.34153535 C3.66267348,5.315342 3.60474873,5.24126396 3.59967934,5.15860864 C3.59468716,5.07711147 3.65750975,4.97942633 3.73876566,4.95415602 C3.78252017,4.94055429 3.80592853,4.91348146 3.82044189,4.87376476 C3.84124265,4.81684997 3.86029357,4.75926467 3.88196925,4.70270691 C3.8906155,4.68013605 3.88603505,4.66676073 3.86779042,4.65145225 C3.80468477,4.59850826 3.74861279,4.53917268 3.71371898,4.46216878 C3.68069509,4.3892663 3.67117392,4.31231465 3.6760117,4.23332536 C3.67785589,4.20313509 3.66968999,4.18624178 3.63923081,4.17605355 C3.5784497,4.1557032 3.51886089,4.13151267 3.45936642,4.10743535 C3.42783504,4.09467829 3.40216219,4.09611509 3.37199465,4.11679634 C3.28090877,4.17923193 3.1531535,4.15771472 3.09073406,4.07344845 C3.02942114,3.99067122 3.0436257,3.86349244 3.12199096,3.79364643 C3.22765024,3.69946186 3.39693841,3.74051087 3.44203103,3.87502169 C3.45918629,3.92618927 3.48835025,3.95496885 3.53610193,3.9713484 C3.58733613,3.98892093 3.63840736,4.00726846 3.68843211,4.0280542 C3.71377044,4.03858204 3.72968195,4.03413231 3.74678575,4.0128328 C3.7986547,3.94821153 3.85856947,3.89319506 3.93479031,3.85860731 C4.00686816,3.82590047 4.08271159,3.81651336 4.16044211,3.82050157 C4.18697272,3.82186871 4.20101431,3.81472824 4.20994363,3.78715034 C4.23038413,3.72404424 4.25848445,3.66332411 4.27621442,3.5995475 C4.28383136,3.57215247 4.27623157,3.53901023 4.27051029,3.50948176 C4.26105774,3.46068273 4.23418402,3.41150055 4.2382927,3.36460855 C4.24940074,3.23783034 4.33521138,3.17859925 4.46340411,3.19059873 C4.57770107,3.20130073 4.6580306,3.31337131 4.6351369,3.42749695 C4.61899379,3.50796659 4.56408836,3.55903838 4.4903293,3.59254635 C4.46548847,3.60383178 4.4377484,3.6248091 4.42698348,3.6486426 C4.39801681,3.71280235 4.37618673,3.78046268 4.35486274,3.84782694 C4.35121724,3.85933877 4.3607041,3.8791144 4.36986502,3.89015601 C4.41376534,3.94303904 4.46536838,3.99027065 4.50342734,4.04698516 C4.55569086,4.12486855 4.56604406,4.21674553 4.55982528,4.30956296 C4.55784385,4.33912626 4.56720204,4.35301535 4.59544819,4.36214122 C4.65779043,4.38228257 4.71897468,4.40615962 4.78039911,4.42916587 C4.81487262,4.44207967 4.84300726,4.43490437 4.87682886,4.41765403 C5.00029531,4.35467855 5.10379303,4.38285729 5.17039835,4.49747929 C5.183342,4.51975408 5.18341062,4.54974406 5.18942354,4.57617252" id="Fill-49" fill="#262626"></path>
                        <path d="M4.10255328,4.01327557 C4.10806232,4.0145878 4.12498734,4.01593136 4.13961691,4.02262545 C4.17873114,4.04051851 4.18321489,4.08469003 4.14799525,4.10972768 C4.13278417,4.12054729 4.11380857,4.12610331 4.0960572,4.13262353 C4.03310105,4.15573276 3.98828649,4.19436408 3.98021421,4.26807022 C3.97668689,4.30029986 3.95852999,4.32074569 3.92540686,4.32228683 C3.89528309,4.32368572 3.8700639,4.30125616 3.86705688,4.2672957 C3.86548068,4.24957651 3.8684418,4.2306323 3.87299441,4.21326086 C3.90223826,4.10161099 3.99962594,4.01309407 4.10255328,4.01327557" id="Fill-51" fill="#262626"></path>
                    </g>
                </g>
            </g>
        </g>
    </g>
</svg>