<?xml version="1.0" encoding="UTF-8"?>
<svg width="10px" height="9px" viewBox="0 0 10 9" version="1.1" xmlns="http://www.w3.org/2000/svg" xmlns:xlink="http://www.w3.org/1999/xlink">
    <title>彩票</title>
    <g id="控件" stroke="none" stroke-width="1" fill="none" fill-rule="evenodd">
        <g id="redbox" transform="translate(-127.000000, -125.000000)" fill="#262626">
            <g id="类型" transform="translate(10.000000, 123.115955)">
                <g id="游戏类型" transform="translate(58.000000, 1.408000)">
                    <g id="彩票" transform="translate(59.822521, 0.672433)">
                        <path d="M4.22276622,0 C6.5549356,0 8.44553244,1.89114922 8.44553244,4.224 C8.44553244,6.55685078 6.5549356,8.448 4.22276622,8.448 C1.89059683,8.448 0,6.55685078 0,4.224 C0,4.10980451 0.00453025795,3.99666742 0.013420808,3.88475876 C0.174125294,5.70780219 1.7039505,7.13710345 3.56750939,7.13710345 C5.53779042,7.13710345 7.13501878,5.53940842 7.13501878,3.56855172 C7.13501878,1.70444835 5.70613501,0.174176169 3.88419771,0.0138680685 L4.01200759,0.00516944444 L4.01200759,0.00516944444 Z" id="形状结合" opacity="0.247671218"></path>
                        <path d="M3.56750939,0 C5.53779042,0 7.13501878,1.59769503 7.13501878,3.56855172 C7.13501878,5.53940842 5.53779042,7.13710345 3.56750939,7.13710345 C1.59722836,7.13710345 0,5.53940842 0,3.56855172 C0,1.59769503 1.59722836,0 3.56750939,0 Z M2.11104276,1.62312204 C1.68947336,1.86651524 1.42313514,2.1581002 1.30954796,2.50656221 C1.20026031,2.8235283 1.23165847,3.12454996 1.39498071,3.40743238 C1.51433158,3.61415415 1.66542591,3.75902846 1.84826368,3.8420553 C2.043004,3.93271699 2.26634697,3.95609117 2.52077269,3.90349256 L2.52705431,3.91437265 C2.34172647,4.08665229 2.23343484,4.30149579 2.18779678,4.55995359 C2.1371985,4.83578197 2.18413804,5.09881723 2.32861541,5.34905937 C2.52648658,5.6917823 2.81032837,5.89782934 3.17699995,5.96176043 C3.55243326,6.02788633 3.97498872,5.92899173 4.44152551,5.65963658 C4.90244138,5.39352668 5.19936435,5.07703022 5.33543523,4.71558724 C5.46340507,4.36607479 5.42688399,4.01723708 5.22901281,3.67451415 C5.08453545,3.42427201 4.88021,3.25210354 4.61603647,3.15800875 C4.36938642,3.06830357 4.12355976,3.05791036 3.88731821,3.12902392 L3.88103659,3.11814383 C4.04818026,2.92734924 4.13960911,2.72224147 4.16408487,2.50501531 C4.1836004,2.30515974 4.13368273,2.10187106 4.01433186,1.89514929 C3.85100962,1.61226687 3.60039537,1.43780968 3.27687178,1.37072727 C2.91830124,1.29486565 2.52699122,1.38297408 2.11104276,1.62312204 Z M4.09580897,3.59712751 C4.33001429,3.65726152 4.52403659,3.80821721 4.66393563,4.05052946 C4.80058121,4.28720654 4.83104806,4.52507747 4.76602298,4.75797222 C4.68613124,5.01447736 4.49657017,5.22911031 4.18665298,5.40804108 C3.87673579,5.58697185 3.59073428,5.64690509 3.3425887,5.58730594 C3.09769659,5.53334196 2.90901768,5.37930125 2.77237211,5.14262417 C2.63247307,4.90031193 2.59340935,4.65989084 2.66912123,4.42082606 C2.74041611,4.16177076 2.92997717,3.94713782 3.23989436,3.76820705 C3.54446815,3.59236129 3.83046966,3.53242805 4.09580897,3.59712751 Z M3.18796397,1.79677735 C3.38709687,1.82805845 3.54413593,1.93017669 3.64488556,2.10468016 C3.74851375,2.28416944 3.77262681,2.46968029 3.71146763,2.65124109 C3.63353008,2.86907989 3.44183047,3.07282623 3.13061169,3.25250848 C2.81373438,3.43545768 2.54143507,3.49960124 2.31947088,3.45491079 C2.13165503,3.41709579 1.98305445,3.30345784 1.87942627,3.12396856 C1.77867664,2.94946509 1.76310066,2.7656731 1.84123541,2.57431145 C1.92483149,2.3532057 2.11375113,2.15771213 2.40233582,1.99109768 C2.68526199,1.82775018 2.94902422,1.76188776 3.18796397,1.79677735 Z" id="形状结合"></path>
                    </g>
                </g>
            </g>
        </g>
    </g>
</svg>