<svg width="16" height="17" viewBox="0 0 16 17" fill="none" xmlns="http://www.w3.org/2000/svg">
<path d="M4.63918 13.4136C4.63923 12.7553 4.83446 12.1119 5.20018 11.5646C5.5659 11.0174 6.08569 10.5908 6.69383 10.339C7.30196 10.0871 7.97111 10.0212 8.61668 10.1497C9.26225 10.2781 9.85524 10.5951 10.3207 11.0606C10.7861 11.526 11.103 12.119 11.2314 12.7646C11.3598 13.4102 11.2939 14.0793 11.042 14.6874C10.7901 15.2956 10.3635 15.8153 9.81622 16.181C9.26892 16.5467 8.62548 16.7419 7.96726 16.7419C7.53019 16.7419 7.0974 16.6558 6.69361 16.4885C6.28981 16.3212 5.92292 16.0761 5.61387 15.767C5.30483 15.4579 5.05969 15.091 4.89245 14.6872C4.72521 14.2834 4.63915 13.8506 4.63918 13.4136V13.4136ZM5.61415 13.4136C5.61415 13.8789 5.75214 14.3338 6.01068 14.7207C6.26922 15.1077 6.63669 15.4092 7.06662 15.5873C7.49655 15.7654 7.96963 15.812 8.42605 15.7212C8.88246 15.6304 9.3017 15.4063 9.63076 15.0773C9.95981 14.7482 10.1839 14.329 10.2747 13.8726C10.3655 13.4162 10.3189 12.9431 10.1408 12.5131C9.96271 12.0832 9.66114 11.7157 9.27421 11.4572C8.88728 11.1987 8.43238 11.0607 7.96703 11.0607C7.343 11.0607 6.74454 11.3086 6.30329 11.7498C5.86204 12.1911 5.61415 12.7895 5.61415 13.4136V13.4136ZM11.1115 15.5458C11.295 15.2758 11.4428 14.9832 11.5512 14.6754C11.9395 14.8861 12.3793 14.9833 12.8202 14.9559C13.2612 14.9284 13.6855 14.7774 14.0447 14.5201C14.4038 14.2628 14.6833 13.9096 14.8511 13.5009C15.0189 13.0921 15.0683 12.6445 14.9935 12.209C14.9188 11.7736 14.7231 11.3679 14.4286 11.0385C14.1342 10.7091 13.753 10.4693 13.3286 10.3464C12.9042 10.2235 12.4538 10.2225 12.0289 10.3436C11.604 10.4647 11.2218 10.703 10.926 11.0311C10.7211 10.777 10.4845 10.5501 10.222 10.3561C10.6428 9.89799 11.1837 9.56701 11.7831 9.40073C12.3825 9.23446 13.0166 9.23954 13.6133 9.41542C14.21 9.5913 14.7454 9.93092 15.1588 10.3957C15.5723 10.8606 15.8471 11.432 15.9522 12.0451C16.0573 12.6582 15.9884 13.2885 15.7533 13.8645C15.5182 14.4404 15.1264 14.939 14.6223 15.3035C14.1183 15.668 13.5221 15.8839 12.9015 15.9267C12.2809 15.9696 11.6607 15.8375 11.1114 15.5457L11.1115 15.5458ZM0 12.6066C-1.13068e-06 11.9396 0.200393 11.2881 0.575193 10.7364C0.949993 10.1847 1.48191 9.7584 2.10195 9.51269C2.72199 9.26699 3.40155 9.21326 4.0525 9.35846C4.70345 9.50367 5.29576 9.84111 5.7526 10.327C5.48753 10.5175 5.24796 10.7413 5.03976 10.9927C4.74013 10.6749 4.35798 10.4469 3.93608 10.334C3.51418 10.2211 3.06919 10.2279 2.65092 10.3535C2.23265 10.4792 1.85761 10.7188 1.56779 11.0455C1.27797 11.3723 1.08481 11.7732 1.00992 12.2035C0.935031 12.6337 0.981379 13.0764 1.14377 13.4818C1.30617 13.8872 1.5782 14.2394 1.92941 14.499C2.28063 14.7586 2.69716 14.9153 3.13239 14.9516C3.56762 14.9879 4.00436 14.9024 4.39373 14.7046C4.50483 15.0117 4.65522 15.3032 4.84113 15.5717C4.33366 15.8303 3.76833 15.9544 3.19919 15.9322C2.63006 15.9099 2.07615 15.742 1.59044 15.4445C1.10474 15.147 0.703468 14.7299 0.42501 14.233C0.146553 13.7362 0.000218268 13.1762 0 12.6066H0ZM5.88302 13.4134C5.88302 13.0012 6.00525 12.5982 6.23427 12.2555C6.46329 11.9127 6.78881 11.6456 7.16966 11.4878C7.5505 11.3301 7.96957 11.2888 8.37388 11.3692C8.77818 11.4497 9.14956 11.6482 9.44105 11.9396C9.73253 12.2311 9.93104 12.6025 10.0115 13.0068C10.0919 13.4111 10.0506 13.8302 9.89285 14.211C9.7351 14.5919 9.46796 14.9174 9.12521 15.1464C8.78245 15.3754 8.37949 15.4977 7.96726 15.4977C7.41451 15.4977 6.88439 15.2781 6.49352 14.8873C6.10265 14.4964 5.88305 13.9663 5.88302 13.4136V13.4134ZM6.152 13.4134C6.15188 13.7725 6.25826 14.1236 6.45767 14.4222C6.65708 14.7208 6.94057 14.9536 7.27228 15.0911C7.604 15.2285 7.96903 15.2646 8.32122 15.1946C8.67341 15.1246 8.99694 14.9517 9.25088 14.6979C9.50482 14.444 9.67777 14.1205 9.74785 13.7683C9.81793 13.4162 9.782 13.0511 9.64459 12.7194C9.50719 12.3876 9.27449 12.1041 8.97593 11.9046C8.67736 11.7051 8.32634 11.5986 7.96726 11.5986C7.48589 11.5986 7.02422 11.7898 6.6838 12.1302C6.34339 12.4705 6.15209 12.9322 6.152 13.4136V13.4134ZM11.633 14.4126C11.6577 14.322 11.679 14.2301 11.697 14.1369C11.9934 14.3262 12.3385 14.4254 12.6902 14.4223C13.0419 14.4192 13.3851 14.3139 13.6782 14.1194C13.9712 13.9248 14.2014 13.6494 14.3408 13.3264C14.4801 13.0035 14.5227 12.647 14.4633 12.3003C14.4038 11.9537 14.245 11.6317 14.006 11.3737C13.767 11.1156 13.4582 10.9325 13.1171 10.8467C12.776 10.7609 12.4173 10.776 12.0846 10.8902C11.7519 11.0044 11.4596 11.2128 11.2432 11.4901C11.1953 11.4087 11.1445 11.3293 11.0908 11.2519C11.3482 10.9512 11.6859 10.73 12.0644 10.6142C12.4428 10.4984 12.8465 10.4928 13.228 10.598C13.6096 10.7032 13.9533 10.9149 14.219 11.2083C14.4847 11.5017 14.6613 11.8647 14.7282 12.2548C14.7951 12.6449 14.7496 13.046 14.5969 13.4111C14.4442 13.7763 14.1907 14.0904 13.866 14.3168C13.5413 14.5432 13.1589 14.6724 12.7634 14.6894C12.368 14.7063 11.9759 14.6103 11.633 14.4126V14.4126ZM1.24383 12.6066C1.24384 12.1855 1.37142 11.7743 1.60974 11.4271C1.84807 11.0799 2.18597 10.8131 2.57894 10.6617C2.97191 10.5103 3.40151 10.4816 3.81115 10.5792C4.2208 10.6768 4.59127 10.8962 4.87376 11.2085C4.81977 11.2841 4.76853 11.3618 4.72006 11.4415C4.49793 11.1761 4.20455 10.9797 3.8745 10.8754C3.54445 10.7712 3.19148 10.7635 2.8572 10.8533C2.52292 10.943 2.22125 11.1264 1.98776 11.3819C1.75427 11.6374 1.59869 11.9543 1.53935 12.2953C1.48001 12.6363 1.51939 12.9872 1.65284 13.3065C1.78629 13.6259 2.00825 13.9004 2.29257 14.0978C2.57689 14.2952 2.9117 14.4072 3.25756 14.4206C3.60342 14.434 3.9459 14.3482 4.24463 14.1734C4.26324 14.2653 4.28515 14.3559 4.31037 14.4454C3.99276 14.615 3.63662 14.6995 3.27665 14.6906C2.91668 14.6817 2.56516 14.5796 2.25634 14.3945C1.94753 14.2093 1.69195 13.9473 1.5145 13.6339C1.33706 13.3206 1.24381 12.9667 1.24383 12.6066V12.6066ZM8.02413 14.4658C7.85455 14.4735 7.68584 14.4376 7.53405 14.3616C7.40357 14.2841 7.30047 14.1679 7.23905 14.0291C7.15798 13.8382 7.12031 13.6317 7.12874 13.4245C7.12874 13.0572 7.20607 12.788 7.36072 12.6172C7.44285 12.5304 7.5429 12.4626 7.65392 12.4183C7.76493 12.3741 7.88424 12.3546 8.00356 12.3611C8.13386 12.3562 8.26395 12.3753 8.38735 12.4174C8.4776 12.4523 8.55791 12.5088 8.62122 12.582C8.68726 12.6616 8.73563 12.7543 8.7631 12.8539L8.20089 12.9232C8.19394 12.8614 8.16801 12.8032 8.12664 12.7566C8.09187 12.7242 8.04576 12.7068 7.99824 12.708C7.95302 12.7082 7.9088 12.7214 7.87087 12.746C7.83294 12.7706 7.80291 12.8056 7.78435 12.8469C7.73231 12.9835 7.70458 13.1282 7.70241 13.2744C7.76192 13.2118 7.83221 13.1604 7.90992 13.1227C7.98773 13.0885 8.07205 13.0717 8.15703 13.0734C8.24307 13.0718 8.32847 13.0884 8.40773 13.1219C8.487 13.1554 8.55835 13.2051 8.6172 13.2679C8.67983 13.3333 8.72874 13.4106 8.76104 13.4953C8.79335 13.5799 8.8084 13.6702 8.80531 13.7607C8.80682 13.8895 8.77419 14.0164 8.71072 14.1285C8.65001 14.237 8.55811 14.3248 8.44694 14.3805C8.31477 14.4416 8.17012 14.4708 8.02461 14.4658H8.02413ZM7.8015 13.5107C7.7442 13.5809 7.71567 13.6702 7.72169 13.7606C7.71598 13.8542 7.74551 13.9466 7.80445 14.0195C7.82942 14.0493 7.86067 14.0731 7.89596 14.0893C7.93125 14.1055 7.96969 14.1137 8.00853 14.1133C8.04389 14.1139 8.07893 14.1066 8.11112 14.0919C8.14331 14.0773 8.17184 14.0557 8.19463 14.0286C8.24968 13.9564 8.27635 13.8665 8.26959 13.7759C8.27613 13.682 8.24855 13.5888 8.19191 13.5136C8.16863 13.485 8.13918 13.462 8.10577 13.4464C8.07235 13.4307 8.03583 13.4229 7.99895 13.4234C7.96166 13.4227 7.92467 13.4302 7.89055 13.4452C7.85644 13.4603 7.82601 13.4826 7.80138 13.5106L7.8015 13.5107ZM12.6926 13.7127C12.5205 13.7208 12.3486 13.6943 12.1869 13.6345C12.0764 13.5877 11.9835 13.5072 11.9214 13.4044C11.8604 13.3018 11.829 13.1844 11.8305 13.065C11.8239 12.9538 11.8545 12.8437 11.9174 12.7518C11.9804 12.66 12.0721 12.5917 12.1782 12.5578C12.1002 12.5201 12.0321 12.4646 11.9794 12.3958C11.9223 12.3133 11.8925 12.215 11.8942 12.1146C11.8946 12.0282 11.9174 11.9433 11.9605 11.8683C12.0036 11.7934 12.0655 11.7309 12.14 11.6871C12.2926 11.5952 12.4691 11.5507 12.647 11.5593C12.8647 11.5423 13.0818 11.5983 13.2642 11.7184C13.3267 11.7647 13.3774 11.8251 13.4121 11.8947C13.4468 11.9643 13.4644 12.0412 13.4636 12.119C13.4637 12.2125 13.436 12.3039 13.3841 12.3817C13.3339 12.4523 13.2701 12.5121 13.1966 12.5578C13.2995 12.6034 13.3871 12.6779 13.4486 12.7722C13.5038 12.8609 13.5325 12.9634 13.5314 13.0678C13.532 13.1696 13.5073 13.2699 13.4596 13.3598C13.4183 13.4425 13.3579 13.5143 13.2835 13.5693C13.2048 13.6224 13.1164 13.6593 13.0233 13.6779C12.9146 13.7016 12.8036 13.7133 12.6923 13.7127H12.6926ZM12.4875 12.8149C12.4316 12.8781 12.4028 12.9608 12.4072 13.045C12.4057 13.0861 12.4123 13.1272 12.4267 13.1657C12.441 13.2043 12.4629 13.2396 12.491 13.2697C12.5151 13.2968 12.5446 13.3187 12.5776 13.3337C12.6106 13.3488 12.6464 13.3567 12.6827 13.357C12.7183 13.3564 12.7533 13.3482 12.7854 13.3329C12.8175 13.3175 12.846 13.2955 12.8688 13.2682C12.9221 13.2052 12.9513 13.1252 12.9511 13.0426C12.951 12.9601 12.9216 12.8802 12.8681 12.8173C12.8441 12.7898 12.8145 12.7677 12.7813 12.7525C12.7481 12.7374 12.7121 12.7294 12.6756 12.7292C12.64 12.7293 12.6047 12.7369 12.5723 12.7517C12.5398 12.7665 12.5109 12.788 12.4874 12.8148L12.4875 12.8149ZM12.5046 11.9777C12.4619 12.0251 12.4383 12.0867 12.4386 12.1505C12.4389 12.2144 12.4629 12.2758 12.5061 12.3228C12.5301 12.3453 12.5583 12.3628 12.5892 12.3741C12.6201 12.3855 12.6529 12.3905 12.6858 12.3889C12.716 12.3899 12.7462 12.3847 12.7743 12.3734C12.8024 12.3622 12.8278 12.3453 12.8491 12.3237C12.8705 12.3012 12.8873 12.2747 12.8982 12.2456C12.9092 12.2166 12.9143 12.1856 12.913 12.1546C12.9143 12.1224 12.9091 12.0902 12.8976 12.0601C12.8861 12.0299 12.8686 12.0024 12.8462 11.9792C12.7999 11.9361 12.739 11.912 12.6757 11.9118C12.6124 11.9115 12.5513 11.9351 12.5046 11.9778V11.9777ZM3.18584 13.6654V12.3215C3.10244 12.3859 3.01331 12.4426 2.91958 12.4907C2.81564 12.5409 2.70771 12.5823 2.59691 12.6145V12.1552C2.75733 12.1092 2.90794 12.0341 3.04124 11.9337C3.14681 11.8473 3.23149 11.7382 3.28894 11.6145H3.75242V13.6654H3.18584ZM8.39598 9.23998L8.35046 9.49879C8.22434 9.48657 8.09665 9.48039 7.96738 9.48023C7.87539 9.48023 7.78423 9.48378 7.6939 9.48992L7.75775 9.12753L5.70519 8.76597L5.59251 9.39037C5.34876 9.21826 5.08616 9.07454 4.8098 8.96201L6.29873 0.728715C6.34063 0.497392 6.47267 0.292174 6.66583 0.158171C6.85898 0.0241683 7.09744 -0.0276515 7.32879 0.0141027L14.7912 1.36375C15.0225 1.40568 15.2277 1.53773 15.3617 1.73089C15.4956 1.92404 15.5474 2.16249 15.5057 2.39382L14.3093 9.01356C14.0495 8.89757 13.7779 8.81035 13.4992 8.75344L13.7507 7.3598L11.6168 6.98382L11.2719 8.94392C10.8909 9.09355 10.5356 9.30183 10.2189 9.56122L8.39598 9.23998ZM8.50842 8.60151L10.6089 8.97158L10.9789 6.87114L8.8785 6.50106L8.50842 8.60151ZM5.82059 8.12857L7.87007 8.48907L8.24015 6.38862L6.20012 6.02978L5.82059 8.12857ZM11.7296 6.34547L13.8664 6.72193L14.1197 5.3212C14.1475 5.16741 14.1131 5.00888 14.024 4.88049C13.9349 4.75209 13.7984 4.66433 13.6447 4.6365L12.0805 4.35368L11.7296 6.34547ZM8.99094 5.86295L11.0914 6.23302L11.4428 4.23828L9.34411 3.85875L8.99094 5.86295ZM6.57493 3.95677L6.3154 5.39131L8.35259 5.75027L8.70623 3.74311L7.25963 3.48182C7.18347 3.46795 7.10533 3.46925 7.02968 3.48563C6.95403 3.502 6.88236 3.53314 6.81875 3.57726C6.75515 3.62138 6.70088 3.67761 6.65904 3.74273C6.6172 3.80785 6.58862 3.88058 6.57493 3.95677ZM13.5238 2.29805C13.4244 2.31418 13.3297 2.35165 13.2461 2.40788C13.1626 2.46411 13.0922 2.53776 13.0398 2.62378C12.9782 2.72475 12.9368 2.83676 12.9181 2.95354C12.8953 3.0686 12.8948 3.18696 12.9166 3.30222C12.9359 3.40236 12.9762 3.49729 13.0348 3.58078C13.0929 3.66176 13.1676 3.72947 13.2539 3.77941C13.3471 3.83341 13.4491 3.87029 13.5553 3.88831C13.661 3.90834 13.7694 3.90974 13.8756 3.89245C13.9739 3.87633 14.0677 3.8398 14.1509 3.78521C14.2358 3.72809 14.3071 3.65311 14.3599 3.56553C14.4207 3.46379 14.4616 3.35146 14.4806 3.23447C14.5037 3.11846 14.504 2.99907 14.4814 2.88296C14.4613 2.78257 14.4197 2.68774 14.3594 2.60499C14.3001 2.52507 14.2249 2.45822 14.1387 2.4086C14.0464 2.35561 13.9456 2.31935 13.8407 2.30148C13.7841 2.29116 13.7268 2.28589 13.6693 2.28575C13.6205 2.28569 13.5719 2.28984 13.5238 2.29817V2.29805ZM11.922 2.01251C11.8162 2.02594 11.714 2.05992 11.6212 2.11254C11.5274 2.16679 11.4464 2.24063 11.3837 2.32902C11.3131 2.4305 11.2665 2.5467 11.2475 2.66883C11.2241 2.78458 11.2261 2.90401 11.2532 3.01893C11.2782 3.11989 11.3252 3.21406 11.391 3.29465C11.4582 3.37537 11.5413 3.44148 11.635 3.48891C11.7372 3.54104 11.8466 3.57743 11.9596 3.59686C12.0045 3.60495 12.0499 3.61055 12.0954 3.61365C12.1398 3.61679 12.1843 3.61758 12.2288 3.61601C12.2688 3.6146 12.3086 3.61065 12.3481 3.60419C12.3798 3.59931 12.4109 3.59172 12.4413 3.58149C12.4778 3.56968 12.5116 3.55062 12.5406 3.52544C12.5672 3.49498 12.5837 3.45702 12.5879 3.41679L12.6785 2.91334C12.6844 2.89278 12.6856 2.87116 12.6821 2.85005C12.6786 2.82895 12.6705 2.80888 12.6583 2.79132C12.646 2.77376 12.6301 2.75914 12.6115 2.74852C12.5929 2.73791 12.5722 2.73157 12.5509 2.72996L12.1339 2.655C12.1148 2.65078 12.095 2.65042 12.0758 2.65395C12.0566 2.65749 12.0382 2.66484 12.0219 2.67557C12.0037 2.69044 11.9886 2.70882 11.9777 2.72962C11.9667 2.75042 11.96 2.77321 11.958 2.79664C11.9521 2.82838 11.951 2.86082 11.9547 2.89289C11.9573 2.91888 11.9625 2.94455 11.9702 2.9695L12.2342 3.0168L12.1925 3.24877C12.1703 3.25539 12.1474 3.25901 12.1243 3.25953C12.0914 3.26083 12.0585 3.25833 12.0263 3.25209C11.9723 3.24284 11.9204 3.22448 11.8726 3.19782C11.8269 3.17225 11.7872 3.13732 11.756 3.09531C11.7231 3.05014 11.7007 2.99825 11.6902 2.94337C11.6779 2.87644 11.6786 2.80777 11.6921 2.74107C11.6995 2.68028 11.7195 2.62167 11.7507 2.56897C11.7819 2.51626 11.8237 2.47059 11.8734 2.43485C11.925 2.4022 11.9826 2.38017 12.0428 2.37002C12.1031 2.35987 12.1647 2.36181 12.2242 2.37573C12.2955 2.38743 12.364 2.41229 12.4263 2.44903C12.476 2.47852 12.5233 2.51214 12.5674 2.54953C12.6003 2.53535 12.63 2.51473 12.6548 2.48888C12.6826 2.45997 12.7008 2.42317 12.7068 2.38353C12.7126 2.34088 12.7061 2.29745 12.6881 2.25835C12.6701 2.21925 12.6413 2.1861 12.6051 2.16279C12.4994 2.08657 12.3765 2.03781 12.2472 2.0209C12.1397 2.0014 12.0297 1.99881 11.9213 2.01322L11.922 2.01251ZM10.0027 2.23574C10.0151 2.2988 10.0269 2.35488 10.0381 2.40399C10.0494 2.45309 10.063 2.50519 10.0788 2.56029L10.2335 3.10275C10.2404 3.1346 10.2537 3.16471 10.2726 3.1913C10.2914 3.21789 10.3154 3.24041 10.3432 3.25752C10.3957 3.28583 10.4524 3.30548 10.5111 3.3157C10.5637 3.32619 10.6175 3.32945 10.6711 3.32539C10.71 3.32308 10.7477 3.31087 10.7807 3.28992L11.0098 2.02161C11.0192 1.99321 11.0216 1.96294 11.0167 1.93342C11.0118 1.9039 10.9998 1.87601 10.9817 1.85218C10.9366 1.81457 10.8815 1.79098 10.8232 1.78432C10.7865 1.77789 10.7494 1.77394 10.7121 1.77249C10.6837 1.77079 10.6552 1.77079 10.6268 1.77249L10.5548 2.17225C10.5391 2.26116 10.5239 2.35015 10.5094 2.43922C10.4949 2.52829 10.4831 2.61787 10.474 2.70797H10.4612C10.4487 2.64491 10.4369 2.58883 10.4257 2.53972C10.4145 2.49061 10.401 2.43851 10.385 2.38341L10.2273 1.84036C10.2205 1.80872 10.2074 1.77878 10.1887 1.75236C10.17 1.72595 10.1461 1.70359 10.1185 1.68665C10.0659 1.65772 10.0089 1.63774 9.94971 1.62754C9.89773 1.61783 9.84451 1.61687 9.79222 1.6247C9.74755 1.62977 9.7057 1.64904 9.6728 1.67968L9.45076 2.91346C9.44351 2.9472 9.44243 2.98197 9.44756 3.01609C9.45176 3.04109 9.46249 3.06454 9.47866 3.08407C9.4959 3.10338 9.51786 3.11789 9.54239 3.12616C9.57315 3.13709 9.6048 3.14535 9.63698 3.15088C9.67372 3.15728 9.71085 3.16123 9.74812 3.1627C9.77654 3.16443 9.80505 3.16443 9.83348 3.1627L9.90229 2.78021C9.91806 2.6913 9.93382 2.60065 9.94959 2.50827C9.96535 2.41589 9.97793 2.32473 9.98731 2.23479L10.0027 2.23574ZM8.82411 1.44806L8.59024 2.75112C8.58275 2.7861 8.58147 2.82212 8.58646 2.85754C8.59057 2.88349 8.60216 2.90769 8.6198 2.92718C8.63864 2.94668 8.66163 2.96167 8.68708 2.97104C8.71895 2.98314 8.75194 2.99205 8.78557 2.99764C8.82391 3.0045 8.86265 3.00893 8.90155 3.01089C8.93081 3.01268 8.96015 3.01268 8.9894 3.01089L9.22363 1.70829C9.23107 1.67331 9.23235 1.6373 9.22741 1.60188C9.22328 1.57593 9.21169 1.55173 9.19407 1.53224C9.17522 1.51275 9.15223 1.49776 9.12679 1.48837C9.09496 1.47628 9.06201 1.46737 9.02842 1.46177C8.99041 1.45506 8.95196 1.45111 8.91338 1.44995C8.87401 1.44865 8.84492 1.44794 8.82612 1.44794L8.82411 1.44806ZM7.28185 1.18593C7.25119 1.18992 7.22181 1.20075 7.1959 1.21762C7.18409 1.22661 7.17423 1.2379 7.16689 1.2508C7.15956 1.2637 7.15491 1.27795 7.15321 1.2927L6.94595 2.44525C6.93799 2.48598 6.94383 2.5282 6.96254 2.56524C6.98125 2.60229 7.01178 2.63204 7.04929 2.6498C7.08193 2.66991 7.11646 2.68678 7.15239 2.70016C7.19054 2.71467 7.22932 2.72799 7.26873 2.74013C7.30814 2.75227 7.34665 2.76259 7.38424 2.77111C7.42176 2.77954 7.45452 2.78628 7.4825 2.79132C7.66212 2.83483 7.85039 2.82664 8.02555 2.76768C8.09215 2.7397 8.15009 2.69447 8.1934 2.63666C8.23671 2.57884 8.26382 2.51053 8.27195 2.43875C8.28997 2.35503 8.27516 2.26759 8.23057 2.19447C8.18632 2.12367 8.12262 2.0671 8.04707 2.03155C8.11866 2.02222 8.18599 1.99227 8.24086 1.94535C8.29372 1.89881 8.3286 1.83522 8.33946 1.76564C8.35517 1.70135 8.35311 1.63401 8.33351 1.57081C8.31392 1.50761 8.27752 1.45092 8.22821 1.40679C8.09314 1.30074 7.93155 1.23379 7.76106 1.21324C7.67453 1.19757 7.58723 1.18656 7.49952 1.18025C7.46665 1.17797 7.43568 1.17683 7.40659 1.17683C7.36484 1.17651 7.32312 1.17956 7.28185 1.18593ZM0.463954 2.25702C0.446379 2.15965 0.448166 2.05976 0.469213 1.96308C0.49026 1.8664 0.530155 1.77481 0.586617 1.69356C0.643078 1.6123 0.715 1.54297 0.798271 1.48953C0.881542 1.43608 0.974529 1.39957 1.07192 1.38208L5.54593 0.578083L5.3603 1.59148C5.34717 1.59762 5.33393 1.6033 5.32105 1.61051C5.2408 1.65259 5.16955 1.70994 5.1113 1.77935C5.05268 1.85018 5.01001 1.93281 4.9862 2.02161C4.96013 2.12335 4.95754 2.22969 4.97864 2.33257C4.99439 2.43161 5.03138 2.52607 5.08706 2.60948C5.10823 2.63965 5.13196 2.66793 5.158 2.69402L4.98573 3.63446L3.81639 3.84456L4.13018 5.54502L4.65373 5.44854L4.54732 6.02789L4.22974 6.087L4.38344 6.92174L4.09211 8.51437L3.22096 8.67493C2.68896 8.68866 2.16535 8.81072 1.68213 9.03366L0.463954 2.25702ZM1.95809 6.50567L2.27862 8.28889L4.01668 7.96836L3.68893 6.18656L1.95809 6.50567ZM2.0457 4.16344C1.91504 4.18693 1.79905 4.26137 1.72327 4.37037C1.64748 4.47937 1.61809 4.61402 1.64157 4.74468L1.86066 5.96369L3.58879 5.64504L3.27511 3.94258L2.0457 4.16344ZM1.77187 2.20902C1.69833 2.22222 1.62555 2.23935 1.55384 2.26033C1.49423 2.27668 1.43667 2.29977 1.38228 2.32914C1.35901 2.34139 1.33881 2.35873 1.32317 2.37987C1.31641 2.39052 1.31188 2.40244 1.30984 2.4149C1.30781 2.42735 1.30832 2.44009 1.31134 2.45234L1.4887 3.43121C1.49443 3.46602 1.51159 3.49792 1.53748 3.52188C1.56337 3.54584 1.5965 3.56049 1.63164 3.56352C1.66357 3.56988 1.69604 3.57309 1.72859 3.57309C1.76336 3.57309 1.7982 3.57219 1.83311 3.57037C1.86803 3.56856 1.90177 3.56537 1.93432 3.5608C1.96672 3.55638 1.99478 3.55205 2.01851 3.54779C2.1745 3.52924 2.32207 3.46693 2.44415 3.36807C2.48883 3.32604 2.5215 3.27286 2.53881 3.21401C2.55612 3.15516 2.55744 3.09276 2.54264 3.03323C2.53215 2.96122 2.49439 2.896 2.43718 2.85103C2.38097 2.80777 2.31348 2.78162 2.2428 2.77572C2.29703 2.74702 2.34176 2.70319 2.37156 2.64956C2.39983 2.59685 2.40874 2.53589 2.39674 2.47729C2.39017 2.42145 2.36855 2.36845 2.33419 2.32394C2.29982 2.27944 2.25401 2.24511 2.20165 2.22462C2.13192 2.19885 2.05795 2.1865 1.98363 2.18821C1.91252 2.18887 1.84161 2.19587 1.77175 2.20913L1.77187 2.20902ZM2.85443 2.03072C2.82234 2.03667 2.79073 2.04492 2.75984 2.05543C2.72721 2.06639 2.70356 2.07466 2.6889 2.08026L2.88895 3.18694C2.89334 3.217 2.90299 3.24606 2.91745 3.27278C2.92847 3.29221 2.9449 3.30802 2.96474 3.3183C2.98551 3.32826 3.00827 3.33339 3.03131 3.33331C3.06023 3.3335 3.0891 3.33084 3.1175 3.32539C3.15009 3.31955 3.18227 3.31165 3.21386 3.30174C3.2377 3.29464 3.26108 3.28607 3.28386 3.27609L3.0838 2.16929C3.07934 2.13928 3.0697 2.11028 3.05531 2.08357C3.04429 2.06413 3.02786 2.04832 3.00802 2.03805C2.98723 2.02812 2.96448 2.02299 2.94145 2.02303H2.93554C2.90832 2.02315 2.88118 2.02572 2.85443 2.03072V2.03072ZM3.63679 1.88884C3.59255 1.89651 3.54991 1.91153 3.51063 1.93329C3.47658 1.95058 3.44897 1.97835 3.43189 2.01251L3.62106 3.06054C3.62531 3.08959 3.63476 3.11763 3.64897 3.14331C3.65976 3.16195 3.67525 3.17744 3.6939 3.18824C3.71338 3.19845 3.73517 3.20346 3.75715 3.20278C3.78493 3.20236 3.81262 3.19955 3.83992 3.19439C3.8711 3.18853 3.90187 3.18063 3.93202 3.17074C3.95513 3.16369 3.9778 3.15524 3.99989 3.14544L3.94077 2.82053C3.92713 2.74509 3.91291 2.66832 3.89809 2.59021C3.88327 2.51209 3.86624 2.43579 3.84701 2.3613L3.85883 2.35693C3.88753 2.40375 3.91373 2.44486 3.93746 2.48025C3.96119 2.51564 3.98743 2.55312 4.0162 2.59269L4.29997 2.97849C4.31497 3.00177 4.33449 3.02179 4.35738 3.03737C4.38027 3.05295 4.40606 3.06376 4.43322 3.06918C4.48337 3.07612 4.53432 3.07492 4.58409 3.06563C4.62904 3.05833 4.67279 3.04496 4.71415 3.0259C4.74443 3.01259 4.77083 2.9918 4.79088 2.96548L4.59615 1.88801C4.58377 1.81959 4.55953 1.77742 4.52343 1.7615C4.47642 1.7449 4.42557 1.74243 4.37718 1.7544C4.34598 1.76023 4.31521 1.76813 4.28507 1.77805C4.26192 1.78509 4.23921 1.79354 4.21709 1.80335L4.27845 2.14292C4.29209 2.21836 4.30643 2.29371 4.32149 2.36899C4.33654 2.44426 4.35369 2.51915 4.37292 2.59363L4.36287 2.59765C4.33418 2.55091 4.30797 2.50985 4.28424 2.47445C4.26052 2.43906 4.23427 2.40158 4.2055 2.36201L3.91937 1.97657C3.90455 1.95346 3.88521 1.93359 3.86252 1.91814C3.83982 1.9027 3.81424 1.89201 3.7873 1.88671C3.76496 1.88331 3.74239 1.88161 3.71979 1.88162C3.69195 1.88176 3.66418 1.88433 3.63679 1.88931V1.88884ZM13.6177 3.53999C13.5708 3.53339 13.5261 3.51594 13.4871 3.48903C13.4481 3.46213 13.4159 3.4265 13.3931 3.38498C13.3427 3.27468 13.3317 3.1504 13.3621 3.033C13.3743 2.91252 13.4283 2.80013 13.5147 2.7153C13.551 2.68482 13.5938 2.66304 13.6398 2.65165C13.6857 2.64025 13.7337 2.63954 13.78 2.64956C13.8272 2.656 13.8721 2.6734 13.9113 2.70036C13.9505 2.72732 13.9828 2.76309 14.0056 2.8048C14.0551 2.91446 14.0657 3.03768 14.0358 3.15419C14.0233 3.27484 13.9698 3.38754 13.8841 3.47342C13.8292 3.52123 13.7587 3.54724 13.6859 3.54649C13.663 3.54651 13.6401 3.54449 13.6176 3.54046L13.6177 3.53999ZM1.8285 3.27632L1.78227 3.02058L1.95419 2.98949C2.00222 2.97742 2.05265 2.97877 2.09997 2.99339C2.11766 3.00141 2.13289 3.01399 2.14411 3.02985C2.15533 3.0457 2.16213 3.06425 2.16382 3.0836C2.16917 3.10467 2.1687 3.1268 2.16245 3.14763C2.1562 3.16845 2.14442 3.18719 2.12835 3.20184C2.09048 3.2339 2.04433 3.25463 1.99521 3.26166C1.96723 3.26671 1.93771 3.27096 1.90666 3.27443C1.88927 3.27649 1.87179 3.27759 1.85428 3.27774C1.84564 3.27788 1.83699 3.27756 1.82839 3.2768L1.8285 3.27632ZM1.69076 2.5182C1.7113 2.51098 1.73227 2.50501 1.75354 2.50035C1.7805 2.49408 1.8045 2.48852 1.82555 2.48521C1.87441 2.47285 1.92587 2.47566 1.9731 2.49325C1.98975 2.50033 2.00431 2.51154 2.01542 2.52582C2.02653 2.54009 2.03382 2.55696 2.0366 2.57484C2.04125 2.59315 2.04158 2.61229 2.03758 2.63075C2.03358 2.64922 2.02535 2.6665 2.01354 2.68125C1.97948 2.71377 1.93546 2.73389 1.88857 2.73835L1.73557 2.76602L1.69076 2.5182ZM7.5733 2.46653C7.54035 2.46062 7.50603 2.45317 7.47032 2.44419C7.44057 2.43732 7.41161 2.42742 7.38389 2.41463L7.43804 2.11348L7.64046 2.1499C7.69839 2.15641 7.75342 2.17865 7.7996 2.21422C7.81585 2.23033 7.82751 2.25048 7.83339 2.27258C7.83927 2.29469 7.83916 2.31797 7.83306 2.34002C7.83018 2.36542 7.82045 2.38956 7.80491 2.40986C7.78938 2.43017 7.76862 2.44587 7.74486 2.4553C7.71293 2.46761 7.67894 2.47371 7.64472 2.47327C7.62095 2.47308 7.59725 2.47079 7.57389 2.46641L7.5733 2.46653ZM7.67345 1.84426L7.49326 1.81187L7.54564 1.52065C7.57128 1.5211 7.59687 1.52316 7.62225 1.5268C7.65465 1.53098 7.68318 1.53527 7.70785 1.53969C7.76684 1.54606 7.82248 1.57027 7.86735 1.60909C7.88277 1.62377 7.89421 1.64213 7.9006 1.66243C7.90699 1.68274 7.90812 1.70434 7.90389 1.7252C7.90144 1.74721 7.89393 1.76835 7.88195 1.78698C7.86997 1.8056 7.85385 1.8212 7.83484 1.83256C7.80774 1.84627 7.77758 1.85282 7.74723 1.85159C7.72247 1.85133 7.69778 1.84888 7.67345 1.84426V1.84426Z" fill="#272C43"/>
</svg>
