<?xml version="1.0" encoding="UTF-8"?>
<svg width="8px" height="9px" viewBox="0 0 8 9" version="1.1" xmlns="http://www.w3.org/2000/svg" xmlns:xlink="http://www.w3.org/1999/xlink">
    <title>电子</title>
    <g id="控件" stroke="none" stroke-width="1" fill="none" fill-rule="evenodd">
        <g id="redbox" transform="translate(-68.000000, -125.000000)" fill-rule="nonzero">
            <g id="类型" transform="translate(10.000000, 123.115955)">
                <g id="游戏类型" transform="translate(58.000000, 1.408000)">
                    <g id="电子" transform="translate(0.000000, 1.376433)">
                        <rect id="矩形" fill="#262626" opacity="0" transform="translate(3.518972, 3.520000) scale(-1, 1) translate(-3.518972, -3.520000) " x="0" y="0" width="7.0379437" height="7.04"></rect>
                        <path d="M3.23457416,7.04 C2.05968431,7.04 1.01927142,6.46443875 0.379821997,5.57995625 L0.382887351,5.57696563 C0.334109728,5.51288375 0.315690109,5.43584938 0.3692857,5.376085 L2.15235973,3.64665125 L0.448270123,1.56074188 C0.39457831,1.49793188 0.401911793,1.40353813 0.464600352,1.349755 L0.463693117,1.34864813 C1.10815295,0.527525625 2.10974718,0 3.23457416,0 C5.178758,0 6.75483126,1.57595625 6.75483126,3.52 C6.75483126,5.46404375 5.178758,7.04 3.23457416,7.04 Z M3.23457416,0.29948875 C2.23764669,0.29948875 1.34663202,0.7525375 0.755877748,1.4638525 L2.45763054,3.54690188 C2.4751346,3.5673823 2.48675083,3.59223261 2.49123947,3.61880063 C2.50783775,3.66575 2.4990197,3.71954688 2.46278528,3.75994438 L0.686419292,5.48943313 C1.27547594,6.25044063 2.19772148,6.74051125 3.23457416,6.74051125 C5.01328385,6.74051125 6.45521005,5.29863813 6.45521005,3.52 C6.45521005,1.74136188 5.01328385,0.29948875 3.23457416,0.29948875 Z M3.00979984,2.2468325 C2.76158861,2.2468325 2.5603749,2.04565625 2.5603749,1.79748938 C2.5603749,1.5493225 2.76158861,1.34814625 3.00979984,1.34814625 C3.25801794,1.34814625 3.45923165,1.5493225 3.45923165,1.79748938 C3.45923165,2.04565625 3.25801794,2.2468325 3.00979984,2.2468325 Z" id="形状" stroke="#262626" stroke-width="0.5632" transform="translate(3.545804, 3.520000) scale(-1, 1) translate(-3.545804, -3.520000) "></path>
                    </g>
                </g>
            </g>
        </g>
    </g>
</svg>