<svg width="17" height="17" viewBox="0 0 17 17" fill="none" xmlns="http://www.w3.org/2000/svg">
<path d="M8.16254 16.9211C7.54854 16.7721 7.09853 16.4617 7.15602 16.2282C7.15692 16.2243 7.15849 16.2206 7.15966 16.2169H7.1589L7.247 15.8618C7.18887 16.0959 7.63962 16.4063 8.25349 16.5547C8.86736 16.7032 9.41223 16.6348 9.47036 16.4007L9.38223 16.7557H9.38147C9.38082 16.7595 9.38042 16.7634 9.37951 16.7674C9.34214 16.9177 9.10391 17 8.77536 17C8.56865 16.9977 8.36295 16.9712 8.16254 16.9211V16.9211ZM9.89245 16.4286C9.93152 16.3096 9.95992 16.1874 9.97732 16.0634C9.98111 16.0052 9.97168 15.947 9.94969 15.893C9.92771 15.8389 9.89373 15.7904 9.85028 15.7511H10.7081C10.9945 15.7511 11.2692 15.6385 11.4717 15.4382C11.6743 15.238 11.788 14.9663 11.788 14.683V14.4807H12.4829V14.6836C12.4829 15.1464 12.297 15.5903 11.966 15.9176C11.6351 16.2449 11.1862 16.4287 10.7182 16.4287L9.89245 16.4286ZM3.17265 16.4286C2.70463 16.4286 2.25577 16.2447 1.92483 15.9174C1.59388 15.5902 1.40799 15.1463 1.40799 14.6834V14.4806H2.10296V14.6829C2.10294 14.8232 2.13084 14.962 2.1851 15.0916C2.23936 15.2212 2.3189 15.3389 2.41917 15.4381C2.51944 15.5373 2.63849 15.616 2.76951 15.6696C2.90052 15.7233 3.04097 15.7509 3.18278 15.7509H6.84956C6.84878 15.7541 6.84878 15.7547 6.84956 15.7509L6.72978 16.2337H6.73082C6.72914 16.2388 6.72718 16.2438 6.72601 16.2489C6.71282 16.3091 6.72036 16.372 6.74742 16.4274L3.17265 16.4286ZM9.47242 16.3891H9.47321L9.47049 16.4005C9.4714 16.3968 9.47217 16.3929 9.47217 16.3891H9.47242ZM8.32746 16.257C7.71346 16.108 7.26345 15.7975 7.32093 15.5641C7.37842 15.3307 7.92381 15.2611 8.53768 15.4101C9.15155 15.5591 9.6023 15.8696 9.5443 16.103C9.50693 16.2534 9.26857 16.3357 8.94003 16.3357C8.73341 16.3334 8.52779 16.307 8.32746 16.2569V16.257ZM7.25048 15.8499H7.25127C7.24998 15.8537 7.24854 15.8574 7.24763 15.8612L7.25048 15.8499ZM4.80096 15.3443C4.80018 15.3421 4.79967 15.3399 4.79916 15.3376L4.72842 15.1345C4.775 15.2684 5.09785 15.2799 5.44923 15.1601C5.80061 15.0404 6.04766 14.8345 6.00082 14.7005L6.07166 14.9038C6.07256 14.9059 6.0736 14.908 6.07438 14.91C6.12109 15.044 5.87404 15.2498 5.52266 15.3697C5.37956 15.4208 5.22905 15.4488 5.07695 15.4526C4.93071 15.4528 4.82587 15.4163 4.80096 15.3443ZM4.72544 15.1281C4.72609 15.1302 4.72663 15.1326 4.7274 15.1347L4.72544 15.1281ZM4.66835 14.9642C4.62164 14.8302 4.86856 14.6245 5.22007 14.5046C5.57158 14.3846 5.89479 14.396 5.94085 14.5302C5.98692 14.6644 5.74052 14.87 5.38914 14.9899C5.24604 15.041 5.09554 15.0691 4.94342 15.0729C4.79758 15.0726 4.69327 15.0361 4.66823 14.9642H4.66835ZM5.9999 14.6995V14.7005V14.6995ZM5.99756 14.6941L5.99952 14.6996C5.99913 14.6975 5.99821 14.6959 5.99743 14.694L5.99756 14.6941ZM7.71942 14.6207C7.20727 14.6177 6.79299 14.4571 6.79402 14.2614C6.79402 14.2582 6.79401 14.2551 6.79478 14.2519L6.79659 13.9557C6.79542 14.1509 7.20975 14.3116 7.72189 14.315C8.23404 14.3185 8.6503 14.1622 8.65134 13.9669C8.65134 13.9637 8.65134 13.9605 8.65134 13.9573V13.9669L8.64963 14.2629C8.64963 14.2661 8.64963 14.2692 8.64963 14.2726C8.64846 14.4659 8.24013 14.6207 7.73447 14.6207H7.71942ZM7.72281 14.0666C7.32459 14.0643 6.98567 13.9666 6.85513 13.8315H0.569614C0.494806 13.8316 0.420726 13.817 0.351601 13.7888C0.282476 13.7605 0.21966 13.719 0.166756 13.6667C0.113853 13.6144 0.0719207 13.5523 0.0433048 13.4839C0.0146888 13.4156 -3.40627e-05 13.3423 5.91753e-08 13.2683V6.88734C5.91753e-08 6.88105 5.91753e-08 6.8745 5.91753e-08 6.86847C6.88842e-05 5.04682 0.731864 3.29979 2.0344 2.01171C3.33694 0.723632 5.10354 -1.27154e-09 6.94557 0C8.78763 -3.17891e-10 10.5542 0.723649 11.8568 2.01176C13.1593 3.29987 13.8911 5.04692 13.8911 6.8686C13.8911 6.87489 13.8911 6.88143 13.8911 6.88746V13.2683C13.8911 13.3423 13.8764 13.4155 13.8478 13.4838C13.8192 13.5521 13.7772 13.6141 13.7244 13.6664C13.6715 13.7187 13.6087 13.7602 13.5396 13.7884C13.4706 13.8167 13.3965 13.8313 13.3218 13.8313H8.60281C8.47941 13.9686 8.13917 14.0665 7.73732 14.0665L7.72281 14.0666ZM1.10397 7.47222V12.3154C1.10015 12.4216 1.13906 12.5249 1.21218 12.6028C1.2853 12.6806 1.38664 12.7266 1.494 12.7307H12.4167C12.5241 12.7266 12.6254 12.6806 12.6985 12.6027C12.7716 12.5249 12.8105 12.4216 12.8068 12.3154V7.47222C12.8105 7.36605 12.7716 7.26272 12.6985 7.18488C12.6254 7.10705 12.5241 7.06105 12.4167 7.05697H1.494C1.38659 7.06095 1.28517 7.10691 1.21199 7.18476C1.13882 7.26261 1.09989 7.366 1.10372 7.47222H1.10397ZM1.43054 5.35493C1.41646 5.40423 1.41413 5.45607 1.4237 5.50642C1.43327 5.55676 1.45447 5.60422 1.4857 5.64509C1.51692 5.68596 1.55728 5.71913 1.60364 5.74199C1.64999 5.76485 1.70108 5.77678 1.75287 5.77685H12.1389C12.1907 5.77678 12.2418 5.76485 12.2881 5.74199C12.3345 5.71913 12.3749 5.68596 12.4061 5.64509C12.4373 5.60422 12.4585 5.55676 12.4681 5.50642C12.4776 5.45607 12.4753 5.40423 12.4612 5.35493C12.123 4.16582 11.4011 3.1186 10.4054 2.37269C9.40977 1.62679 8.19491 1.22308 6.94583 1.22302C5.69663 1.22305 4.48166 1.62682 3.48595 2.37282C2.49024 3.11883 1.76833 4.1662 1.43016 5.35545L1.43054 5.35493ZM6.79621 13.9461C6.79621 13.9493 6.79558 13.9525 6.79558 13.9557L6.79621 13.9461ZM9.49124 11.7893C9.42651 11.7893 9.36442 11.7639 9.31865 11.7186C9.27288 11.6733 9.24719 11.6119 9.24719 11.5479V8.24804C9.24722 8.18405 9.27295 8.12269 9.31872 8.07745C9.36448 8.03221 9.42653 8.0068 9.49124 8.0068H11.7683C11.8004 8.00678 11.8321 8.01301 11.8617 8.02513C11.8913 8.03724 11.9183 8.05501 11.9409 8.07741C11.9636 8.09982 11.9816 8.12642 11.9938 8.15569C12.0061 8.18497 12.0124 8.21635 12.0124 8.24804V11.5488C12.0124 11.5805 12.0061 11.6119 11.9939 11.6412C11.9816 11.6705 11.9636 11.6971 11.9409 11.7195C11.9183 11.742 11.8914 11.7597 11.8618 11.7719C11.8321 11.784 11.8004 11.7902 11.7683 11.7902L9.49124 11.7893ZM9.77996 9.34557H10.8298V9.60631C10.5915 9.80155 10.4037 10.0502 10.2819 10.3316C10.1602 10.613 10.1081 10.919 10.1299 11.2243H10.8298C10.8298 11.2243 10.7797 10.3344 11.4796 9.93879V8.70294H9.77983L9.77996 9.34557ZM5.82643 11.7893C5.79439 11.7893 5.76265 11.7831 5.73304 11.7709C5.70344 11.7588 5.67653 11.741 5.65388 11.7186C5.63122 11.6962 5.61326 11.6696 5.60101 11.6403C5.58875 11.611 5.58246 11.5796 5.58247 11.5479V8.24804C5.58247 8.18406 5.60819 8.1227 5.65394 8.07746C5.69969 8.03222 5.76173 8.0068 5.82643 8.0068H8.10362C8.16832 8.0068 8.23039 8.03222 8.27614 8.07746C8.32189 8.1227 8.34758 8.18406 8.34758 8.24804V11.5488C8.34759 11.5805 8.3413 11.6119 8.32904 11.6412C8.31679 11.6705 8.29883 11.6971 8.27617 11.7195C8.25352 11.7419 8.22661 11.7597 8.19701 11.7718C8.1674 11.784 8.13566 11.7902 8.10362 11.7902L5.82643 11.7893ZM6.11525 9.34557H7.16498V9.60631C6.92667 9.80157 6.73886 10.0502 6.61716 10.3316C6.49546 10.613 6.44337 10.919 6.4652 11.2243H7.16498C7.16498 11.2243 7.11503 10.3344 7.81493 9.93879V8.70294H6.11512L6.11525 9.34557ZM2.16172 11.7893C2.12966 11.7893 2.09792 11.7831 2.0683 11.771C2.03868 11.7588 2.01177 11.7411 1.9891 11.7186C1.96643 11.6962 1.94846 11.6696 1.9362 11.6403C1.92394 11.611 1.91765 11.5796 1.91767 11.5479V8.24804C1.91767 8.21635 1.92396 8.18497 1.93623 8.15569C1.9485 8.12642 1.9665 8.09982 1.98917 8.07741C2.01183 8.05501 2.03872 8.03724 2.06833 8.02513C2.09794 8.01301 2.12967 8.00678 2.16172 8.0068H4.43894C4.50364 8.0068 4.56568 8.03222 4.61143 8.07746C4.65718 8.1227 4.6829 8.18406 4.6829 8.24804V11.5488C4.68291 11.5805 4.67661 11.6119 4.66436 11.6412C4.65211 11.6705 4.63415 11.6971 4.61149 11.7195C4.58884 11.7419 4.56193 11.7597 4.53233 11.7718C4.50272 11.784 4.47098 11.7902 4.43894 11.7902L2.16172 11.7893ZM2.45056 9.34557H3.50017V9.60631C3.26186 9.80157 3.07405 10.0502 2.95235 10.3316C2.83065 10.613 2.77856 10.919 2.80039 11.2243H3.50017C3.50017 11.2243 3.45019 10.3344 4.15009 9.93879V8.70294H2.45031L2.45056 9.34557ZM14.4055 11.0266V8.09098H14.4622C14.6359 8.09098 14.7766 8.31952 14.7766 8.60118V8.95663H15.8088C15.8756 8.95666 15.9397 8.98294 15.987 9.02969C16.0343 9.07644 16.0609 9.13984 16.0609 9.20595V9.91172C16.0609 9.97784 16.0344 10.0413 15.9871 10.088C15.9398 10.1348 15.8756 10.161 15.8088 10.161H14.7766V10.5166C14.7766 10.7989 14.6359 11.0267 14.4622 11.0267L14.4055 11.0266ZM15.1191 8.48582V5.58938C15.2243 5.61955 15.3332 5.63489 15.4427 5.63493C15.5522 5.63488 15.661 5.61954 15.7661 5.58938V8.48582H15.1191ZM14.6244 4.48685C14.6244 4.27224 14.7106 4.06642 14.864 3.91467C15.0175 3.76291 15.2256 3.67766 15.4426 3.67766C15.5501 3.67764 15.6565 3.69856 15.7558 3.73922C15.855 3.77988 15.9453 3.83949 16.0213 3.91463C16.0972 3.98977 16.1575 4.07898 16.1986 4.17716C16.2397 4.27535 16.2609 4.38058 16.2609 4.48685C16.2609 4.59312 16.2397 4.69836 16.1986 4.79655C16.1575 4.89474 16.0972 4.98396 16.0213 5.05911C15.9453 5.13427 15.8551 5.19388 15.7558 5.23456C15.6565 5.27523 15.5501 5.29616 15.4426 5.29616C15.2256 5.2964 15.0175 5.21141 14.8639 5.05988C14.7103 4.90836 14.6238 4.7027 14.6235 4.48813L14.6244 4.48685ZM10.1622 4.83857L9.6847 4.49545C9.67268 4.48684 9.65823 4.4822 9.64339 4.4822C9.62855 4.4822 9.61407 4.48684 9.60205 4.49545L9.12443 4.83857C9.11242 4.8472 9.09794 4.85185 9.08309 4.85185C9.06824 4.85185 9.05376 4.8472 9.04175 4.83857C9.02974 4.82993 9.02081 4.81776 9.01622 4.80379C9.01163 4.78983 9.01163 4.77478 9.01622 4.76081L9.19853 4.2057C9.20308 4.19169 9.203 4.17661 9.19834 4.16264C9.19367 4.14867 9.18464 4.13652 9.17255 4.12794L8.69519 3.78481C8.6832 3.77617 8.67429 3.76401 8.66972 3.75006C8.66514 3.73611 8.66514 3.72108 8.66972 3.70714C8.67429 3.69319 8.6832 3.68103 8.69519 3.67239C8.70717 3.66376 8.72163 3.65909 8.73646 3.65905H9.3267C9.34157 3.65906 9.35607 3.65441 9.3681 3.64576C9.38013 3.63712 9.38909 3.62492 9.39367 3.61093L9.57611 3.05582C9.58069 3.04185 9.58962 3.02967 9.60164 3.02104C9.61365 3.0124 9.62813 3.00775 9.64298 3.00775C9.65783 3.00775 9.6723 3.0124 9.68432 3.02104C9.69634 3.02967 9.7053 3.04185 9.70988 3.05582L9.89232 3.61093C9.89694 3.6249 9.9059 3.63707 9.91792 3.64572C9.92994 3.65436 9.9444 3.65902 9.95926 3.65905H10.5495C10.5644 3.65906 10.5788 3.66371 10.5908 3.67233C10.6028 3.68096 10.6118 3.69312 10.6164 3.70708C10.621 3.72103 10.621 3.73606 10.6164 3.75003C10.6118 3.76399 10.6029 3.77616 10.5909 3.78481L10.1134 4.12794C10.1013 4.13653 10.0923 4.14868 10.0877 4.16265C10.083 4.17662 10.0829 4.19169 10.0875 4.2057L10.2698 4.76081C10.2732 4.77128 10.2741 4.78241 10.2724 4.79329C10.2706 4.80416 10.2663 4.81448 10.2598 4.82339C10.2532 4.83229 10.2446 4.83955 10.2347 4.84455C10.2248 4.84955 10.2138 4.85217 10.2027 4.85218C10.188 4.85246 10.1737 4.84814 10.1617 4.83986L10.1622 4.83857ZM4.77736 4.83857L4.29984 4.49545C4.28782 4.48684 4.27337 4.4822 4.25853 4.4822C4.24369 4.4822 4.22921 4.48684 4.21719 4.49545L3.73957 4.83857C3.72755 4.8472 3.71308 4.85185 3.69823 4.85185C3.68338 4.85185 3.6689 4.8472 3.65689 4.83857C3.64487 4.82993 3.63594 4.81776 3.63135 4.80379C3.62677 4.78983 3.62677 4.77478 3.63135 4.76081L3.81367 4.2057C3.81823 4.19169 3.81817 4.17661 3.81351 4.16263C3.80884 4.14865 3.79979 4.1365 3.78769 4.12794L3.3102 3.78481C3.2982 3.77616 3.28926 3.76397 3.2847 3.75C3.28013 3.73602 3.28015 3.72098 3.28476 3.70701C3.28937 3.69305 3.29833 3.68089 3.31035 3.67228C3.32238 3.66366 3.33688 3.65903 3.35173 3.65905H3.94184C3.95671 3.65906 3.97121 3.65441 3.98324 3.64576C3.99527 3.63712 4.00422 3.62492 4.00881 3.61093L4.19124 3.05582C4.19583 3.04185 4.20476 3.02967 4.21678 3.02104C4.22879 3.0124 4.24326 3.00775 4.25812 3.00775C4.27297 3.00775 4.28744 3.0124 4.29946 3.02104C4.31147 3.02967 4.32043 3.04185 4.32502 3.05582L4.50746 3.61093C4.51206 3.62491 4.521 3.6371 4.53302 3.64574C4.54505 3.65438 4.55953 3.65904 4.5744 3.65905H5.16466C5.1795 3.65906 5.19397 3.66371 5.20597 3.67233C5.21798 3.68096 5.22691 3.69312 5.23151 3.70708C5.2361 3.72103 5.23611 3.73606 5.23154 3.75003C5.22697 3.76399 5.21806 3.77616 5.20607 3.78481L4.72854 4.12794C4.71647 4.13653 4.70748 4.14868 4.70282 4.16265C4.69816 4.17662 4.69807 4.19169 4.7026 4.2057L4.88504 4.76081C4.88848 4.77129 4.88938 4.78243 4.88763 4.79332C4.88589 4.8042 4.88155 4.81452 4.87499 4.82344C4.86844 4.83235 4.85984 4.8396 4.84991 4.84459C4.83997 4.84959 4.82896 4.85219 4.81781 4.85218C4.80304 4.85253 4.78856 4.84821 4.77644 4.83986L4.77736 4.83857ZM7.6094 4.82741L6.99955 4.38907C6.98419 4.37807 6.96571 4.37215 6.94675 4.37215C6.92778 4.37215 6.90927 4.37807 6.89391 4.38907L6.28406 4.82741C6.26872 4.8385 6.25022 4.84449 6.23122 4.84452C6.21222 4.84455 6.19369 4.83862 6.17832 4.82758C6.16294 4.81653 6.15151 4.80095 6.14566 4.78308C6.1398 4.7652 6.13984 4.74595 6.14575 4.72809L6.37932 4.01873C6.38521 4.0009 6.38523 3.98168 6.37938 3.96383C6.37353 3.94598 6.36211 3.93043 6.34675 3.91942L5.73688 3.48107C5.7215 3.47004 5.71006 3.45448 5.70418 3.43662C5.6983 3.41875 5.69829 3.3995 5.70415 3.38163C5.71002 3.36376 5.72144 3.34819 5.73681 3.33715C5.75218 3.3261 5.77072 3.32015 5.78972 3.32016H6.5437C6.56271 3.32018 6.58125 3.31425 6.59663 3.3032C6.61202 3.29216 6.62349 3.27658 6.62936 3.25869L6.86292 2.54934C6.8688 2.53149 6.88023 2.51593 6.89559 2.5049C6.91095 2.49387 6.92944 2.48792 6.94843 2.48792C6.96741 2.48792 6.98591 2.49387 7.00127 2.5049C7.01663 2.51593 7.02805 2.53149 7.03393 2.54934L7.26749 3.25869C7.27337 3.27655 7.2848 3.2921 7.30015 3.30314C7.31551 3.31418 7.33401 3.32014 7.35299 3.32016H8.10713C8.12614 3.32013 8.14468 3.32606 8.16007 3.33709C8.17546 3.34812 8.18691 3.3637 8.19279 3.38157C8.19868 3.39945 8.19867 3.41871 8.19279 3.43658C8.18692 3.45446 8.17546 3.47004 8.16007 3.48107L7.55022 3.91942C7.53489 3.93046 7.52347 3.946 7.5176 3.96384C7.51172 3.98167 7.51171 4.00088 7.51753 4.01873L7.7511 4.72809C7.75536 4.74147 7.75636 4.75566 7.75408 4.7695C7.75179 4.78335 7.74626 4.79648 7.73792 4.80783C7.72958 4.81918 7.71869 4.82844 7.70608 4.83487C7.69347 4.84131 7.6795 4.84473 7.66531 4.84486C7.64506 4.84607 7.62499 4.84036 7.60848 4.82869L7.6094 4.82741Z" fill="url(#paint0_linear_30_97)"/>
<defs>
<linearGradient id="paint0_linear_30_97" x1="8.13043" y1="0" x2="8.13043" y2="17" gradientUnits="userSpaceOnUse">
<stop stop-color="#FF846D"/>
<stop offset="1" stop-color="#FF4848"/>
</linearGradient>
</defs>
</svg>
