<?xml version="1.0" encoding="UTF-8"?>
<svg width="9px" height="9px" viewBox="0 0 9 9" version="1.1" xmlns="http://www.w3.org/2000/svg" xmlns:xlink="http://www.w3.org/1999/xlink">
    <title>体育</title>
    <g id="控件" stroke="none" stroke-width="1" fill="none" fill-rule="evenodd">
        <g id="redbox" transform="translate(-115.000000, -125.000000)" fill="#262626" fill-rule="nonzero">
            <g id="类型" transform="translate(10.000000, 123.115955)">
                <g id="游戏类型" transform="translate(58.000000, 1.408000)">
                    <g id="体育" transform="translate(47.154223, 0.672433)">
                        <rect id="矩形" opacity="0" x="0" y="0" width="8.44553244" height="8.448"></rect>
                        <path d="M4.28141575,7.86133333 C3.78238914,7.86133333 3.29822715,7.76360895 2.8437944,7.57028462 C2.40422628,7.38439584 2.00925203,7.11777822 1.66948923,6.77786732 C1.32972643,6.43901863 1.06428674,6.04280998 0.877417205,5.60305025 C0.684177113,5.14841941 0.586495308,4.66510859 0.586495308,4.16480222 C0.586495308,3.66555808 0.684177113,3.18118504 0.877417205,2.7265542 C1.06322499,2.28679446 1.32972643,1.89164803 1.66948923,1.55173713 C2.00819027,1.21182622 2.40422628,0.946270824 2.8437944,0.759319826 C3.29822715,0.567057719 3.78238914,0.469333333 4.28141575,0.469333333 C4.78044236,0.469333333 5.26460435,0.567057719 5.71903709,0.760382047 C6.15860521,0.946270824 6.55357947,1.21288844 6.89334227,1.55279935 C7.23310507,1.89164803 7.49854475,2.28785668 7.68541429,2.72761642 C7.87865438,3.18224726 7.97633619,3.6666203 7.97633619,4.16586444 C7.97633619,4.66510859 7.87865438,5.14948163 7.68541429,5.60411247 C7.49960651,6.0438722 7.23310507,6.43901863 6.89334227,6.77892954 C6.55464123,7.11884045 6.15860521,7.38439584 5.71903709,7.57134684 C5.26460435,7.76360895 4.78044236,7.86133333 4.28141575,7.86133333 Z M4.28141575,0.80924424 C2.43183201,0.80924424 0.926258107,2.31547445 0.926258107,4.16586444 C0.926258107,6.01625444 2.43183201,7.52248465 4.28141575,7.52248465 C6.13099949,7.52248465 7.63657339,6.01625444 7.63657339,4.16586444 C7.63657339,2.31441222 6.13099949,0.80924424 4.28141575,0.80924424 Z" id="形状"></path>
                        <path d="M3.20058868,7.42852443 L3.14403378,7.46361251 C2.32817691,7.16802205 1.65684925,6.55982872 1.27039073,5.77832157 L2.82041404,5.89102872 L3.20058868,7.42852443 L3.20058868,7.42852443 Z M7.21598691,5.8750796 C6.80125095,6.65127038 6.0995512,7.24457785 5.25751151,7.50933333 L5.6334969,5.99097658 L7.21598691,5.8750796 Z M7.624439,4.23019311 L6.31529769,3.42423063 L6.69547233,1.88673492 L6.70175621,1.88567165 C7.27044719,2.4970548 7.62129707,3.32109295 7.624439,4.23019311 Z M4.2615168,2.92236481 L3.00474114,3.85060392 L3.48545783,5.350885 L5.0396704,5.350885 L5.51933977,3.85060392 L4.2615168,2.92236481 Z M5.55599573,1.10841759 L4.26570605,2.03878325 L2.97646369,1.10841759 L2.98798413,1.07120297 C3.37758459,0.909585162 3.803841,0.821333333 4.25104367,0.821333333 C4.7108141,0.821333333 5.14963827,0.915964812 5.54761723,1.08608882 L5.55599573,1.10841759 Z M1.91239363,1.8537734 L2.29256827,3.3912691 L0.938392493,4.22487674 C0.942581745,3.30089073 1.30495206,2.46409327 1.89249468,1.85164685 L1.91239363,1.8537734 Z" id="形状"></path>
                        <path d="M7.50713994,4.20457544 L6.19864768,3.40455298 L6.57863384,1.87838877 L6.5849146,1.87733333 C7.15332364,2.48421053 7.50399956,3.30217544 7.50713994,4.20457544 L7.50713994,4.20457544 Z M7.10726471,5.76979088 C6.69273436,6.54026105 5.99138251,7.12919579 5.14976029,7.392 L5.52555927,5.88483368 L7.10726471,5.76979088 Z M3.1022316,7.35400421 L3.04570474,7.38883368 C2.23025236,7.09542175 1.55925753,6.49171088 1.17299062,5.71596351 L2.72224545,5.82784 L3.1022316,7.35400421 L3.1022316,7.35400421 Z" id="形状"></path>
                    </g>
                </g>
            </g>
        </g>
    </g>
</svg>