<svg width="18" height="18" viewBox="0 0 18 18" fill="none" xmlns="http://www.w3.org/2000/svg">
<path d="M16.6777 5.90231C16.2598 4.87302 15.6484 3.95114 14.8574 3.16013C14.0664 2.36911 13.1445 1.75583 12.1152 1.33981C11.123 0.93747 10.0742 0.732391 8.99805 0.732391C7.92187 0.732391 6.87109 0.93747 5.87891 1.33981C4.84961 1.75778 3.92773 2.36911 3.13672 3.16013C2.3457 3.95114 1.73242 4.87302 1.31641 5.90231C0.914062 6.8945 0.708984 7.94333 0.708984 9.0195C0.708984 10.0957 0.914062 11.1465 1.31641 12.1386C1.73437 13.1679 2.3457 14.0898 3.13672 14.8808C3.92773 15.6718 4.84961 16.2851 5.87891 16.7011C6.87109 17.1035 7.92187 17.3086 8.99805 17.3086C10.0742 17.3086 11.123 17.1035 12.1172 16.7011C13.1465 16.2832 14.0684 15.6718 14.8594 14.8808C15.6504 14.0898 16.2637 13.1679 16.6797 12.1386C17.082 11.1465 17.2871 10.0957 17.2871 9.0195C17.2871 7.94333 17.0801 6.8945 16.6777 5.90231ZM16.3047 8.76169C14.6582 8.96481 12.8848 8.34177 11.4863 7.08591L14.3066 4.26559C14.3555 4.21677 14.3867 4.16013 14.4043 4.09958C15.5762 5.38474 16.2441 7.02145 16.3047 8.76169ZM13.9199 3.6152C13.8594 3.63278 13.8027 3.66599 13.7539 3.71286L10.9336 6.53317C9.67578 5.13474 9.05469 3.36325 9.25781 1.71677C10.9355 1.77731 12.5977 2.41013 13.9199 3.6152ZM8.4707 1.73239C8.375 2.65427 8.50586 3.63474 8.85156 4.57809C9.18164 5.48239 9.70898 6.34372 10.3828 7.08591L8.91406 8.55466L4.09766 3.73825C4.07227 3.71286 4.04297 3.69138 4.01172 3.6738C5.27344 2.49411 6.85547 1.84763 8.4707 1.73239ZM3.48633 4.21677C3.50195 4.24411 3.52148 4.2695 3.54492 4.29294L8.35938 9.10739L6.72461 10.7422C6.03711 10.1172 5.26562 9.63083 4.42969 9.29294C3.53516 8.93356 2.58984 8.76559 1.69336 8.80661C1.74023 7.16208 2.33789 5.53122 3.48633 4.21677ZM1.71094 9.58981C3.24805 9.51364 4.88672 10.1465 6.16992 11.2968L3.58203 13.8847C3.57422 13.8925 3.56836 13.9004 3.56055 13.9082C2.44922 12.6738 1.83203 11.1465 1.71094 9.58981ZM4.11133 14.459C4.11914 14.4531 4.12695 14.4453 4.13477 14.4375L6.72461 11.8476C7.875 13.1308 8.50781 14.7695 8.43164 16.3047C6.87305 16.1855 5.3457 15.5703 4.11133 14.459ZM9.21289 16.3242C9.25391 15.4316 9.08789 14.4922 8.73047 13.5996C8.39453 12.7578 7.90625 11.9843 7.27734 11.2949L8.91406 9.65817L13.7207 14.4648C13.7461 14.4902 13.7754 14.5117 13.8047 14.5293C12.4883 15.6777 10.8574 16.2773 9.21289 16.3242ZM14.3418 14.0097C14.3242 13.9746 14.3008 13.9433 14.2715 13.914L9.46484 9.10739L10.9336 7.63864C12.3047 8.88473 14.0195 9.58005 15.6855 9.58005C15.8867 9.58005 16.0898 9.57028 16.2891 9.5488C16.1719 11.2207 15.4922 12.7793 14.3418 14.0097Z" fill="#272C43"/>
</svg>
