<?xml version="1.0" standalone="no"?><!DOCTYPE svg PUBLIC "-//W3C//DTD SVG 1.1//EN" "http://www.w3.org/Graphics/SVG/1.1/DTD/svg11.dtd"><svg t="1643281356232" class="icon" viewBox="0 0 1024 1024" version="1.1" xmlns="http://www.w3.org/2000/svg" p-id="2804" xmlns:xlink="http://www.w3.org/1999/xlink" width="200" height="200"><defs><style type="text/css"></style></defs><path d="M622.592 145.408c12.288 0 23.04 10.24 23.04 23.04 0 12.288-10.24 23.04-23.04 23.04H439.296c-12.288 0-23.04-10.24-23.04-23.04 0-12.288 10.24-23.04 23.04-23.04h183.296m0-45.568H439.296c-37.888 0-68.608 30.72-68.608 68.608s30.72 68.608 68.608 68.608h183.296c37.888 0 68.608-30.72 68.608-68.608s-31.232-68.608-68.608-68.608zM691.2 526.848H370.688V481.28H691.2v45.568z" fill="#ffffff" p-id="2805"></path><path d="M728.064 371.2L541.696 496.64c-1.024 1.024-2.56 0.512-3.584-0.512l-22.528-33.792c-1.024-1.024-0.512-2.56 0.512-3.584l186.368-125.44c1.024-1.024 2.56-0.512 3.584 0.512l22.528 33.792c1.024 1.024 1.024 2.56-0.512 3.584z" fill="#ffffff" p-id="2806"></path><path d="M332.8 367.616l22.528-33.792c1.024-1.024 2.56-1.536 3.584-0.512l186.368 125.44c1.024 1.024 1.536 2.56 0.512 3.584l-22.528 33.792c-1.024 1.024-2.56 1.536-3.584 0.512L333.312 371.2c-1.024-1.024-1.536-2.56-0.512-3.584zM370.688 618.496H691.2v45.568H370.688v-45.568z" fill="#ffffff" p-id="2807"></path><path d="M507.904 458.24h45.568v320.512h-45.568V458.24z" fill="#ffffff" p-id="2808"></path><path d="M774.144 942.592H286.72c-72.704 0-132.096-59.392-132.096-132.096V268.288c0-72.704 59.392-132.096 132.096-132.096v58.88c-40.448 0-73.216 32.768-73.216 73.216v542.208c0 40.448 32.768 73.216 73.216 73.216h486.912c40.448 0 73.216-32.768 73.216-73.216V268.288c0-40.448-32.768-73.216-73.216-73.216V136.704c72.704 0 132.096 59.392 132.096 132.096v542.208c0 72.192-58.88 131.584-131.584 131.584z" fill="#ffffff" p-id="2809"></path><path d="M288.256 165.888m-29.696 0a29.696 29.696 0 1 0 59.392 0 29.696 29.696 0 1 0-59.392 0Z" fill="#ffffff" p-id="2810"></path><path d="M773.12 165.888m-29.696 0a29.696 29.696 0 1 0 59.392 0 29.696 29.696 0 1 0-59.392 0Z" fill="#ffffff" p-id="2811"></path></svg>