<?xml version="1.0" standalone="no"?><!DOCTYPE svg PUBLIC "-//W3C//DTD SVG 1.1//EN" "http://www.w3.org/Graphics/SVG/1.1/DTD/svg11.dtd"><svg t="1643282304534" class="icon" viewBox="0 0 1024 1024" version="1.1" xmlns="http://www.w3.org/2000/svg" p-id="1408" xmlns:xlink="http://www.w3.org/1999/xlink" width="200" height="200"><defs><style type="text/css"></style></defs><path d="M942.08 225.28c46.08 0 81.92 38.4 81.92 84.48v593.92c0 46.08-35.84 84.48-81.92 84.48H107.52c-46.08 0-81.92-38.4-81.92-84.48V309.76c0-46.08 35.84-84.48 81.92-84.48h373.76c-7.68 38.4 15.36 71.68 33.28 84.48h-409.6v593.92h834.56V225.28zM588.8 724.48h238.08c20.48 0 38.4 17.92 38.4 38.4v2.56c0 20.48-17.92 38.4-38.4 38.4H588.8c-20.48 0-38.4-17.92-38.4-38.4v-2.56c0-20.48 17.92-38.4 38.4-38.4z m0-130.56h238.08c20.48 0 38.4 17.92 38.4 38.4v2.56c0 20.48-17.92 38.4-38.4 38.4H588.8c-20.48 0-38.4-17.92-38.4-38.4v-2.56c0-20.48 17.92-38.4 38.4-38.4zM186.88 455.68c-7.68-15.36-2.56-30.72 15.36-38.4 17.92-10.24 30.72-5.12 43.52 10.24l84.48 133.12 87.04-133.12c10.24-15.36 23.04-20.48 40.96-12.8 17.92 7.68 23.04 20.48 15.36 40.96L386.56 588.8h71.68c7.68 5.12 10.24 12.8 10.24 23.04s-2.56 17.92-10.24 23.04h-92.16v38.4h92.16c7.68 5.12 10.24 12.8 10.24 23.04s-2.56 17.92-10.24 23.04h-92.16v97.28c2.56 28.16-10.24 40.96-35.84 43.52-25.6 0-35.84-12.8-35.84-43.52V716.8H202.24c-10.24-5.12-15.36-12.8-15.36-23.04s5.12-17.92 15.36-23.04h92.16v-38.4H202.24c-10.24-5.12-12.8-12.8-15.36-23.04 0-10.24 5.12-17.92 15.36-23.04h71.68l-87.04-130.56z m660.48-166.4h-71.68v166.4c0 33.28-25.6 58.88-58.88 58.88h-12.8c-33.28 0-58.88-25.6-58.88-58.88v-166.4h-74.24c-48.64 0-76.8-56.32-46.08-94.72L663.04 23.04c23.04-28.16 69.12-28.16 92.16 0l135.68 171.52c30.72 35.84 5.12 94.72-43.52 94.72z" fill="#ffffff" p-id="1409"></path></svg>