<svg width="6" height="8" viewBox="0 0 6 8" fill="none" xmlns="http://www.w3.org/2000/svg">
<path id="Vector" d="M0.644647 8C1.04425 7.90202 1.34487 7.62978 1.6718 7.40705C2.95631 6.53191 4.23839 5.65327 5.51804 4.77111C5.70165 4.64533 5.86319 4.49907 5.94315 4.28668C6.06947 3.94831 5.97898 3.65559 5.73404 3.40262C5.65741 3.32846 5.57359 3.26214 5.48383 3.20463C4.04142 2.2155 2.59874 1.2267 1.15579 0.238238C1.02522 0.149386 0.889187 0.070677 0.734123 0.027671C0.369742 -0.0715266 0.0928119 0.100497 0.0225673 0.471322C0.00581895 0.568982 -0.0016371 0.668016 0.000299609 0.76709C0.000299609 2.92104 0.000299609 5.07505 0.000299609 7.22914C0.000299609 7.38291 0.0104213 7.53485 0.0697345 7.67989C0.139777 7.8507 0.268727 7.95071 0.442011 8H0.644647Z" fill="#666666"/>
</svg>
