<?xml version="1.0" encoding="UTF-8"?>
<svg width="25px" height="24px" viewBox="0 0 25 24" version="1.1" xmlns="http://www.w3.org/2000/svg" xmlns:xlink="http://www.w3.org/1999/xlink">
    <title>日历</title>
    <g id="签到" stroke="none" stroke-width="1" fill="none" fill-rule="evenodd">
        <g id="签到中心-今日已签到" transform="translate(-142.000000, -83.000000)" fill="#3276F5" fill-rule="nonzero">
            <g id="编组-5" transform="translate(118.000000, 78.000000)">
                <g id="日历" transform="translate(24.550000, 5.000000)">
                    <rect id="矩形" opacity="0" x="0" y="0" width="24" height="24"></rect>
                    <path d="M19.5018281,4.49608594 L5.25180469,4.49608594 C4.83757031,4.49608594 4.50194531,4.83185156 4.50194531,5.24615625 L4.50194531,18.7461094 C4.50194531,19.1603438 4.83757031,19.4961094 5.25180469,19.4961094 L19.5018281,19.4961094 C19.9160625,19.4961094 20.2518984,19.1603438 20.2518984,18.7461094 L20.2518984,5.24617969 C20.2518984,4.831875 19.9160625,4.49608594 19.5018281,4.49608594 Z M19.5019219,17.9960625 C19.5019219,18.4102969 19.1661563,18.7460625 18.7519219,18.7460625 L6.001875,18.7460625 C5.58764063,18.7460625 5.251875,18.4102969 5.251875,17.9960625 L5.251875,8.24603906 C5.251875,7.83180469 5.58764063,7.49603906 6.001875,7.49603906 L18.7518984,7.49603906 C19.1661328,7.49603906 19.5019219,7.83180469 19.5019219,8.24603906 L19.5019219,17.9960625 L19.5019219,17.9960625 Z M8.9269435,12.5231451 L11.6044361,15.1640005 L10.7958562,15.9689369 L8.13568722,13.3087679 L8.9269435,12.5231451 Z M16.036199,9.57235504 L16.7714696,10.3021776 L10.9907386,16.1781256 L10.215259,15.3932951 L16.036199,9.57235504 Z" id="形状"></path>
                </g>
            </g>
        </g>
    </g>
</svg>