<?xml version="1.0" encoding="UTF-8"?>
<svg width="8px" height="8px" viewBox="0 0 8 8" version="1.1" xmlns="http://www.w3.org/2000/svg" xmlns:xlink="http://www.w3.org/1999/xlink">
    <title>下箭头</title>
    <g id="签到" stroke="none" stroke-width="1" fill="none" fill-rule="evenodd">
        <g id="签到中心-今日已签到" transform="translate(-220.000000, -271.000000)" fill-rule="nonzero">
            <g id="签到板块V2" transform="translate(12.000000, 130.000000)">
                <g id="编组-2" transform="translate(135.000000, 138.000000)">
                    <g id="下箭头" transform="translate(77.000000, 7.000000) scale(1, -1) translate(-77.000000, -7.000000) translate(73.000000, 3.000000)">
                        <rect id="矩形" fill="#000000" opacity="0" x="0" y="0" width="8" height="8"></rect>
                        <path d="M4.477,2.125 L6.8895,5.286 C7.02797894,5.46745814 7.0515001,5.71177456 6.95018286,5.91631866 C6.84886563,6.12086277 6.64026176,6.25020026 6.412,6.25000023 L1.58775,6.25000023 C1.35957835,6.25000023 1.15114843,6.12059989 1.04995642,5.91609444 C0.948764405,5.71158899 0.972325863,5.4673865 1.11075,5.286 L3.52325,2.125 C3.63675697,1.9763478 3.81309209,1.88912942 4.000125,1.88912942 C4.18715791,1.88912942 4.36349303,1.9763478 4.477,2.125 Z" id="路径" fill="#3276F5"></path>
                    </g>
                </g>
            </g>
        </g>
    </g>
</svg>