<?xml version="1.0" encoding="UTF-8"?>
<svg width="11px" height="11px" viewBox="0 0 11 11" version="1.1" xmlns="http://www.w3.org/2000/svg" xmlns:xlink="http://www.w3.org/1999/xlink">
    <title>金币</title>
    <g id="签到" stroke="none" stroke-width="1" fill="none" fill-rule="evenodd">
        <g id="签到中心v2" transform="translate(-174.000000, -215.000000)" fill-rule="nonzero">
            <g id="签到板块V2" transform="translate(12.000000, 130.000000)">
                <g id="签到状态" transform="translate(10.000000, 54.000000)">
                    <g id="签到状态-完成备份-9" transform="translate(144.000000, 0.000000)">
                        <g id="编组-3" transform="translate(8.000000, 28.000000)">
                            <g id="金币" transform="translate(0.000000, 3.000000)">
                                <rect id="矩形" fill="#000000" opacity="0" x="0" y="0" width="10.8908195" height="10.8908195"></rect>
                                <path d="M1.27059562,1.52592483 C1.99665026,1.13052757 2.94959696,0.910896043 3.9933005,0.910896043 C4.99162563,0.910896043 5.8538155,1.13052757 6.57987014,1.4817565 C7.26054636,1.83328795 7.85046575,2.36028262 7.94122258,3.06274048 C7.986601,3.28237201 7.80508734,3.54586933 7.57819526,3.58973513 C7.35130319,3.63360093 7.0790327,3.45813773 7.03365428,3.2385062 C6.98827586,2.93114307 6.71600537,2.57961162 6.12608599,2.31641681 C5.58154501,2.05291948 4.81011196,1.87715376 3.94792208,1.87715376 C3.04035379,1.87715376 2.22354233,2.09678529 1.67900135,2.40414841 C1.13446037,2.62377994 0.907568291,2.97500887 0.907568291,3.282372 C0.907568291,3.54586932 1.04370354,3.85323246 1.45210927,4.11672978 C1.81513658,4.38022711 2.35967756,4.59985864 3.04035379,4.73145604 C3.26724586,4.77562437 3.44875952,4.99495337 3.4033811,5.25845069 C3.35800269,5.47808223 3.13111062,5.65384795 2.85884013,5.60998215 C2.17816391,5.47808223 1.5428661,5.25845071 1.04370354,4.95108757 C1.04370354,4.95108757 1.04370354,4.99495337 0.998325128,4.99495337 C0.952946709,5.1268533 0.907568302,5.2145849 0.907568291,5.34648483 C0.907568291,5.60967964 1.04370354,5.87347948 1.45210927,6.1808426 C1.81513658,6.44403741 2.35967756,6.66366893 3.04035379,6.79556887 C3.26724586,6.83943467 3.44875952,7.05876368 3.4033811,7.32256353 C3.35800269,7.54219506 3.13111062,7.71765825 2.85884013,7.67379246 C2.13278549,7.54219506 1.49748769,7.32256353 0.998325128,6.9713346 C0.952946709,7.0590662 0.907568302,7.1906636 0.907568291,7.322261 C0.907568291,7.62992665 1.13446036,7.93728978 1.63362293,8.24495543 C2.13278549,8.55201604 2.85884013,8.77164757 3.67565159,8.81551337 C3.90254366,8.81551337 4.08405733,9.0351449 4.08405733,9.25477642 C4.08405733,9.51827374 3.85716526,9.69403947 3.58489477,9.64987115 C2.63194806,9.60600536 1.76975817,9.34250802 1.13446037,8.94741329 C0.499162558,8.59618436 0,8.02502139 0,7.32256353 C0,7.01520039 0.0907568259,6.75170306 0.22689207,6.48820574 L0.363027314,6.35630581 C0.136135244,6.04894269 0,5.74188208 0,5.34648483 C0,5.03912169 0.0907568259,4.77562437 0.22689207,4.51212704 C0.272270488,4.42439544 0.317648896,4.38022711 0.408405733,4.33636131 C0.136135244,4.07286399 0,3.72163506 0,3.282372 C0,2.53574581 0.544540977,1.92101955 1.27059562,1.52592483 Z M10.8908195,6.00507688 C10.8908195,5.34648482 10.391657,4.81918764 9.80173758,4.51212704 C9.16643978,4.16059559 8.34962831,3.98513238 7.48743843,3.98513238 C6.62524855,3.98513238 5.80843708,4.16059559 5.17313928,4.51212704 C4.58321988,4.81949017 4.08405733,5.34648483 4.08405733,6.00507688 C4.08405733,6.31244001 4.22019257,6.61980314 4.40170623,6.83943467 C4.22019257,7.0590662 4.08405733,7.32256353 4.08405733,7.67379246 C4.08405733,8.33268704 4.58321988,8.85968169 5.17313928,9.16704482 C5.89436257,9.51669139 6.68593526,9.69694233 7.48743843,9.69407399 C8.39500672,9.69407399 9.16643978,9.51827375 9.80173758,9.16704482 C10.391657,8.85968169 10.8908195,8.33268704 10.8908195,7.67379246 C10.8908195,7.32256353 10.7546843,7.0590662 10.618549,6.83943467 C10.7546843,6.61980314 10.8908195,6.31244001 10.8908195,6.00507688 Z M9.34795343,8.42041864 C8.89416928,8.68361345 8.21349306,8.81551337 7.48743843,8.81551337 C6.76138379,8.81551337 6.08070757,8.64005016 5.62692343,8.42041864 C5.17313928,8.15692131 4.99162562,7.89342399 4.99162562,7.67379246 C4.99162562,7.58606085 4.99162562,7.54219506 5.08238245,7.45416092 C5.71768026,7.80569237 6.57987014,8.02502139 7.48743843,8.02502139 C8.39500672,8.02502139 9.2571966,7.80569238 9.89249441,7.45416092 C9.93787282,7.54189253 9.98325124,7.58606085 9.98325124,7.67379246 C9.98325124,7.89342399 9.80173758,8.15692131 9.34795343,8.42041864 Z M9.71098075,6.48820574 C9.30257502,6.83943467 8.48576356,7.1467978 7.48743843,7.1467978 C6.53449172,7.1467978 5.76305867,6.88360299 5.35465294,6.57593734 L5.30927452,6.53207153 L5.2638961,6.48820574 C5.08238244,6.31274253 4.99162562,6.13697681 4.99162562,6.00507688 C4.99162562,5.78544535 5.17313928,5.52194802 5.62692343,5.25845069 C6.08070758,4.99525589 6.7613838,4.86335597 7.48743843,4.86335597 C8.21349307,4.86335597 8.89416929,5.03881917 9.34795343,5.25845069 C9.80173758,5.52194802 9.98325124,5.78544535 9.98325124,6.00507688 C9.98325124,6.13697681 9.89249442,6.31244001 9.71098075,6.48820574 L9.71098075,6.48820574 Z" id="形状" fill="#8C8C8C"></path>
                            </g>
                        </g>
                    </g>
                </g>
            </g>
        </g>
    </g>
</svg>