<svg width="29" height="29" viewBox="0 0 29 29" fill="none" xmlns="http://www.w3.org/2000/svg">
<circle cx="14.5" cy="14.5" r="14.5" fill="#FF2323" fill-opacity="0.2"/>
<g clip-path="url(#clip0_263_12624)">
<path d="M18.7849 7.48562H20.4103C21.6343 7.48562 22.6266 8.47793 22.6266 9.702V20.0451C22.6266 21.2691 21.6343 22.2614 20.4103 22.2614H8.5896C7.36553 22.2614 6.37323 21.2691 6.37323 20.0451V9.702C6.37323 8.47793 7.36553 7.48562 8.5896 7.48562H10.2149V6.7424C10.2149 6.41598 10.4796 6.15137 10.806 6.15137C11.1324 6.15137 11.397 6.41598 11.397 6.7424V7.48562H17.6029V6.7424C17.6029 6.41598 17.8675 6.15137 18.1939 6.15137C18.5203 6.15137 18.7849 6.41598 18.7849 6.7424V7.48562ZM18.7849 8.66769V9.32817C18.7849 9.65459 18.5203 9.9192 18.1939 9.9192C17.8675 9.9192 17.6029 9.65459 17.6029 9.32817V8.66769H11.397V9.32817C11.397 9.65459 11.1324 9.9192 10.806 9.9192C10.4796 9.9192 10.2149 9.65459 10.2149 9.32817V8.66769H8.5896C8.31529 8.66769 8.05221 8.77666 7.85824 8.97063C7.66427 9.1646 7.5553 9.42768 7.5553 9.702V20.0451C7.5553 20.3194 7.66427 20.5825 7.85824 20.7764C8.05221 20.9704 8.31529 21.0794 8.5896 21.0794H20.4103C20.9815 21.0794 21.4446 20.6163 21.4446 20.0451V9.702C21.4446 9.42768 21.3356 9.1646 21.1416 8.97063C20.9477 8.77666 20.6846 8.66769 20.4103 8.66769H18.7849Z" fill="#FF4040"/>
<path d="M9.55774 16.4013L8.85763 15.6685C8.80222 15.6077 8.71763 15.5812 8.63662 15.5992C8.55561 15.6172 8.49089 15.6769 8.46751 15.7552C8.44413 15.8335 8.46576 15.9181 8.52403 15.9763L9.33715 16.8279C9.44266 16.9384 9.61828 16.9468 9.73427 16.847L12.0051 14.8941C12.0666 14.8412 12.0948 14.76 12.0789 14.6812C12.063 14.6024 12.0055 14.5379 11.9281 14.512C11.8507 14.4861 11.7651 14.5028 11.7036 14.5557L9.55774 16.4013Z" fill="#FF4040" stroke="#FF4040" stroke-width="0.5"/>
<path d="M18.0161 16.4013L17.316 15.6685C17.2606 15.6077 17.176 15.5812 17.095 15.5992C17.014 15.6172 16.9492 15.6769 16.9259 15.7552C16.9025 15.8335 16.9241 15.9181 16.9824 15.9763L17.7955 16.8279C17.901 16.9384 18.0766 16.9468 18.1926 16.847L20.4635 14.8941C20.525 14.8412 20.5531 14.76 20.5372 14.6812C20.5213 14.6024 20.4639 14.5379 20.3865 14.512C20.309 14.4861 20.2234 14.5028 20.1619 14.5557L18.0161 16.4013Z" fill="#FF4040" stroke="#FF4040" stroke-width="0.5"/>
<path d="M15.7083 14.5L13.2916 16.9167" stroke="#FF4040" stroke-width="0.8" stroke-linecap="round"/>
<path d="M13.2916 14.5L15.7083 16.9167" stroke="#FF4040" stroke-width="0.8" stroke-linecap="round"/>
</g>
<defs>
<clipPath id="clip0_263_12624">
<rect width="19.3333" height="19.3333" fill="white" transform="translate(4.83325 4.83301)"/>
</clipPath>
</defs>
</svg>
