<svg width="29" height="29" viewBox="0 0 29 29" fill="none" xmlns="http://www.w3.org/2000/svg">
<circle cx="14.5" cy="14.5" r="14.5" fill="#00B3F5" fill-opacity="0.2"/>
<g clip-path="url(#clip0_263_12607)">
<path d="M17.8245 9.05766H19.0856C20.0353 9.05766 20.8052 9.82755 20.8052 10.7773V18.8021C20.8052 19.7518 20.0353 20.5217 19.0856 20.5217H9.91439C8.96468 20.5217 8.19479 19.7518 8.19479 18.8021V10.7773C8.19479 9.82755 8.96468 9.05766 9.91439 9.05766H11.1754V8.48102C11.1754 8.22777 11.3807 8.02246 11.634 8.02246C11.8872 8.02246 12.0926 8.22777 12.0926 8.48102V9.05766H16.9074V8.48102C16.9074 8.22777 17.1127 8.02246 17.366 8.02246C17.6192 8.02246 17.8245 8.22777 17.8245 8.48102V9.05766ZM17.8245 9.97478V10.4872C17.8245 10.7405 17.6192 10.9458 17.366 10.9458C17.1127 10.9458 16.9074 10.7405 16.9074 10.4872V9.97478H12.0926V10.4872C12.0926 10.7405 11.8872 10.9458 11.634 10.9458C11.3807 10.9458 11.1754 10.7405 11.1754 10.4872V9.97478H9.91439C9.70156 9.97478 9.49745 10.0593 9.34695 10.2098C9.19646 10.3603 9.11191 10.5644 9.11191 10.7773V18.8021C9.11191 19.0149 9.19646 19.219 9.34695 19.3695C9.49745 19.52 9.70156 19.6045 9.91439 19.6045H19.0856C19.5288 19.6045 19.8881 19.2453 19.8881 18.8021V10.7773C19.8881 10.5644 19.8035 10.3603 19.653 10.2098C19.5025 10.0593 19.2984 9.97478 19.0856 9.97478H17.8245Z" fill="#00B3F5"/>
<path d="M10.6656 15.9751L10.1224 15.4066C10.0794 15.3594 10.0137 15.3388 9.95089 15.3528C9.88804 15.3668 9.83782 15.4131 9.81968 15.4739C9.80155 15.5346 9.81833 15.6003 9.86354 15.6454L10.4944 16.3062C10.5763 16.3918 10.7125 16.3984 10.8025 16.321L12.5644 14.8058C12.6121 14.7647 12.6339 14.7017 12.6216 14.6406C12.6093 14.5794 12.5647 14.5294 12.5046 14.5093C12.4446 14.4892 12.3782 14.5021 12.3304 14.5432L10.6656 15.9751Z" stroke="#00B3F5" stroke-width="0.5"/>
<path d="M13.9468 15.9751L13.4036 15.4066C13.3606 15.3594 13.295 15.3388 13.2321 15.3528C13.1693 15.3668 13.1191 15.4131 13.1009 15.4739C13.0828 15.5346 13.0996 15.6003 13.1448 15.6454L13.7757 16.3062C13.8575 16.3918 13.9938 16.3984 14.0838 16.321L15.8456 14.8058C15.8934 14.7647 15.9152 14.7017 15.9029 14.6406C15.8905 14.5794 15.8459 14.5294 15.7859 14.5093C15.7258 14.4892 15.6594 14.5021 15.6117 14.5432L13.9468 15.9751Z" fill="#00B3F5" stroke="#00B3F5" stroke-width="0.5"/>
<path d="M17.2281 15.9751L16.6849 15.4066C16.6419 15.3594 16.5762 15.3388 16.5134 15.3528C16.4505 15.3668 16.4003 15.4131 16.3822 15.4739C16.364 15.5346 16.3808 15.6003 16.426 15.6454L17.0569 16.3062C17.1388 16.3918 17.275 16.3984 17.365 16.321L19.1269 14.8058C19.1746 14.7647 19.1964 14.7017 19.1841 14.6406C19.1718 14.5794 19.1272 14.5294 19.0671 14.5093C19.0071 14.4892 18.9407 14.5021 18.8929 14.5432L17.2281 15.9751Z" fill="#00B3F5" stroke="#00B3F5" stroke-width="0.5"/>
</g>
<defs>
<clipPath id="clip0_263_12607">
<rect width="15" height="15" fill="white" transform="translate(7 7)"/>
</clipPath>
</defs>
</svg>
