<svg width="29" height="29" viewBox="0 0 29 29" fill="none" xmlns="http://www.w3.org/2000/svg">
<circle cx="14.5" cy="14.5" r="14.5" fill="#FF804C" fill-opacity="0.2"/>
<path d="M17.8246 9.05766H19.0856C20.0353 9.05766 20.8052 9.82755 20.8052 10.7773V18.8021C20.8052 19.7518 20.0353 20.5217 19.0856 20.5217H9.91441C8.9647 20.5217 8.19481 19.7518 8.19481 18.8021V10.7773C8.19481 9.82755 8.9647 9.05766 9.91441 9.05766H11.1754V8.48102C11.1754 8.22777 11.3808 8.02246 11.634 8.02246C11.8873 8.02246 12.0926 8.22777 12.0926 8.48102V9.05766H16.9074V8.48102C16.9074 8.22777 17.1127 8.02246 17.366 8.02246C17.6193 8.02246 17.8246 8.22777 17.8246 8.48102V9.05766ZM17.8246 9.97478V10.4872C17.8246 10.7405 17.6193 10.9458 17.366 10.9458C17.1127 10.9458 16.9074 10.7405 16.9074 10.4872V9.97478H12.0926V10.4872C12.0926 10.7405 11.8873 10.9458 11.634 10.9458C11.3808 10.9458 11.1754 10.7405 11.1754 10.4872V9.97478H9.91441C9.70158 9.97478 9.49746 10.0593 9.34697 10.2098C9.19648 10.3603 9.11193 10.5644 9.11193 10.7773V18.8021C9.11193 19.0149 9.19648 19.219 9.34697 19.3695C9.49746 19.52 9.70158 19.6045 9.91441 19.6045H19.0856C19.5288 19.6045 19.8881 19.2453 19.8881 18.8021V10.7773C19.8881 10.5644 19.8035 10.3603 19.653 10.2098C19.5025 10.0593 19.2984 9.97478 19.0856 9.97478H17.8246Z" fill="#FF804C"/>
<path d="M13.3708 16.0188L11.9682 14.5244C11.8572 14.4005 11.6877 14.3464 11.5254 14.3832C11.3631 14.4199 11.2334 14.5417 11.1866 14.7013C11.1398 14.861 11.1831 15.0335 11.2998 15.1521L12.9289 16.8889C13.1402 17.1141 13.4921 17.1314 13.7245 16.9279L18.274 12.9453C18.3972 12.8374 18.4536 12.6719 18.4217 12.5111C18.3899 12.3504 18.2748 12.2189 18.1197 12.1661C17.9646 12.1133 17.7931 12.1472 17.6698 12.2552L13.3708 16.0188Z" fill="#FF804C"/>
</svg>
