<svg width="15" height="12" viewBox="0 0 15 12" fill="none" xmlns="http://www.w3.org/2000/svg">
<path id="&#229;&#189;&#162;&#231;&#138;&#182;" d="M13.9284 6C13.0805 4.36086 12.017 3.13509 10.7383 2.32264C11.0791 3.04532 11.2494 3.82665 11.2494 4.66667C11.2494 5.95113 10.8826 7.05025 10.1489 7.96404C9.41525 8.87783 8.53189 9.33428 7.49889 9.33336C6.46589 9.33248 5.58254 8.87606 4.84888 7.96404C4.1152 7.05204 3.74837 5.95291 3.74837 4.66667C3.74837 3.82667 3.91876 3.04532 4.25949 2.32264C2.98146 3.13509 1.91809 4.36088 1.06939 6C1.81165 7.424 2.74211 8.5578 3.86087 9.40136C4.97959 10.2449 6.19224 10.6667 7.49886 10.6667C8.80547 10.6667 10.0181 10.2449 11.1369 9.40136C12.2557 8.5578 13.1862 7.424 13.9284 6ZM7.90076 1.99999C7.90076 1.86133 7.8618 1.74311 7.78396 1.64533C7.70609 1.54755 7.61107 1.49911 7.49893 1.49998C6.80097 1.49998 6.2023 1.81067 5.70295 2.432C5.20358 3.05333 4.95391 3.79822 4.95391 4.66667C4.95391 4.80535 4.99284 4.92354 5.07072 5.02134C5.1486 5.1191 5.24361 5.16761 5.35575 5.16672C5.46789 5.16581 5.5629 5.11731 5.64078 5.02134C5.71864 4.92534 5.75759 4.8071 5.75759 4.66667C5.75759 4.06932 5.92799 3.55912 6.26873 3.13599C6.60948 2.71286 7.01956 2.50088 7.49891 2.49998C7.61035 2.49998 7.70537 2.45154 7.78394 2.35466C7.86256 2.25776 7.90147 2.13954 7.90076 1.99999ZM15 6C15 6.23644 14.9443 6.47599 14.8328 6.71864C14.0513 8.31598 13.0008 9.59555 11.6813 10.5573C10.3618 11.5191 8.96806 12 7.49997 12C6.03192 12 4.63812 11.5173 3.31867 10.552C1.99921 9.58671 0.948704 8.30893 0.167172 6.71868C0.0557183 6.47601 0 6.23646 0 6.00002C0 5.76359 0.0557183 5.52403 0.167172 5.28136C0.948704 3.69111 1.99921 2.41333 3.3187 1.448C4.63816 0.482654 6.03194 0 7.50001 0C8.96808 0 10.3619 0.482675 11.6813 1.448C13.0008 2.41333 14.0513 3.69111 14.8329 5.28136C14.9443 5.52401 15 5.76356 15 6Z" fill="#8D8D8D"/>
</svg>
