<svg width="13" height="13" viewBox="0 0 13 13" fill="none" xmlns="http://www.w3.org/2000/svg">
<path id="&#229;&#189;&#162;&#231;&#138;&#182;" fill-rule="evenodd" clip-rule="evenodd" d="M2.50946 10.9801C1.30822 9.78012 0.762756 8.39029 0.762756 6.72501C0.762756 5.05966 1.30822 3.6759 2.50946 2.47593C3.69229 1.29428 5.10192 0.724945 6.76282 0.724945C8.4237 0.724945 9.83321 1.29428 11.0162 2.47595C12.2173 3.6759 12.7628 5.05356 12.7628 6.72501C12.7628 8.39027 12.2188 9.7754 11.0162 10.9801C9.83461 12.1633 8.4237 12.7249 6.76282 12.7249C5.10192 12.7249 3.69231 12.1618 2.50946 10.9801ZM5.87415 3.71264C5.87415 3.21066 6.27865 2.80045 6.79332 2.80045C7.2899 2.80045 7.69439 3.20454 7.69439 3.71264V6.86584C7.69439 7.36782 7.29602 7.76579 6.79332 7.76579C6.27865 7.76579 5.87415 7.36781 5.87415 6.86584V3.71264ZM5.74542 9.57194C5.74542 9.00254 6.21733 8.5311 6.7933 8.5311C7.33889 8.5311 7.82294 9.00254 7.82294 9.57194C7.82294 10.1412 7.33889 10.6128 6.7933 10.6128C6.21733 10.6128 5.74542 10.1412 5.74542 9.57194Z" fill="#000000"/>
</svg>
