<svg width="18" height="18" viewBox="0 0 18 18" fill="none" xmlns="http://www.w3.org/2000/svg">
<g id="USDT">
<g id="icon/me/USDT">
<path id="&#230;&#164;&#173;&#229;&#156;&#134;&#229;&#189;&#162;" d="M9 1C13.4183 1 17 4.58172 17 9C17 13.4183 13.4183 17 9 17C4.58172 17 1 13.4183 1 9C1 4.58172 4.58172 1 9 1Z" fill="#FB6474"/>
<path id="&#229;&#189;&#162;&#231;&#138;&#182;" d="M12.1879 6.95819V5.36365H5.65928V6.95819H8.06618V7.99995C6.10965 8.08794 4.63635 8.47362 4.63635 8.93636C4.63635 9.39911 6.10964 9.78477 8.06618 9.87277V13.2161H9.78102V9.87199C11.73 9.78267 13.1958 9.39769 13.1958 8.93635C13.1958 8.47495 11.73 8.08985 9.78102 8.00065V6.95818L12.1879 6.95819ZM12.4587 8.84216C12.4587 9.1465 11.3195 9.40178 9.78102 9.47266L9.6816 9.47687H9.67061L9.57739 9.48031H9.5673C9.49795 9.48268 9.42777 9.48471 9.3567 9.48632H9.3523L9.25697 9.4883H9.23002L9.1548 9.48931H8.6784L8.60394 9.4883H8.57808L8.48914 9.48643H8.47936C8.37394 9.48408 8.27011 9.48083 8.16782 9.47687H8.16648L8.06464 9.47247C6.51849 9.40267 5.37193 9.1465 5.37193 8.8407C5.37193 8.53484 6.51868 8.27943 8.06464 8.20886V9.17599C8.33301 9.18998 8.6185 9.19765 8.91459 9.19765C9.2154 9.19765 9.50665 9.18985 9.77955 9.17522V8.21174C11.3194 8.28243 12.4587 8.53784 12.4587 8.84216Z" fill="white"/>
</g>
</g>
</svg>
