<?xml version="1.0" encoding="UTF-8"?>
<svg width="24px" height="24px" viewBox="0 0 24 24" version="1.1" xmlns="http://www.w3.org/2000/svg" xmlns:xlink="http://www.w3.org/1999/xlink">
    <title>icon/me/currency</title>
    <g id="icon/me/currency" stroke="none" stroke-width="1" fill="none" fill-rule="evenodd">
        <path d="M20,16 C20.5522847,16 21,16.4477153 21,17 C21,19.949851 16.899702,22 12,22 C7.10029803,22 3,19.949851 3,17 C3,16.4477153 3.44771525,16 4,16 C4.55228475,16 5,16.4477153 5,17 C5,18.468427 8.06314597,20 12,20 C15.936854,20 19,18.468427 19,17 C19,16.4477153 19.4477153,16 20,16 Z" id="路径" fill="#FFFFFF" fill-rule="nonzero"></path>
        <path d="M20,11 C20.5522847,11 21,11.4477153 21,12 C21,14.949851 16.899702,17 12,17 C7.10029803,17 3,14.949851 3,12 C3,11.4477153 3.44771525,11 4,11 C4.55228475,11 5,11.4477153 5,12 C5,13.468427 8.06314597,15 12,15 C15.936854,15 19,13.468427 19,12 C19,11.4477153 19.4477153,11 20,11 Z" id="路径" fill="#FC243B" fill-rule="nonzero"></path>
        <path d="M12,2 C16.899702,2 21,4.05014902 21,7 C21,9.94985098 16.899702,12 12,12 C7.10029803,12 3,9.94985098 3,7 C3,4.05014902 7.10029803,2 12,2 Z M12,4 C8.06314597,4 5,5.53157299 5,7 C5,8.46842701 8.06314597,10 12,10 C15.936854,10 19,8.46842701 19,7 C19,5.53157299 15.936854,4 12,4 Z" id="椭圆形" fill="#FFFFFF" fill-rule="nonzero"></path>
    </g>
</svg>