<?xml version="1.0" encoding="UTF-8"?>
<svg width="24px" height="24px" viewBox="0 0 24 24" version="1.1" xmlns="http://www.w3.org/2000/svg" xmlns:xlink="http://www.w3.org/1999/xlink">
    <title>icon/USDT</title>
    <g id="icon/USDT" stroke="none" stroke-width="1" fill="none" fill-rule="evenodd">
        <rect id="矩形" x="0" y="0" width="24" height="24"></rect>
        <path d="M12,1 C18.0751322,1 23,5.92486775 23,12 C23,18.0751322 18.0751322,23 12,23 C5.92486775,23 1,18.0751322 1,12 C1,5.92486775 5.92486775,1 12,1 Z M12,3 C7.02943725,3 3,7.02943725 3,12 C3,16.9705627 7.02943725,21 12,21 C16.9705627,21 21,16.9705627 21,12 C21,7.02943725 16.9705627,3 12,3 Z" id="椭圆形" fill="#FFFFFF" fill-rule="nonzero"></path>
        <path d="M16.3833906,9.1925 L16.3833906,7 L7.40653125,7 L7.40653125,9.1925 L10.7160156,9.1925 L10.7160156,10.6249219 C8.02578125,10.7459063 6,11.2762188 6,11.9124844 C6,12.5487656 8.02576563,13.0790469 10.7160156,13.2000469 L10.7160156,17.7970938 L13.0739219,17.7970938 L13.0739219,13.1989688 C15.7537813,13.0761563 17.7692812,12.5468125 17.7692812,11.9124688 C17.7692812,11.2780469 15.7537813,10.7485313 13.0739219,10.625875 L13.0739219,9.19248438 L16.3833906,9.19248438 L16.3833906,9.1925 Z M16.75575,11.7829531 C16.75575,12.2014219 15.1893281,12.5524375 13.0739219,12.6498906 L12.9372188,12.6556875 L12.9221094,12.6556875 L12.7939219,12.6604063 L12.7800469,12.6604063 C12.6847031,12.6636719 12.5882031,12.6664687 12.4904844,12.6686719 L12.4844219,12.6686719 L12.3533438,12.6713906 L12.3162969,12.6713906 L12.2128594,12.6727812 L11.5578125,12.6727812 L11.4554375,12.6713906 L11.419875,12.6713906 L11.2975781,12.6688281 L11.2841406,12.6688281 C11.1391875,12.6655937 10.9964219,12.661125 10.8557656,12.6556875 L10.8539219,12.6556875 L10.7138906,12.649625 C8.5879375,12.5536562 7.01142187,12.2014219 7.01142187,11.7809531 C7.01142187,11.3603906 8.58820312,11.0092031 10.7138906,10.9121719 L10.7138906,12.2419687 C11.0829063,12.2612031 11.4754531,12.27175 11.8825781,12.27175 C12.2961875,12.27175 12.6966563,12.2610312 13.0718906,12.2409062 L13.0718906,10.916125 C15.1891406,11.0133281 16.75575,11.3645156 16.75575,11.7829531 L16.75575,11.7829531 Z" id="形状" fill="#FC243B" fill-rule="nonzero"></path>
    </g>
</svg>