<?xml version="1.0" encoding="UTF-8"?>
<svg width="24px" height="24px" viewBox="0 0 24 24" version="1.1" xmlns="http://www.w3.org/2000/svg" xmlns:xlink="http://www.w3.org/1999/xlink">
    <title>icon/财付通</title>
    <g id="icon/财付通" stroke="none" stroke-width="1" fill="none" fill-rule="evenodd">
        <rect id="矩形" x="0" y="0" width="24" height="24"></rect>
        <path d="M12,1 C18.0751322,1 23,5.92486775 23,12 C23,18.0751322 18.0751322,23 12,23 C5.92486775,23 1,18.0751322 1,12 C1,5.92486775 5.92486775,1 12,1 Z M12.7071068,8.46446609 C12.3165825,8.0739418 11.6834175,8.0739418 11.2928932,8.46446609 L8.46446609,11.2928932 C8.0739418,11.6834175 8.0739418,12.3165825 8.46446609,12.7071068 L11.2928932,15.5355339 C11.6834175,15.9260582 12.3165825,15.9260582 12.7071068,15.5355339 L15.5355339,12.7071068 C15.9260582,12.3165825 15.9260582,11.6834175 15.5355339,11.2928932 Z" id="形状结合" fill="#8D8D8D" fill-rule="nonzero"></path>
    </g>
</svg>