<svg width="14" height="14" viewBox="0 0 14 14" fill="none" xmlns="http://www.w3.org/2000/svg">
<g id="&#229;&#141;&#161;&#231;&#137;&#135;USTD2" clip-path="url(#clip0_183_1195)">
<g id="icon/&#229;&#141;&#161;&#231;&#137;&#135;USTD2">
<g id="icon/&#229;&#141;&#161;&#231;&#137;&#135;&#228;&#186;&#186;&#230;&#176;&#145;&#229;&#184;&#129;">
<path id="&#229;&#189;&#162;&#231;&#138;&#182;" d="M7 0C3.1396 0 0 3.1396 0 7C0 10.8588 3.1396 14 7 14C10.8604 14 14 10.8604 14 7C13.9984 3.1396 10.8588 0 7 0ZM7 13.3355C3.50547 13.3355 0.662944 10.493 0.662944 6.99844C0.662944 3.50391 3.50547 0.66138 7 0.66138C10.4945 0.66138 13.3371 3.50391 13.3371 6.99844C13.3355 10.4945 10.493 13.3355 7 13.3355Z" fill="#8D8D8D"/>
<path id="&#229;&#189;&#162;&#231;&#138;&#182;_2" d="M6.99998 1.37744C3.89478 1.37744 1.37903 3.89475 1.37903 6.99839C1.37903 10.1036 3.89634 12.6193 6.99998 12.6193C10.1036 12.6193 12.6209 10.102 12.6209 6.99839C12.6209 3.89475 10.1036 1.37744 6.99998 1.37744Z" fill="#8D8D8D"/>
</g>
<g id="USDT-(1)">
<path id="&#229;&#189;&#162;&#231;&#138;&#182;_3" d="M9.29347 5.21838V4H4.71705V5.21838H6.40423V6.01439C5.03275 6.08162 4 6.37632 4 6.72989C4 7.08348 5.03274 7.37816 6.40423 7.4454V10H7.6063V7.4448C8.97249 7.37655 10 7.08239 10 6.72988C10 6.37733 8.97249 6.08308 7.6063 6.01492V5.21837L9.29347 5.21838ZM9.4833 6.65791C9.4833 6.89046 8.68474 7.08552 7.6063 7.13967L7.53661 7.14289H7.5289L7.46355 7.14552H7.45648C7.40787 7.14733 7.35868 7.14889 7.30886 7.15011H7.30577L7.23895 7.15162H7.22006L7.16733 7.15239H6.83338L6.78119 7.15162H6.76306L6.70071 7.1502H6.69386C6.61997 7.1484 6.54718 7.14592 6.47548 7.14289L6.40315 7.13953C5.31933 7.08619 4.51562 6.89046 4.51562 6.6568C4.51562 6.42309 5.31947 6.22793 6.40315 6.17401V6.91299C6.59127 6.92368 6.7914 6.92954 6.99895 6.92954C7.20981 6.92954 7.41397 6.92358 7.60526 6.9124V6.17621C8.68464 6.23023 9.4833 6.42538 9.4833 6.65791Z" fill="white"/>
</g>
</g>
</g>
<defs>
<clipPath id="clip0_183_1195">
<rect width="14" height="14" fill="white"/>
</clipPath>
</defs>
</svg>
