<?xml version="1.0" encoding="UTF-8"?>
<svg width="14px" height="14px" viewBox="0 0 14 14" version="1.1" xmlns="http://www.w3.org/2000/svg" xmlns:xlink="http://www.w3.org/1999/xlink">
    <title>icon/卡片人民币</title>
    <g id="icon/卡片人民币" stroke="none" stroke-width="1" fill="none" fill-rule="evenodd">
        <g fill="#8D8D8D" fill-rule="nonzero" id="形状">
            <path d="M7,0 C3.13960241,0 0,3.13960241 0,7 C0,10.858834 3.13960241,14 7,14 C10.8603976,14 14,10.8603976 14,7 C13.9984365,3.13960241 10.858834,0 7,0 Z M7,13.3354925 C3.50547241,13.3354925 0.662943936,10.492964 0.662943936,6.99843645 C0.662943936,3.50390887 3.50547241,0.661380389 7,0.661380389 C10.4945276,0.661380389 13.3370561,3.50390887 13.3370561,6.99843645 C13.3354925,10.4945276 10.492964,13.3354925 7,13.3354925 Z"></path>
            <path d="M7,1.37748492 C3.89479562,1.37748492 1.37904847,3.89479562 1.37904847,6.99843645 C1.37904847,10.1036408 3.89635917,12.619388 7,12.619388 C10.1036408,12.619388 12.6209515,10.1020773 12.6209515,6.99843645 C12.6209515,3.89479562 10.1036408,1.37748492 7,1.37748492 L7,1.37748492 Z M9.42662497,6.96403842 C9.67835604,6.96403842 9.88161715,7.16729953 9.88161715,7.4190306 C9.88161715,7.67076167 9.67835604,7.87402278 9.42662497,7.87402278 L7.66450748,7.87402278 L7.63323654,7.93656466 L7.63323654,8.4963145 L9.42662497,8.4963145 C9.67835604,8.4963145 9.88161715,8.69957561 9.88161715,8.95130668 C9.88161715,9.20303775 9.67835604,9.40629886 9.42662497,9.40629886 L7.62385526,9.40629886 L7.62385526,10.6446281 C7.62385526,11.0026804 7.33459906,11.2919366 6.97654679,11.2919366 C6.61849453,11.2919366 6.32923833,11.0026804 6.32923833,10.6446281 L6.32923833,9.40629886 L4.51552379,9.40629886 C4.26379272,9.40629886 4.06053161,9.20303775 4.06053161,8.95130668 C4.06053161,8.69957561 4.26379272,8.4963145 4.51552379,8.4963145 L6.32767478,8.4963145 L6.32767478,7.93656466 L6.28702256,7.87402278 L4.51552379,7.87402278 C4.26379272,7.87402278 4.06053161,7.67076167 4.06053161,7.4190306 C4.06053161,7.16729953 4.26379272,6.96403842 4.51552379,6.96403842 L5.74916239,6.96403842 L4.16841635,4.2997543 C3.94639267,3.92606656 4.21688631,3.45387536 4.64998883,3.45387536 L4.68282332,3.45387536 C4.88139379,3.45387536 5.06432879,3.55863301 5.16595935,3.73062319 L6.96091132,6.77953987 L7.03283449,6.77953987 L8.89970963,3.72280545 C9.00134018,3.55550592 9.18271164,3.45387536 9.37815501,3.45387536 C9.81594818,3.45387536 10.0848783,3.9338843 9.85503686,4.30757203 L8.22425732,6.96560197 L9.42662497,6.96560197 L9.42662497,6.96403842 Z"></path>
        </g>
    </g>
</svg>