<svg width="18" height="18" viewBox="0 0 18 18" fill="none" xmlns="http://www.w3.org/2000/svg">
<path d="M9 0.75C13.5563 0.75 17.25 4.44365 17.25 9C17.25 13.5563 13.5563 17.25 9 17.25C4.44365 17.25 0.75 13.5563 0.75 9C0.75 4.44365 4.44365 0.75 9 0.75Z" fill="#8D8D8D"/>
<path d="M12.162 7.572H10.722L12.378 4.62H10.518L8.86203 7.79999L7.25403 4.62H5.35803L7.02603 7.572H5.58603V8.892H7.69803L7.97403 9.43199V9.924H5.56203V11.244H7.97403V13.5H9.72603V11.244H12.162V9.924H9.73803V9.408L10.014 8.892H12.162V7.572Z" fill="white"/>
</svg>
