<?xml version="1.0" encoding="UTF-8"?>
<svg width="24px" height="24px" viewBox="0 0 24 24" version="1.1" xmlns="http://www.w3.org/2000/svg" xmlns:xlink="http://www.w3.org/1999/xlink">
    <title>icon/代理注册</title>
    <g id="icon/代理注册" stroke="none" stroke-width="1" fill="none" fill-rule="evenodd">
        <path d="M12,1 C14.7614237,1 17,3.23857625 17,6 C17,8.76142375 14.7614237,11 12,11 C9.23857625,11 7,8.76142375 7,6 C7,3.23857625 9.23857625,1 12,1 Z M12,3 C10.3431458,3 9,4.34314575 9,6 C9,7.65685425 10.3431458,9 12,9 C13.6568542,9 15,7.65685425 15,6 C15,4.34314575 13.6568542,3 12,3 Z" id="椭圆形" fill="#FFFFFF" fill-rule="nonzero"></path>
        <path d="M11,12.5 C11.5522847,12.5 12,12.9477153 12,13.5 C12,14.0522847 11.5522847,14.5 11,14.5 C6.581722,14.5 3,18.081722 3,22.5 C3,23.0522847 2.55228475,23.5 2,23.5 C1.44771525,23.5 1,23.0522847 1,22.5 C1,16.9771525 5.4771525,12.5 11,12.5 Z" id="路径" fill="#FFFFFF" fill-rule="nonzero"></path>
        <path d="M20.5857864,13.1582355 L22.7071068,15.2795558 C22.8972773,15.4697264 22.994842,15.7174348 22.9998009,15.9666437 C22.9998151,15.9775981 23,15.9887775 23,16 L22.9989465,16.0326955 C22.9985478,16.0414005 22.998036,16.0501012 22.9974111,16.0587954 L23,16 C23,16.5522847 22.5522847,17 22,17 L15,17 C14.4477153,17 14,16.5522847 14,16 C14,15.4477153 14.4477153,15 15,15 L19.598,14.9993422 L19.1715729,14.572449 C18.7810486,14.1819247 18.7810486,13.5487597 19.1715729,13.1582355 C19.5620972,12.7677112 20.1952621,12.7677112 20.5857864,13.1582355 Z" id="形状结合" fill="#FC243B"></path>
        <path d="M20.5857864,19.1582355 L22.7071068,21.2795558 C22.8972773,21.4697264 22.994842,21.7174348 22.9998009,21.9666437 C22.9998151,21.9775981 23,21.9887775 23,22 L22.9989465,22.0326955 C22.9985478,22.0414005 22.998036,22.0501012 22.9974111,22.0587954 L23,22 C23,22.5522847 22.5522847,23 22,23 L15,23 C14.4477153,23 14,22.5522847 14,22 C14,21.4477153 14.4477153,21 15,21 L19.598,20.9993422 L19.1715729,20.572449 C18.7810486,20.1819247 18.7810486,19.5487597 19.1715729,19.1582355 C19.5620972,18.7677112 20.1952621,18.7677112 20.5857864,19.1582355 Z" id="形状结合备份-2" fill="#FC243B" transform="translate(18.500000, 20.932671) scale(-1, -1) translate(-18.500000, -20.932671) "></path>
    </g>
</svg>