<?xml version="1.0" encoding="UTF-8"?>
<svg width="24px" height="24px" viewBox="0 0 24 24" version="1.1" xmlns="http://www.w3.org/2000/svg" xmlns:xlink="http://www.w3.org/1999/xlink">
    <title>icon/兑换</title>
    <g id="icon/兑换" stroke="none" stroke-width="1" fill="none" fill-rule="evenodd">
        <rect id="矩形" x="0" y="0" width="24" height="24"></rect>
        <path d="M12,1 C18.0751322,1 23,5.92486775 23,12 C23,18.0751322 18.0751322,23 12,23 C5.92486775,23 1,18.0751322 1,12 C1,5.92486775 5.92486775,1 12,1 Z M12,3 C7.02943725,3 3,7.02943725 3,12 C3,16.9705627 7.02943725,21 12,21 C16.9705627,21 21,16.9705627 21,12 C21,7.02943725 16.9705627,3 12,3 Z" id="椭圆形" fill="#FFFFFF" fill-rule="nonzero"></path>
        <path d="M14.5857864,7.15823545 L16.7071068,9.27955579 C16.8972773,9.46972636 16.994842,9.71743484 16.9998009,9.96664365 C16.9998151,9.97759811 17,9.98877747 17,10 L16.9989465,10.0326955 C16.9985478,10.0414005 16.998036,10.0501012 16.9974111,10.0587954 L17,10 C17,10.5522847 16.5522847,11 16,11 L8,11 C7.44771525,11 7,10.5522847 7,10 C7,9.44771525 7.44771525,9 8,9 L13.598,8.99934223 L13.1715729,8.57244901 C12.7810486,8.18192472 12.7810486,7.54875974 13.1715729,7.15823545 C13.5620972,6.76771116 14.1952621,6.76771116 14.5857864,7.15823545 Z" id="形状结合" fill="#FC243B"></path>
        <path d="M14.5857864,13.1582355 L16.7071068,15.2795558 C16.8972773,15.4697264 16.994842,15.7174348 16.9998009,15.9666437 C16.9998151,15.9775981 17,15.9887775 17,16 L16.9989465,16.0326955 C16.9985478,16.0414005 16.998036,16.0501012 16.9974111,16.0587954 L17,16 C17,16.5522847 16.5522847,17 16,17 L8,17 C7.44771525,17 7,16.5522847 7,16 C7,15.4477153 7.44771525,15 8,15 L13.598,14.9993422 L13.1715729,14.572449 C12.7810486,14.1819247 12.7810486,13.5487597 13.1715729,13.1582355 C13.5620972,12.7677112 14.1952621,12.7677112 14.5857864,13.1582355 Z" id="形状结合备份-2" fill="#FC243B" transform="translate(12.000000, 14.932671) scale(-1, -1) translate(-12.000000, -14.932671) "></path>
    </g>
</svg>