<?xml version="1.0" encoding="UTF-8"?>
<svg width="24px" height="24px" viewBox="0 0 24 24" version="1.1" xmlns="http://www.w3.org/2000/svg" xmlns:xlink="http://www.w3.org/1999/xlink">
    <title>icon/清除</title>
    <g id="icon/清除" stroke="none" stroke-width="1" fill="none" fill-rule="evenodd">
        <rect id="矩形" x="0" y="0" width="24" height="24"></rect>
        <path d="M19.5786228,4.0824295 L14.3679342,4.0824295 C14.3679342,2.93275488 13.307297,2 12,2 C10.692703,2 9.63206578,2.93275488 9.63206578,4.0824295 L4.42137718,4.0824295 C3.63514902,4.0824295 3,4.64099783 3,5.3324295 C3,6.02386117 3.63514902,6.5824295 4.42137718,6.5824295 L5.24460432,20.0287419 C5.31551901,21.132321 6.35457348,22 7.61253854,22 L16.3874615,22 C17.6485098,22 18.684481,21.132321 18.7553957,20.0287419 L19.5786228,6.5824295 C20.364851,6.5824295 21,6.02386117 21,5.3324295 C21,4.64099783 20.364851,4.0824295 19.5786228,4.0824295 L19.5786228,4.0824295 Z M10.5755396,17.8324295 C10.5755396,18.2906725 10.1500514,18.664859 9.62898253,18.664859 C9.10791367,18.664859 8.68242549,18.2906725 8.68242549,17.8324295 L8.68242549,9.5 C8.68242549,9.04175705 9.10791367,8.6675705 9.62898253,8.6675705 C10.1500514,8.6675705 10.5755396,9.04175705 10.5755396,9.5 L10.5755396,17.8324295 Z M15.3144913,17.8324295 C15.3144913,18.2906725 14.8890031,18.664859 14.3679342,18.664859 C13.8468654,18.664859 13.4213772,18.2906725 13.4213772,17.8324295 L13.4213772,9.5 C13.4213772,9.04175705 13.8468654,8.6675705 14.3679342,8.6675705 C14.8890031,8.6675705 15.3144913,9.04175705 15.3144913,9.5 L15.3144913,17.8324295 Z" id="形状" fill="#A4AAB8" fill-rule="nonzero"></path>
    </g>
</svg>