<?xml version="1.0" encoding="UTF-8"?>
<svg width="22px" height="22px" viewBox="0 0 22 22" version="1.1" xmlns="http://www.w3.org/2000/svg" xmlns:xlink="http://www.w3.org/1999/xlink">
    <title>icon/个人中心</title>
    <g id="页面调整" stroke="none" stroke-width="1" fill="none" fill-rule="evenodd">
        <g id="1-3" transform="translate(-182.000000, -352.000000)" fill-rule="nonzero">
            <g id="编组-7" transform="translate(15.000000, 334.308177)">
                <g id="编组-4" transform="translate(139.000000, 0.000000)">
                    <g id="编组-33" transform="translate(10.000000, 16.691823)">
                        <g id="icon/个人中心" transform="translate(18.000000, 1.000000)">
                            <path d="M11,0 C13.209139,0 15,1.790861 15,4 L15,6 C15,8.209139 13.209139,10 11,10 C8.790861,10 7,8.209139 7,6 L7,4 C7,1.790861 8.790861,0 11,0 Z M11,2 C9.8954305,2 9,2.8954305 9,4 L9,6 C9,7.1045695 9.8954305,8 11,8 C12.1045695,8 13,7.1045695 13,6 L13,4 C13,2.8954305 12.1045695,2 11,2 Z" id="矩形" fill="#FC243B"></path>
                            <path d="M11,11 C17.0127308,11 22,13.2442711 22,16.5 C22,19.7557289 17.0127308,22 11,22 C4.98726921,22 0,19.7557289 0,16.5 C0,13.2442711 4.98726921,11 11,11 Z M11,13 C5.96703579,13 2,14.7851661 2,16.5 C2,18.2148339 5.96703579,20 11,20 C16.0329642,20 20,18.2148339 20,16.5 C20,14.7851661 16.0329642,13 11,13 Z" id="椭圆形" fill="#FFFFFF"></path>
                        </g>
                    </g>
                </g>
            </g>
        </g>
    </g>
</svg>