<?xml version="1.0" encoding="UTF-8"?>
<svg width="24px" height="24px" viewBox="0 0 24 24" version="1.1" xmlns="http://www.w3.org/2000/svg" xmlns:xlink="http://www.w3.org/1999/xlink">
    <title>icon/联系我们@1x</title>
    <g id="icon/联系我们" stroke="none" stroke-width="1" fill="none" fill-rule="evenodd">
        <rect id="矩形" x="0" y="0" width="24" height="24"></rect>
        <path d="M1.11311544,7.45467556 C1.36826608,6.96486275 1.97217829,6.77463147 2.4619911,7.02978211 L11.994,11.9956667 L17.3970515,9.11743579 C17.849662,8.87630454 18.4042096,9.01827316 18.6890356,9.4300458 L18.7498076,9.52980811 C19.0094874,10.0172349 18.824862,10.6228844 18.3374353,10.8825642 L12.4701919,14.0083768 L12.0052384,14.2560838 L11.5380089,14.0126971 L1.5380089,8.80355122 C1.04819608,8.54840058 0.8579648,7.94448838 1.11311544,7.45467556 Z" id="路径-3" fill="#FC243B" fill-rule="nonzero"></path>
        <path d="M20,3 C21.6568542,3 23,4.34314575 23,6 L23,18 C23,19.6568542 21.6568542,21 20,21 L4,21 C2.34314575,21 1,19.6568542 1,18 L1,6 C1,4.34314575 2.34314575,3 4,3 L20,3 Z M20,5 L4,5 C3.44771525,5 3,5.44771525 3,6 L3,18 C3,18.5522847 3.44771525,19 4,19 L20,19 C20.5522847,19 21,18.5522847 21,18 L21,6 C21,5.44771525 20.5522847,5 20,5 Z" id="矩形" fill="#FFFFFF" fill-rule="nonzero"></path>
    </g>
</svg>