<?xml version="1.0" encoding="UTF-8"?>
<svg width="24px" height="24px" viewBox="0 0 24 24" version="1.1" xmlns="http://www.w3.org/2000/svg" xmlns:xlink="http://www.w3.org/1999/xlink">
    <title>icon/红包</title>
    <g id="icon/红包" stroke="none" stroke-width="1" fill="none" fill-rule="evenodd">
        <rect id="矩形" x="0" y="0" width="24" height="24"></rect>
        <path d="M19,0.945031012 C20.6568542,0.945031012 22,2.28817676 22,3.94503101 L22,19.945031 C22,21.6018853 20.6568542,22.945031 19,22.945031 L5,22.945031 C3.34314575,22.945031 2,21.6018853 2,19.945031 L2,3.94503101 C2,2.28817676 3.34314575,0.945031012 5,0.945031012 L19,0.945031012 Z M19,2.94503101 L5,2.94503101 C4.44771525,2.94503101 4,3.39274626 4,3.94503101 L4,19.945031 C4,20.4973158 4.44771525,20.945031 5,20.945031 L19,20.945031 C19.5522847,20.945031 20,20.4973158 20,19.945031 L20,3.94503101 C20,3.39274626 19.5522847,2.94503101 19,2.94503101 Z" id="矩形" fill="#FFFFFF" fill-rule="nonzero"></path>
        <path d="M21,2.54411765 C21.5522847,2.54411765 22,2.9918329 22,3.54411765 C22,7.51584893 17.4575969,10.5441176 12,10.5441176 C6.54240307,10.5441176 2,7.51584893 2,3.54411765 C2,2.9918329 2.44771525,2.54411765 3,2.54411765 C3.55228475,2.54411765 4,2.9918329 4,3.54411765 C4,6.19980336 7.51647144,8.54411765 12,8.54411765 C16.4835286,8.54411765 20,6.19980336 20,3.54411765 C20,2.9918329 20.4477153,2.54411765 21,2.54411765 Z" id="路径" fill="#FFFFFF" fill-rule="nonzero"></path>
        <rect id="矩形" fill="#FC243B" transform="translate(11.828427, 15.828427) rotate(45.000000) translate(-11.828427, -15.828427) " x="9.82842712" y="13.8284271" width="4" height="4"></rect>
    </g>
</svg>