<?xml version="1.0" encoding="UTF-8"?>
<svg width="24px" height="24px" viewBox="0 0 24 24" version="1.1" xmlns="http://www.w3.org/2000/svg" xmlns:xlink="http://www.w3.org/1999/xlink">
    <title>icon/me/?@1x</title>
    <g id="icon/me/?" stroke="none" stroke-width="1" fill="none" fill-rule="evenodd">
        <rect id="矩形" x="0" y="0" width="24" height="24"></rect>
        <path d="M12,1 C18.0751322,1 23,5.92486775 23,12 C23,18.0751322 18.0751322,23 12,23 C5.92486775,23 1,18.0751322 1,12 C1,5.92486775 5.92486775,1 12,1 Z M12,3 C7.02943725,3 3,7.02943725 3,12 C3,16.9705627 7.02943725,21 12,21 C16.9705627,21 21,16.9705627 21,12 C21,7.02943725 16.9705627,3 12,3 Z" id="椭圆形" fill="#FFFFFF" fill-rule="nonzero"></path>
        <path d="M14.6171875,9.15625 C14.6171875,9.69791667 14.4296875,10.28125 14.0546875,10.90625 C13.2213542,12.2916667 12.8046875,13.0208333 12.8046875,13.09375 L12.8046875,13.984375 L10.9453125,13.984375 L10.9453125,12.359375 C10.9453125,11.890625 11.1822917,11.296875 11.65625,10.578125 C12.1302083,9.859375 12.3671875,9.328125 12.3671875,8.984375 L12.3671875,8.53125 C12.3671875,8.36458333 12.34375,8.24739583 12.296875,8.1796875 C12.25,8.11197917 12.1328125,8.078125 11.9453125,8.078125 C11.7682292,8.078125 11.6458333,8.13020833 11.578125,8.234375 C11.5104167,8.33854167 11.4765625,8.546875 11.4765625,8.859375 L11.4765625,9.390625 L9.3046875,9.390625 L9.3046875,8.09375 C9.3046875,7.52083333 9.54947917,7.04166667 10.0390625,6.65625 C10.5286458,6.27083333 11.1744792,6.078125 11.9765625,6.078125 C12.9244792,6.078125 13.6276042,6.32291667 14.0859375,6.8125 C14.4401042,7.1875 14.6171875,7.65104167 14.6171875,8.203125 L14.6171875,9.15625 Z M13.1171875,17 L10.6171875,17 L10.6171875,14.859375 L13.1171875,14.859375 L13.1171875,17 Z" id="形状" fill="#FC243B" fill-rule="nonzero"></path>
    </g>
</svg>