<?xml version="1.0" encoding="UTF-8"?>
<svg width="28px" height="28px" viewBox="0 0 28 28" version="1.1" xmlns="http://www.w3.org/2000/svg" xmlns:xlink="http://www.w3.org/1999/xlink">
    <title>icon/投注记录</title>
    <g id="icon/投注记录" stroke="none" stroke-width="1" fill="none" fill-rule="evenodd">
        <rect id="矩形" x="0" y="0" width="28" height="28"></rect>
        <path d="M14,1 C21.1882353,1 27,6.81176471 27,14 C27,21.1882353 21.1882353,27 14,27 C6.81176471,27 1,21.1882353 1,14 C1,6.81176471 6.81176471,1 14,1 Z M15.0705882,3.37058824 L15.0705882,4.9 C15.0705882,5.51176471 14.5352941,6.04705882 13.9235294,6.04705882 C13.3117647,6.04705882 12.7764706,5.51176471 12.7764706,4.9 L12.7764706,3.37058824 C7.80588235,3.90588235 3.82941176,7.95882353 3.37058824,12.9294118 L4.74705882,12.9294118 C5.35882353,12.9294118 5.89411765,13.4647059 5.89411765,14.0764706 C5.89411765,14.6882353 5.35882353,15.2235294 4.74705882,15.2235294 L3.37058824,15.2235294 C3.90588235,20.1176471 7.88235294,24.0941176 12.7764706,24.6294118 L12.7764706,23.2529412 C12.7764706,22.6411765 13.3117647,22.1058824 13.9235294,22.1058824 C14.5352941,22.1058824 15.0705882,22.5647059 15.0705882,23.2529412 L15.0705882,24.6294118 C20.0411765,24.1705882 24.0941176,20.1941176 24.6294118,15.2235294 L23.1,15.2235294 C22.4882353,15.2235294 21.9529412,14.6882353 21.9529412,14.0764706 C21.9529412,13.3882353 22.4117647,12.9294118 23.1,12.9294118 L24.6294118,12.9294118 C24.1705882,7.88235294 20.1176471,3.90588235 15.0705882,3.37058824 Z" id="形状结合" fill="#FFFFFF" fill-rule="nonzero"></path>
        <path d="M13.0466667,8.97264957 C12.7533333,9.51509972 10.3333333,14.0096866 10.3333333,15.7920228 C10.3333333,17.8843305 12.02,19.6666667 14,19.6666667 C15.98,19.6666667 17.6666667,17.8843305 17.6666667,15.7920228 C17.6666667,14.2421652 15.6133333,10.1350427 14.9533333,8.97264957 C14.5133333,8.12022792 13.4866667,8.12022792 13.0466667,8.97264957 Z M14,17.3418803 C13.1933333,17.3418803 12.5333333,16.6444444 12.5333333,15.7920228 C12.5333333,15.2495726 13.1933333,13.6222222 14,11.9948718 C14.8066667,13.6997151 15.4666667,15.3270655 15.4666667,15.7920228 C15.4666667,16.6444444 14.8066667,17.3418803 14,17.3418803 Z" id="形状" fill="#FC243B" fill-rule="nonzero"></path>
    </g>
</svg>