<svg id="其他数字币" xmlns="http://www.w3.org/2000/svg" width="48" height="49" viewBox="0 0 48 49">
  <rect id="矩形_6" data-name="矩形 6" width="48" height="49" fill="none"/>
  <path id="减去_1" data-name="减去 1" d="M22,44A22,22,0,0,1,6.444,6.444,22,22,0,1,1,37.556,37.556,21.856,21.856,0,0,1,22,44Zm.058-35.416a13.305,13.305,0,0,0-5.186,1.052A12.654,12.654,0,0,0,9.637,16.87,13.349,13.349,0,0,0,25.094,35.038a13.124,13.124,0,0,0,9.945-9.929A13.37,13.37,0,0,0,22.058,8.584Zm-.118,23.5h0a10.039,10.039,0,0,1-4.323-.975,9.015,9.015,0,0,1-4.658-4.66A10.125,10.125,0,0,1,26.435,12.955a9,9,0,0,1,4.66,4.676A10.119,10.119,0,0,1,21.94,32.083ZM22,15.33a6.718,6.718,0,0,0-4.064,1.357,5.866,5.866,0,0,0-1.994,2.5,6.78,6.78,0,0,0-.641,2.893A6.7,6.7,0,0,0,21.981,28.7h.111a6.679,6.679,0,0,0,4.374-1.645l.045-.047a1.666,1.666,0,0,0,.519-1.17,1.65,1.65,0,0,0-.457-1.19,1.68,1.68,0,0,0-2.36-.122,3.339,3.339,0,0,1-4.707-4.72,3.39,3.39,0,0,1,2.515-1.123,3.341,3.341,0,0,1,2.207.833,1.68,1.68,0,0,0,2.36-.122l.016-.014a1.666,1.666,0,0,0-.122-2.362A6.77,6.77,0,0,0,22,15.33Z" transform="translate(2 3)" fill="#58688d"/>
</svg>
