<?xml version="1.0" encoding="UTF-8"?>
<svg width="50px" height="50px" viewBox="0 0 50 50" version="1.1" xmlns="http://www.w3.org/2000/svg" xmlns:xlink="http://www.w3.org/1999/xlink">
    <title>icon/返回上一级@1x</title>
    <defs>
        <circle id="path-1" cx="21" cy="21" r="21"></circle>
        <filter x="-16.7%" y="-11.9%" width="133.3%" height="133.3%" filterUnits="objectBoundingBox" id="filter-2">
            <feOffset dx="0" dy="2" in="SourceAlpha" result="shadowOffsetOuter1"></feOffset>
            <feGaussianBlur stdDeviation="2" in="shadowOffsetOuter1" result="shadowBlurOuter1"></feGaussianBlur>
            <feColorMatrix values="0 0 0 0 0   0 0 0 0 0   0 0 0 0 0  0 0 0 0.372609812 0" type="matrix" in="shadowBlurOuter1"></feColorMatrix>
        </filter>
    </defs>
    <g id="页面调整" stroke="none" stroke-width="1" fill="none" fill-rule="evenodd">
        <g id="展开" transform="translate(-314, -602)">
            <g id="icon/返回上一级" transform="translate(318, 604)">
                <g id="椭圆形备份-2">
                    <use fill="black" fill-opacity="1" filter="url(#filter-2)" xlink:href="#path-1"></use>
                    <use fill="#FFFFFF" fill-rule="evenodd" xlink:href="#path-1"></use>
                </g>
                <g transform="translate(9, 9)">
                    <rect id="矩形" x="0" y="0" width="24" height="24"></rect>
                    <g id="icon/返回" transform="translate(2, 2)" fill="#1A1A1A" fill-rule="nonzero">
                        <path d="M19.2220023,10.7722925 C18.709313,10.6791066 18.2182837,11.0230783 18.126723,11.537422 C17.5673336,14.6765322 15.2189695,17.2264181 12.1437532,18.0337601 C7.78151358,19.1813851 3.30067272,16.5550969 2.15620994,12.1804092 C1.01268991,7.80479921 3.632517,3.31209595 7.99613625,2.16539312 C10.1097352,1.60992039 12.3125955,1.91276301 14.1991092,3.01879788 C16.085623,4.12453304 17.4296476,5.90064405 17.9836795,8.0198276 C18.115663,8.52524923 18.6309506,8.82763075 19.1361211,8.69529848 C19.6403717,8.5628279 19.9420944,8.04553325 19.8098119,7.53981191 C19.1279583,4.9315523 17.4737494,2.74564932 15.1521269,1.38451751 C12.8302055,0.0236854031 10.1186338,-0.349865042 7.51740853,0.334389568 C2.14685154,1.74564167 -1.07740953,7.27503216 0.330077557,12.6604018 C1.5147792,17.1899229 5.60507297,20.1960784 10.070715,20.1960784 C10.9134092,20.1960784 11.7698075,20.0890138 12.622182,19.8648789 C16.4065913,18.8713034 19.2968237,15.7332767 19.9851155,11.8704658 C20.0768371,11.3558224 19.7351516,10.8642565 19.2220023,10.7722925 Z" id="路径"></path>
                        <path d="M15.6862745,10.1963787 C15.6862745,9.67268413 15.2634887,9.24806443 14.7416962,9.24806443 L8.32397994,9.24778722 L11.0402782,6.5207455 C11.4092466,6.15045641 11.4092466,5.55004754 11.0402782,5.17978155 C10.671609,4.80935386 10.0732664,4.80935386 9.70459712,5.17978155 L5.3854631,9.5160216 C5.38201179,9.51937106 5.37793924,9.52156553 5.37455696,9.52498431 C5.14382518,9.75662868 5.05751936,10.0783852 5.11552443,10.377527 C5.15003755,10.5570583 5.23650445,10.7284816 5.37501713,10.867496 C5.37683482,10.8693439 5.37906667,10.8704989 5.38090736,10.8723469 L9.70459707,15.2125139 C9.88908125,15.3975661 10.1307652,15.4901961 10.3724491,15.4901961 C10.6141331,15.4901961 10.855955,15.3975891 11.0404392,15.2123753 C11.4092695,14.8420862 11.4092695,14.2415387 11.0402782,13.8712497 L8.32384186,11.1444158 L14.7417192,11.144693 C15.2633506,11.144693 15.6862745,10.7200733 15.6862745,10.1963787 Z" id="路径"></path>
                    </g>
                </g>
            </g>
        </g>
    </g>
</svg>