<?xml version="1.0" encoding="UTF-8"?>
<svg width="10px" height="10.0469761px" viewBox="0 0 10 10.0469761" version="1.1" xmlns="http://www.w3.org/2000/svg" xmlns:xlink="http://www.w3.org/1999/xlink">
    <title>icon/切换</title>
    <g id="页面调整" stroke="none" stroke-width="1" fill="none" fill-rule="evenodd">
        <g id="1-3" transform="translate(-197.000000, -311.976512)" fill="#FFFFFF">
            <g id="编组-6" transform="translate(15.000000, 290.000000)">
                <g id="编组-5" transform="translate(161.000000, 22.000000)">
                    <g id="icon/切换" transform="translate(21.000000, -0.023488)">
                        <path d="M7.56699598,0.289001588 L9.61004691,2.33062998 C9.84701551,2.51085366 10,2.79580915 10,3.11649608 C10,3.21471744 9.98564852,3.30958682 9.95892811,3.39912168 C9.95544552,3.40798613 9.9527382,3.41696858 9.94990015,3.42591855 C9.94405758,3.44548175 9.93697083,3.46486997 9.92930444,3.48396302 C9.88136139,3.60808815 9.80724593,3.72439634 9.70710678,3.82453549 C9.48147601,4.05016627 9.17375845,4.14368034 8.88008492,4.10507773 L0.986713141,4.10320922 C0.441766521,4.10320922 6.67367134e-17,3.6614427 0,3.11649608 C-6.67367134e-17,2.57154946 0.441766521,2.12978294 0.986713141,2.12978294 L6.616,2.129 L6.17157288,1.68442469 C5.78623742,1.29908924 5.78623742,0.674337039 6.17157288,0.289001588 C6.55690833,-0.0963338626 7.18166053,-0.0963338626 7.56699598,0.289001588 Z" id="形状结合"></path>
                        <path d="M7.56699598,6.22244065 L9.61004691,8.26406904 C9.84701551,8.44429272 10,8.72924821 10,9.04993514 C10,9.14815649 9.98564852,9.24302588 9.95892811,9.33256074 C9.95544552,9.34142519 9.9527382,9.35040764 9.94990015,9.35935761 C9.94405758,9.37892081 9.93697083,9.39830903 9.92930444,9.41740207 C9.88136139,9.5415272 9.80724593,9.6578354 9.70710678,9.75797455 C9.48147601,9.98360532 9.17375845,10.0771194 8.88008492,10.0385168 L0.986713141,10.0366483 C0.441766521,10.0366483 6.67367134e-17,9.59488176 0,9.04993514 C1.75268201e-16,8.50498852 0.441766521,8.063222 0.986713141,8.063222 L6.616,8.06243906 L6.17157288,7.61786375 C5.78623742,7.2325283 5.78623742,6.6077761 6.17157288,6.22244065 C6.55690833,5.8371052 7.18166053,5.8371052 7.56699598,6.22244065 Z" id="形状结合备份-2" transform="translate(5.000000, 7.990208) scale(-1, -1) translate(-5.000000, -7.990208) "></path>
                    </g>
                </g>
            </g>
        </g>
    </g>
</svg>