<?xml version="1.0" encoding="UTF-8"?>
<svg width="22px" height="19.3146303px" viewBox="0 0 22 19.3146303" version="1.1" xmlns="http://www.w3.org/2000/svg" xmlns:xlink="http://www.w3.org/1999/xlink">
    <title>icon/提现</title>
    <g id="页面调整" stroke="none" stroke-width="1" fill="none" fill-rule="evenodd">
        <g id="1-3" transform="translate(-290.000000, -289.647581)">
            <g id="编组-3" transform="translate(242.000000, 287.000000)">
                <g id="icon/提现" transform="translate(47.000000, 0.000000)">
                    <rect id="矩形" x="0" y="0" width="24" height="24"></rect>
                    <g id="编组-4" transform="translate(2.000000, 4.000000)" stroke="#FFFFFF" stroke-width="2">
                        <g id="编组-4">
                            <path d="M17.1428571,4.58432345 C17.9318354,4.58432345 18.5714286,5.22391667 18.5714286,6.01289488 L18.5714286,15.5336398 C18.5714286,16.322618 17.9318354,16.9622112 17.1428571,16.9622112 L1.42857143,16.9622112 C0.639593215,16.9622112 0,16.322618 0,15.5336398 L0,2.67649689" id="路径"></path>
                            <path d="M13.6787103,1.94159131 C13.6787103,2.84446576 13.6787103,4.19877743 13.6787103,6.00452633 C13.6787103,6.52205303 13.1838485,6.94159131 12.5734056,6.94159131 C8.83165737,6.94159131 6.33124484,7.01171408 4.14319621,7.01171408" id="路径" transform="translate(8.910953, 4.476653) scale(1, -1) rotate(28.000000) translate(-8.910953, -4.476653) "></path>
                            <path d="M17.1428571,4.5812588 L1.41369048,4.5812588 C0.632930785,4.5812588 0,3.83506671 0,2.91459213 C0,1.99411755 0.632930785,1.24792546 1.41369048,1.24792546 L3.99176711,1.24792546" id="路径" stroke-linecap="round"></path>
                            <path d="M18.2142857,2.67649689 C18.2142857,1.88751868 19.0137772,1.24792546 20,1.24792546" id="路径" stroke-linecap="round" transform="translate(19.107143, 1.962211) scale(-1, 1) translate(-19.107143, -1.962211) "></path>
                        </g>
                    </g>
                </g>
            </g>
        </g>
    </g>
</svg>