<?xml version="1.0" encoding="UTF-8"?>
<svg width="24px" height="24px" viewBox="0 0 24 24" version="1.1" xmlns="http://www.w3.org/2000/svg" xmlns:xlink="http://www.w3.org/1999/xlink">
    <title>icon/更多</title>
    <g id="icon/更多" stroke="none" stroke-width="1" fill="none" fill-rule="evenodd">
        <rect id="矩形" x="0" y="0" width="24" height="24"></rect>
        <path d="M5.6,13.2 C6.4836556,13.2 7.2,12.4836556 7.2,11.6 C7.2,10.7163444 6.4836556,10 5.6,10 C4.7163444,10 4,10.7163444 4,11.6 C4,12.4836556 4.7163444,13.2 5.6,13.2 Z M12,13.2 C12.8836556,13.2 13.6,12.4836556 13.6,11.6 C13.6,10.7163444 12.8836556,10 12,10 C11.1163444,10 10.4,10.7163444 10.4,11.6 C10.4,12.4836556 11.1163444,13.2 12,13.2 Z M18.4,13.2 C19.2836556,13.2 20,12.4836556 20,11.6 C20,10.7163444 19.2836556,10 18.4,10 C17.5163444,10 16.8,10.7163444 16.8,11.6 C16.8,12.4836556 17.5163444,13.2 18.4,13.2 Z" id="形状结合" fill="#FFFFFF"></path>
    </g>
</svg>