<svg width="24" height="24" viewBox="0 0 24 24" fill="none" xmlns="http://www.w3.org/2000/svg">
<circle cx="12" cy="6" r="4" stroke="#091722" stroke-width="2" stroke-linecap="round"/>
<path d="M11 13.5C6.02944 13.5 2 17.5294 2 22.5" stroke="#091722" stroke-width="2" stroke-linecap="round"/>
<path fill-rule="evenodd" clip-rule="evenodd" d="M20.5858 13.1581C20.1953 12.7676 19.5621 12.7676 19.1716 13.1581C18.781 13.5487 18.781 14.1818 19.1716 14.5723L19.5991 14.9999H15C14.4477 14.9999 14 15.4476 14 15.9999C14 16.5522 14.4477 16.9999 15 16.9999H22C22.5523 16.9999 23 16.5522 23 15.9999C23 15.9977 23 15.9954 23 15.9932C23.0017 15.7351 22.9041 15.4764 22.7071 15.2794L20.5858 13.1581Z" fill="#FC243B"/>
<path fill-rule="evenodd" clip-rule="evenodd" d="M16.4142 22.7071C16.8047 23.0976 17.4379 23.0976 17.8284 22.7071C18.219 22.3166 18.219 21.6834 17.8284 21.2929L17.4009 20.8653H22C22.5523 20.8653 23 20.4176 23 19.8653C23 19.3131 22.5523 18.8653 22 18.8653H15C14.4477 18.8653 14 19.3131 14 19.8653C14 19.8676 14 19.8698 14 19.872C13.9983 20.1302 14.0959 20.3888 14.2929 20.5858L16.4142 22.7071Z" fill="#FC243B"/>
</svg>
