<?xml version="1.0" encoding="UTF-8"?>
<svg width="24px" height="24px" viewBox="0 0 24 24" version="1.1" xmlns="http://www.w3.org/2000/svg" xmlns:xlink="http://www.w3.org/1999/xlink">
    <title>icon/走势</title>
    <g id="icon/走势" stroke="none" stroke-width="1" fill="none" fill-rule="evenodd">
        <rect id="矩形" x="0" y="0" width="24" height="24"></rect>
        <g id="彩友多_我的-走势图" transform="translate(2.000000, 2.000000)" fill-rule="nonzero">
            <path d="M1.13422916,11.3610705 C0.584231439,11.3610705 0.134229163,11.8110728 0.134229163,12.3610705 L0.134229163,18.4211062 C0.134229163,18.971109 0.584231439,19.4211113 1.13422916,19.4211113 C1.68423702,19.4211113 2.1342393,18.971109 2.1342393,18.4211062 L2.1342393,12.3610705 C2.1342393,11.8110728 1.68423702,11.3610705 1.13422916,11.3610705 L1.13422916,11.3610705 Z M5.47425113,8.36605533 C4.92425339,8.36605533 4.47425113,8.81605761 4.47425113,9.36605533 L4.47425113,18.6311073 C4.47425113,19.1811101 4.92425341,19.6311123 5.47425113,19.6311123 C6.02425894,19.6311123 6.47426124,19.18111 6.47426124,18.6311073 L6.47426124,9.36605533 C6.47426124,8.81377285 6.02654372,8.36605533 5.47425113,8.36605533 L5.47425113,8.36605533 Z M14.1592951,10.2910651 C13.6092973,10.2910651 13.1592951,10.7410674 13.1592951,11.2910651 L13.1592951,18.6311073 C13.1592951,19.1811101 13.6092973,19.6311123 14.1592951,19.6311123 C14.7093029,19.6311123 15.1593052,19.18111 15.1593052,18.6311073 L15.1593052,11.2910651 C15.1593052,10.7410673 14.7093029,10.2910651 14.1592951,10.2910651 Z M9.81427308,10.2910651 C9.26427535,10.2910651 8.81427308,10.7410674 8.81427308,11.2910651 L8.81427308,18.6311073 C8.81427308,19.1811101 9.26427535,19.6311123 9.81427308,19.6311123 C10.3642809,19.6311123 10.8142832,19.18111 10.8142832,18.6311073 L10.8142832,11.2910651 C10.8142832,10.7387826 10.3665657,10.2910651 9.81427308,10.2910651 L9.81427308,10.2910651 Z M18.499317,8.36605533 C17.9493193,8.36605533 17.499317,8.81605761 17.499317,9.36605533 L17.499317,18.6311073 C17.499317,19.1811101 17.9493193,19.6311123 18.499317,19.6311123 C19.0493249,19.6311123 19.4993271,19.18111 19.4993271,18.6311073 L19.4993271,9.36605533 C19.4993271,8.81605761 19.0493248,8.36605533 18.499317,8.36605533 Z" id="形状" fill="#091722"></path>
            <path d="M19.9293293,1.43102026 C19.8993292,0.611016105 19.1943256,-0.0289871168 18.3793215,0.001013035 L16.309311,0.0860134493 C15.7593082,0.106013543 15.329306,0.576015936 15.3493061,1.12601873 C15.3693062,1.66102144 15.7993084,2.07602352 16.3343111,2.08102354 L12.8592935,6.20104439 C12.749293,6.321045 12.559292,6.33104505 12.4392914,6.21604447 L8.53427165,2.59602616 C7.66652583,1.78481766 6.32256349,1.77179056 5.43925601,2.56602601 L0.334230191,7.12604908 C-0.0757718756,7.49605096 -0.115772086,8.12605414 0.25422977,8.53605621 C0.454230774,8.75605733 0.72423214,8.8710579 0.999233547,8.8710579 C1.23423474,8.8710579 1.47423596,8.78605746 1.6642369,8.61605661 L6.76926274,4.05603354 C6.88426333,3.95103301 7.0592642,3.95603303 7.16926475,4.06103356 L11.0792845,7.68105188 C12.012664,8.54258387 13.4677161,8.48438179 14.329301,7.55105122 L18.0043196,3.20102921 C18.0493198,3.71603181 18.479322,4.11603384 18.9993246,4.11603384 L19.0393248,4.11603384 C19.5893276,4.09603375 20.0193298,3.62603136 19.9993297,3.07602859 L19.9293293,1.43102026 L19.9293293,1.43102026 Z" id="路径" fill="#FC243B"></path>
        </g>
    </g>
</svg>