<?xml version="1.0" encoding="UTF-8"?>
<svg width="24px" height="24px" viewBox="0 0 24 24" version="1.1" xmlns="http://www.w3.org/2000/svg" xmlns:xlink="http://www.w3.org/1999/xlink">
    <title>icon/me/京东支付</title>
    <g id="icon/me/京东支付" stroke="none" stroke-width="1" fill="none" fill-rule="evenodd">
        <rect id="矩形" x="0" y="0" width="24" height="24"></rect>
        <path d="M9.15277388,1.37505519 C12.9486903,0.357930019 16.9988896,1.44322691 19.777624,4.22210443 C22.5565986,7.00074185 23.6420368,11.0509033 22.6250442,14.8468552 C21.6080515,18.6428072 18.6431426,21.6078196 14.8472261,22.6249447 C11.0513097,23.6420699 7.00111038,22.556773 4.22237596,19.7778955 C1.44340144,16.9992581 0.357963175,12.9490967 1.37495584,9.15314473 C2.3919485,5.35719278 5.35685743,2.39218035 9.15277388,1.37505519 Z M11.5069868,7.05528771 C11.4977325,7.05528771 11.4884782,7.06189794 11.4660034,7.07115225 L11.4660034,16.5700447 L11.6497676,16.5700447 C12.4760457,16.5700447 13.3023237,16.5713667 14.1286018,16.5687227 C14.312366,16.5687227 14.4987743,16.5660786 14.6798945,16.5409597 C15.8948537,16.3677718 16.8361497,15.7477328 17.5341894,14.752233 C18.0074814,14.0766681 18.2903991,13.3244245 18.3842642,12.5034347 C18.5733167,10.8231156 18.1330757,9.35432376 16.9154724,8.15390701 C16.2914672,7.53915614 15.5299693,7.14650881 14.6627079,7.09098292 C13.6143263,7.02355864 12.5593345,7.06189794 11.5069868,7.05528771 Z M10.0368729,7.06057589 L8.93428745,7.06057589 L8.93428745,7.27210307 C8.93428745,9.214187 8.93957563,11.1562709 8.92899927,13.0983549 C8.92767722,13.3825945 8.88933792,13.6826987 8.79547274,13.9497518 C8.45967334,14.89898 7.66512436,15.4383743 6.64318367,15.4515947 C6.47660602,15.4542388 6.31002836,15.4515947 6.13816253,15.4515947 L6.13816253,16.5634345 C6.69474342,16.5845872 7.24074796,16.5753329 7.76295568,16.3849584 C9.1920862,15.8667168 10.0368729,14.6570458 10.0381949,13.1366942 L10.0381949,7.23244173 L10.0368729,7.06057589 Z M14.5820632,8.19753449 C15.4704773,8.28875558 16.139432,8.79774286 16.6365209,9.52486755 C17.2248309,10.3802306 17.4033069,11.3334249 17.2843229,12.3513995 C17.1864916,13.1935421 16.8639126,13.9365313 16.2716365,14.545994 C15.697869,15.1369481 15.0024734,15.4674593 14.1603309,15.4529168 C13.634157,15.4436625 13.1079831,15.4515947 12.5633006,15.4515947 L12.5633006,8.1948904 C12.5778431,8.18563608 12.5870974,8.17505972 12.5950297,8.17505972 C13.2573742,8.17770381 13.9263289,8.1301102 14.5820632,8.19753449 Z" id="形状结合" fill="#8D8D8D" fill-rule="nonzero"></path>
    </g>
</svg>