<?xml version="1.0" encoding="UTF-8"?>
<svg width="24px" height="24px" viewBox="0 0 24 24" version="1.1" xmlns="http://www.w3.org/2000/svg" xmlns:xlink="http://www.w3.org/1999/xlink">
    <title>icon/锁</title>
    <g id="icon/锁" stroke="none" stroke-width="1" fill="none" fill-rule="evenodd">
        <rect id="矩形" x="0" y="0" width="24" height="24"></rect>
        <path d="M19,9.94503101 C20.6568542,9.94503101 22,11.2881768 22,12.945031 L22,19.945031 C22,21.6018853 20.6568542,22.945031 19,22.945031 L5,22.945031 C3.34314575,22.945031 2,21.6018853 2,19.945031 L2,12.945031 C2,11.2881768 3.34314575,9.94503101 5,9.94503101 L19,9.94503101 Z M19,11.945031 L5,11.945031 C4.44771525,11.945031 4,12.3927463 4,12.945031 L4,19.945031 C4,20.4973158 4.44771525,20.945031 5,20.945031 L19,20.945031 C19.5522847,20.945031 20,20.4973158 20,19.945031 L20,12.945031 C20,12.3927463 19.5522847,11.945031 19,11.945031 Z" id="矩形" fill="#FFFFFF" fill-rule="nonzero"></path>
        <path d="M12,2 C14.7602003,2 17,4.22755503 17,6.97813261 L17,10.9703487 L15,10.9703487 L15,6.97813261 C15,5.33458624 13.6580777,4 12,4 C10.3419223,4 9,5.33458624 9,6.97813261 L9,11 L7,11 L7,6.97813261 C7,4.22755503 9.23979967,2 12,2 Z" id="路径" fill="#FFFFFF" fill-rule="nonzero"></path>
        <rect id="矩形" fill="#FC243B" x="11" y="13.945031" width="2" height="5" rx="1"></rect>
    </g>
</svg>