<svg id="语言" xmlns="http://www.w3.org/2000/svg" width="24" height="24" viewBox="0 0 24 24">
  <path id="路径_20" data-name="路径 20" d="M97.333,109.333a12,12,0,1,1,12-12,12,12,0,0,1-12,12Zm-2.748-2.8a21.48,21.48,0,0,1-2.02-8H87.808A9.61,9.61,0,0,0,94.585,106.534Zm.384-8a19.1,19.1,0,0,0,2.364,8.1,19.086,19.086,0,0,0,2.364-8.1Zm11.89,0H102.1a21.48,21.48,0,0,1-2.02,8A9.61,9.61,0,0,0,106.859,98.533Zm-19.051-2.4h4.758a21.48,21.48,0,0,1,2.02-8A9.61,9.61,0,0,0,87.808,96.133Zm7.163,0H99.7a19.086,19.086,0,0,0-2.363-8.1,19.086,19.086,0,0,0-2.364,8.1Zm5.111-8a21.48,21.48,0,0,1,2.02,8h4.758A9.61,9.61,0,0,0,100.081,88.133Z" transform="translate(-85.333 -85.333)" fill="#58688d"/>
</svg>
