<svg id="icon_tab_我的未选中" data-name="icon/tab/我的未选中" xmlns="http://www.w3.org/2000/svg" width="24" height="24" viewBox="0 0 24 24">
  <rect id="矩形" width="24" height="24" fill="none"/>
  <path id="矩形-2" data-name="矩形" d="M12,1a4,4,0,0,1,4,4V7A4,4,0,0,1,8,7V5A4,4,0,0,1,12,1Zm0,2a2,2,0,0,0-2,2V7a2,2,0,0,0,4,0V5A2,2,0,0,0,12,3Z" fill="#58698d"/>
  <path id="椭圆形" d="M12,12c6.013,0,11,2.244,11,5.5S18.013,23,12,23,1,20.756,1,17.5,5.987,12,12,12Zm0,2c-5.033,0-9,1.785-9,3.5S6.967,21,12,21s9-1.785,9-3.5S17.033,14,12,14Z" fill="#58698d"/>
</svg>
