<svg width="22" height="22" viewBox="0 0 22 22" fill="none" xmlns="http://www.w3.org/2000/svg">
<path fill-rule="evenodd" clip-rule="evenodd" d="M7.57718 5.13981C7.04594 4.92852 6.4483 4.82288 5.78425 4.82288H0.785767V17.7175H3.30312V12.8639H5.78425C6.4483 12.8639 7.04594 12.7583 7.57718 12.547C8.10842 12.3357 8.55514 12.0459 8.91735 11.6777C9.27956 11.3094 9.55725 10.8808 9.75043 10.3918C9.94361 9.90285 10.0402 9.38671 10.0402 8.84339C10.0402 8.30008 9.94361 7.78393 9.75043 7.29495C9.55725 6.80597 9.27956 6.37735 8.91735 6.00911C8.55514 5.64086 8.10842 5.3511 7.57718 5.13981ZM3.30312 10.6182V7.06857H5.65747C6.23701 7.06857 6.69279 7.22855 7.02481 7.5485C7.35684 7.86845 7.52285 8.30008 7.52285 8.84339C7.52285 9.37463 7.35684 9.80325 7.02481 10.1292C6.69279 10.4552 6.23701 10.6182 5.65747 10.6182H3.30312Z" fill="#ffffff"/>
<path d="M16.4875 4.71423C17.6949 4.71423 18.7272 5.05531 19.5844 5.73747C20.4416 6.41963 20.985 7.43684 21.2144 8.78908H18.6608C18.528 8.25784 18.2895 7.82017 17.9454 7.47607C17.6013 7.13198 17.1154 6.95993 16.4875 6.95993C16.1374 6.95993 15.8265 7.0203 15.5548 7.14103C15.2832 7.26177 15.0568 7.42476 14.8757 7.63001C14.755 7.76282 14.6554 7.91374 14.5769 8.08277C14.4984 8.2518 14.435 8.46913 14.3867 8.73475C14.3384 9.00037 14.3022 9.33541 14.2781 9.73988C14.2539 10.1443 14.2418 10.6545 14.2418 11.2702C14.2418 11.886 14.2539 12.3961 14.2781 12.8005C14.3022 13.205 14.3384 13.5401 14.3867 13.8057C14.435 14.0713 14.4984 14.2886 14.5769 14.4576C14.6554 14.6267 14.755 14.7776 14.8757 14.9104C15.0568 15.1157 15.2832 15.2787 15.5548 15.3994C15.8265 15.5201 16.1374 15.5805 16.4875 15.5805C17.1154 15.5805 17.6013 15.4084 17.9454 15.0643C18.2895 14.7202 18.528 14.2826 18.6608 13.7513H21.2144C20.985 15.1036 20.4416 16.1208 19.5844 16.8029C18.7272 17.4851 17.6949 17.8262 16.4875 17.8262C15.739 17.8262 15.087 17.7085 14.5316 17.473C13.9762 17.2376 13.4752 16.9026 13.0284 16.4679C12.7025 16.1419 12.4519 15.8039 12.2769 15.4537C12.1018 15.1036 11.975 14.7202 11.8965 14.3037C11.8181 13.8872 11.7698 13.4314 11.7517 12.9364C11.7335 12.4414 11.7245 11.886 11.7245 11.2702C11.7245 10.6545 11.7335 10.0991 11.7517 9.60405C11.7698 9.10903 11.8181 8.65325 11.8965 8.23671C11.975 7.82017 12.1018 7.43684 12.2769 7.0867C12.4519 6.73657 12.7025 6.3985 13.0284 6.07252C13.4752 5.63787 13.9762 5.30282 14.5316 5.06739C15.087 4.83195 15.739 4.71423 16.4875 4.71423Z" fill="#FC243B"/>
</svg>
