<svg id="icon_tab_优惠_未选中" data-name="icon/tab/优惠_未选中" xmlns="http://www.w3.org/2000/svg" width="24" height="24" viewBox="0 0 24 24">
  <rect id="矩形" width="24" height="24" fill="none"/>
  <path id="形状" d="M19.5,3A4.4,4.4,0,0,1,24,7.318v3.023a2.468,2.468,0,0,1-.708,1.716,2.762,2.762,0,0,1-.549.439,3.511,3.511,0,0,1,.423.325l.126.122A2.468,2.468,0,0,1,24,14.659v3.023A4.4,4.4,0,0,1,19.5,22H4.5a4.588,4.588,0,0,1-3.3-1.38A4.227,4.227,0,0,1,0,17.682V14.659a2.468,2.468,0,0,1,.708-1.716,2.762,2.762,0,0,1,.549-.439,3.511,3.511,0,0,1-.423-.325l-.126-.122A2.468,2.468,0,0,1,0,10.341V7.318A4.4,4.4,0,0,1,4.5,3Zm0,2H4.5A2.5,2.5,0,0,0,2,7.5v2.917a.833.833,0,0,0,.833.833,1.25,1.25,0,1,1,0,2.5A.833.833,0,0,0,2,14.583V17.5A2.5,2.5,0,0,0,4.5,20h15A2.5,2.5,0,0,0,22,17.5V14.583a.833.833,0,0,0-.833-.833,1.25,1.25,0,0,1,0-2.5A.833.833,0,0,0,22,10.417V7.5A2.5,2.5,0,0,0,19.5,5Z" fill="#9A9A9A"/>
  <path id="路径" d="M15,15a1,1,0,0,0,0-2H9a1,1,0,0,0,0,2Z" fill="#9A9A9A"/>
  <path id="路径-2" data-name="路径" d="M15,11a1,1,0,0,0,0-2H9a1,1,0,0,0,0,2Z" fill="#9A9A9A"/>
</svg>
