<?xml version="1.0" encoding="UTF-8"?>
<svg width="24px" height="24px" viewBox="0 0 24 24" version="1.1" xmlns="http://www.w3.org/2000/svg" xmlns:xlink="http://www.w3.org/1999/xlink">
    <title>icon/me/QQ</title>
    <g id="icon/me/QQ" stroke="none" stroke-width="1" fill="none" fill-rule="evenodd">
        <rect id="矩形" x="0" y="0" width="24" height="24"></rect>
        <path d="M12,1 C5.92544643,1 1,5.92544643 1,12 C1,18.0745536 5.92544643,23 12,23 C18.0745536,23 23,18.0745536 23,12 C23,5.92544643 18.0745536,1 12,1 Z M17.1685268,16.0366071 C16.8861607,16.0709821 16.0660714,14.7426339 16.0660714,14.7426339 C16.0660714,15.5111607 15.6683036,16.5154018 14.8113839,17.2421875 C15.2263393,17.3698661 16.159375,17.7136161 15.9383929,18.0868304 C15.7591518,18.3888393 12.8544643,18.2808036 12.0147321,18.1850446 C11.175,18.2783482 8.2703125,18.3888393 8.09107143,18.0868304 C7.86763393,17.7136161 8.80066964,17.3698661 9.215625,17.2421875 C8.35625,16.5178571 7.9609375,15.5136161 7.9609375,14.7426339 C7.9609375,14.7426339 7.14084821,16.0709821 6.85848214,16.0366071 C6.72589286,16.0194196 6.55401786,15.3098214 7.08928571,13.5886161 C7.3421875,12.7783482 7.62946429,12.103125 8.07633929,10.9908482 C8.00022321,8.12053571 9.18861607,5.71183036 12.0147321,5.71183036 C14.8113839,5.71183036 16.0243304,8.07142857 15.953125,10.9908482 C16.3975446,12.1006696 16.6872768,12.7783482 16.9401786,13.5886161 C17.4729911,15.3098214 17.2986607,16.021875 17.1685268,16.0366071 L17.1685268,16.0366071 Z" id="形状" fill="#8D8D8D" fill-rule="nonzero"></path>
    </g>
</svg>