<svg id="icon_tab_充值未选中" data-name="icon/tab/充值未选中" xmlns="http://www.w3.org/2000/svg" width="48" height="49" viewBox="0 0 48 49">
  <rect id="矩形" width="48" height="49" fill="none"/>
  <path id="形状结合" d="M24,6A18,18,0,1,1,6,24,18,18,0,0,1,24,6Zm2.777,1.8H21.223v4.832A11.627,11.627,0,0,0,18.1,13.894l-3.357-3.476-4,3.858,3.357,3.476a11.634,11.634,0,0,0-1.474,3.47H7.8v5.554h4.832a11.634,11.634,0,0,0,1.474,3.47l-3.357,3.476,4,3.858L18.1,34.106a11.628,11.628,0,0,0,3.121,1.262V40.2h5.554V35.368A11.628,11.628,0,0,0,29.9,34.106l3.357,3.476,4-3.858-3.357-3.476a11.634,11.634,0,0,0,1.474-3.47H40.2V21.223H35.368a11.634,11.634,0,0,0-1.474-3.47l3.357-3.476-4-3.858L29.9,13.894a11.627,11.627,0,0,0-3.121-1.262Z" fill="#9A9A9A" fill-rule="evenodd"/>
  <path id="形状结合-2" data-name="形状结合" d="M24,6A18,18,0,1,1,6,24,18,18,0,0,1,24,6Zm0,2A16,16,0,1,0,40,24,16,16,0,0,0,24,8Zm0,2.3A13.7,13.7,0,1,1,10.3,24,13.7,13.7,0,0,1,24,10.3Zm0,2A11.7,11.7,0,1,0,35.7,24,11.7,11.7,0,0,0,24,12.3Z" fill="#9A9A9A"/>
  <path id="椭圆形" d="M24,11.05A12.95,12.95,0,1,1,11.05,24,12.95,12.95,0,0,1,24,11.05Zm0,2.5A10.45,10.45,0,1,0,34.45,24,10.45,10.45,0,0,0,24,13.55Z" fill="#9A9A9A"/>
  <path id="形状结合-3" data-name="形状结合" d="M24,19.256a1.031,1.031,0,0,1,1.031,1.031v2.887h2.888a1.031,1.031,0,0,1,0,2.063H25.031v2.888a1.031,1.031,0,0,1-2.062,0V25.237H20.081a1.031,1.031,0,0,1,0-2.062h2.887V20.288A1.031,1.031,0,0,1,24,19.256Z" fill="#9A9A9A" fill-rule="evenodd"/>
</svg>
