<svg id="icon_tab_客服未选中" data-name="icon/tab/客服未选中" xmlns="http://www.w3.org/2000/svg" width="24" height="24" viewBox="0 0 24 24">
  <rect id="矩形" width="24" height="24" fill="none"/>
  <path id="形状结合" d="M12,1a11,11,0,0,1,9.179,17.065l.244,3.339a1,1,0,0,1-1.27,1.035l-2.839-.8A11,11,0,1,1,12,1Zm0,2a9,9,0,1,0,4.346,16.884l.721-.4.792.225,1.464.414-.139-1.914-.05-.681.377-.569A9,9,0,0,0,12,3Z" fill="#9A9A9A"/>
  <path id="路径" d="M8.467,12.467a1,1,0,0,1,1.41-.105,3.36,3.36,0,0,0,4.145.083,1,1,0,1,1,1.235,1.573,5.358,5.358,0,0,1-6.685-.141A1,1,0,0,1,8.467,12.467Z" transform="translate(-0.236 0.21) rotate(-1)" fill="#9A9A9A"/>
</svg>
