<?xml version="1.0" encoding="UTF-8"?>
<svg width="24px" height="24px" viewBox="0 0 24 24" version="1.1" xmlns="http://www.w3.org/2000/svg" xmlns:xlink="http://www.w3.org/1999/xlink">
    <title>icon/推广</title>
    <g id="icon/推广" stroke="none" stroke-width="1" fill="none" fill-rule="evenodd">
        <rect id="矩形" x="0" y="0" width="24" height="24"></rect>
        <path d="M20.25,17.05 C20.7083333,17.05 21.1666667,17.4166667 21.1666667,17.9666667 L21.1666667,18.8833333 C21.1666667,19.3416667 20.8,19.8 20.25,19.8 L3.75,19.8 C3.29166667,19.8 2.83333333,19.4333333 2.83333333,18.8833333 L2.83333333,17.9666667 C2.83333333,17.5083333 3.2,17.05 3.75,17.05 L20.25,17.05 M20.25,15.2166667 L3.75,15.2166667 C2.28333333,15.2166667 1,16.4083333 1,17.9666667 L1,18.8833333 C1,20.35 2.19166667,21.6333333 3.75,21.6333333 L20.25,21.6333333 C21.7166667,21.6333333 23,20.4416667 23,18.8833333 L23,17.9666667 C23,16.4083333 21.8083333,15.2166667 20.25,15.2166667 Z" id="形状" fill="#FFFFFF" fill-rule="nonzero"></path>
        <path d="M11.0833333,6.86666665 L12.9166667,6.86666665 L12.9166667,15.575 L11.0833333,15.575 L11.0833333,6.86666665 Z M9.43333333,15.4833333 C9.34166665,13.5583333 8.60833333,10.35 6.04166667,9.98333333 C5.675,10.7166667 5.125,11.0833333 4.75833333,11.2666667 L4.75833333,11.725 L5.675,11.725 C7.50833333,11.725 7.6,15.3916667 7.6,15.3916667 L9.43333333,15.3916667 L9.43333333,15.4833333 L9.43333333,15.4833333 Z M17.775,9.98333333 C15.3,10.35 14.475,13.4666667 14.475,15.4833333 L14.475,15.575 L16.3083333,15.575 C16.3083333,15.575 16.4916667,11.9083333 18.2333333,11.9083333 L18.875,11.9083333 C18.325,11.5416667 17.9583333,10.7166667 17.775,9.98333333 Z" id="形状" fill="#FFFFFF" fill-rule="nonzero"></path>
        <path d="M4.20833333,5.95 C5.94999998,5.95 7.41666667,7.325 7.41666667,9.15833333 C7.41666667,10.9916667 5.95,12.3666667 4.20833333,12.3666667 C2.46666667,12.3666667 1,10.9 1,9.15833333 C1,7.41666665 2.46666667,5.95 4.20833333,5.95 Z M4.20833333,7.78333333 C3.475,7.78333333 2.83333333,8.33333333 2.83333333,9.15833333 C2.83333333,9.98333333 3.475,10.5333333 4.20833333,10.5333333 C4.94166665,10.5333333 5.58333333,9.89166665 5.58333333,9.15833333 C5.58333333,8.425 4.94166665,7.78333333 4.20833333,7.78333333 Z" id="形状结合" fill="#FC243B" fill-rule="nonzero"></path>
        <path d="M12,1 C13.7416667,1 15.2083333,2.46666667 15.2083333,4.20833333 C15.2083333,5.94999998 13.7416667,7.41666665 12,7.41666665 C10.2583333,7.41666665 8.79166667,5.94999998 8.79166667,4.20833333 C8.79166667,2.46666667 10.2583333,1 12,1 Z M12,2.83333333 C11.2666667,2.83333333 10.625,3.475 10.625,4.20833333 C10.625,4.94166665 11.2666667,5.58333333 12,5.58333333 C12.7333333,5.58333333 13.375,4.94166665 13.375,4.20833333 C13.375,3.475 12.7333333,2.83333333 12,2.83333333 Z" id="形状结合" fill="#FC243B" fill-rule="nonzero"></path>
        <path d="M19.7916667,5.95 C21.5333333,5.95 23,7.325 23,9.15833333 C23,10.9916667 21.5333333,12.3666667 19.7916667,12.3666667 C18.05,12.3666667 16.5833333,10.9 16.5833333,9.15833333 C16.5833333,7.41666667 18.05,5.95 19.7916667,5.95 Z M19.7916667,7.78333333 C19.0583333,7.78333333 18.4166667,8.33333333 18.4166667,9.15833333 C18.4166667,9.98333333 19.0583333,10.5333333 19.7916667,10.5333333 C20.525,10.5333333 21.1666667,9.89166665 21.1666667,9.15833333 C21.1666667,8.425 20.525,7.78333333 19.7916667,7.78333333 Z" id="形状结合" fill="#FC243B" fill-rule="nonzero"></path>
    </g>
</svg>