<?xml version="1.0" encoding="UTF-8"?>
<svg width="24px" height="24px" viewBox="0 0 24 24" version="1.1" xmlns="http://www.w3.org/2000/svg" xmlns:xlink="http://www.w3.org/1999/xlink">
    <title>icon/设置</title>
    <g id="icon/设置" stroke="none" stroke-width="1" fill="none" fill-rule="evenodd">
        <rect id="矩形" x="0" y="0" width="24" height="24"></rect>
        <path d="M11.3660254,1.05662433 C11.9848276,0.699358737 12.7472233,0.699358737 13.3660254,1.05662433 L21.0262794,5.47927406 C21.6450816,5.83653965 22.0262794,6.49679369 22.0262794,7.21132487 L22.0262794,16.0566243 C22.0262794,16.7711555 21.6450816,17.4314095 21.0262794,17.7886751 L13.3660254,22.2113249 C12.7472233,22.5685905 11.9848276,22.5685905 11.3660254,22.2113249 L3.70577137,17.7886751 C3.08696921,17.4314095 2.70577137,16.7711555 2.70577137,16.0566243 L2.70577137,7.21132487 C2.70577137,6.49679369 3.08696921,5.83653965 3.70577137,5.47927406 L11.3660254,1.05662433 Z M12.3660254,2.78867513 L4.70577137,7.21132487 L4.70577137,16.0566243 L12.3660254,20.4792741 L20.0262794,16.0566243 L20.0262794,7.21132487 L12.3660254,2.78867513 Z" id="多边形" fill="#FFFFFF" fill-rule="nonzero" transform="translate(12.366025, 11.633975) rotate(30.000000) translate(-12.366025, -11.633975) "></path>
        <path d="M12.5,8 C14.4329966,8 16,9.56700338 16,11.5 C16,13.4329966 14.4329966,15 12.5,15 C10.5670034,15 9,13.4329966 9,11.5 C9,9.56700338 10.5670034,8 12.5,8 Z M12.5,10 C11.6715729,10 11,10.6715729 11,11.5 C11,12.3284271 11.6715729,13 12.5,13 C13.3284271,13 14,12.3284271 14,11.5 C14,10.6715729 13.3284271,10 12.5,10 Z" id="椭圆形" fill="#FC243B" fill-rule="nonzero"></path>
    </g>
</svg>