<?xml version="1.0" encoding="UTF-8"?>
<svg width="24px" height="24px" viewBox="0 0 24 24" version="1.1" xmlns="http://www.w3.org/2000/svg" xmlns:xlink="http://www.w3.org/1999/xlink">
    <title>icon/微信支付</title>
    <g id="icon/微信支付" stroke="none" stroke-width="1" fill="none" fill-rule="evenodd">
        <rect id="矩形" x="0" y="0" width="24" height="24"></rect>
        <path d="M10.5049167,15.3597 C10.2441392,15.3619775 10.0012622,15.2297648 9.86508333,15.0114 L9.8165,14.9133 L5.98208333,9.939 C5.9589966,9.8946361 5.94645986,9.84570862 5.94541667,9.7959 C5.95140615,9.60273027 6.11531232,9.45065515 6.31208333,9.4557 C6.39458333,9.4557 6.47066667,9.4809 6.53208333,9.5232 L10.7285833,11.9829 C11.0218934,12.1588001 11.3798309,12.1970779 11.7048333,12.0873 L20.9851667,6.6 C18.9923333,4.422 15.7125,3 12,3 C5.92433333,3 1,6.807 1,11.5014 C1,14.0628 2.48133333,16.3686 4.8005,17.9265 C4.99053586,18.0492249 5.10598136,18.2566894 5.1085,18.48 C5.10623407,18.5540235 5.09327129,18.6273558 5.07,18.6978 L4.57408333,20.4114 C4.55025,20.4924 4.5145,20.5761 4.5145,20.6598 C4.5145,20.8488 4.6795,21 4.88116667,21 C4.96,21 5.02508333,20.973 5.092,20.937 L7.501,19.6482 C7.6825,19.551 7.87316667,19.4907 8.08491667,19.4907 C8.19766667,19.4907 8.30491667,19.5069 8.4085,19.5348 C9.53141667,19.8345 10.7441667,20.0019 11.9990833,20.0019 C18.07475,20.001 23,16.194 23,11.5014 C23,10.0785 22.5444167,8.7393 21.746,7.5621 L10.9146667,15.2436 L10.8349167,15.2859 C10.7320292,15.3347211 10.6191899,15.3599561 10.5049167,15.3597 Z" id="路径" fill="#8D8D8D" fill-rule="nonzero"></path>
    </g>
</svg>