<?xml version="1.0" encoding="UTF-8"?>
<svg width="24px" height="24px" viewBox="0 0 24 24" version="1.1" xmlns="http://www.w3.org/2000/svg" xmlns:xlink="http://www.w3.org/1999/xlink">
    <title>icon/me/云闪付支付</title>
    <g id="icon/me/云闪付支付" stroke="none" stroke-width="1" fill="none" fill-rule="evenodd">
        <rect id="矩形" x="0" y="0" width="24" height="24"></rect>
        <path d="M18.3916048,9.36607571 C21.2040134,9.78771819 23.206631,12.2493286 22.9829625,15.0097848 C22.759294,17.7707609 20.3857298,19.8968685 17.5397405,19.8846495 L6.21384548,19.8846495 C3.46196861,20.0056697 1.12930774,17.933941 1.00525446,15.2554215 C0.879987953,12.5775087 3.00973527,10.307806 5.76161215,10.1861792 C5.75424608,6.93197974 8.34480604,4.23084208 11.6815488,4.01384634 C15.0182483,3.79754388 17.9546669,6.13934734 18.3916048,9.36607571 Z M10.5185331,9.25103504 L8.76692514,9.25103504 L10.5356051,12.8395674 L9.05129875,12.8395674 L9.05129875,14.0964355 L11.1611577,14.0964355 L11.1611577,14.7788802 L9.05129875,14.7788802 L9.05129875,16.0357049 L11.1611577,16.0357049 L11.1611577,17.5882557 L12.7592481,17.5882557 L12.7592481,16.0357049 L14.8975747,16.0357049 L14.8975747,14.7788802 L12.7592481,14.7788802 L12.7592481,14.0964355 L14.8975747,14.0964355 L14.8975747,12.8395674 L13.3904769,12.8395674 L15.181905,9.25103504 L13.430297,9.25103504 L12.2701411,11.6737353 C12.1374652,11.9581089 12.0350768,12.2253672 11.9630627,12.4755969 C11.9024009,12.2443457 11.8000126,11.977044 11.6559409,11.6737353 L10.5185331,9.25103504 L10.5185331,9.25103504 Z" id="形状" fill="#8D8D8D" fill-rule="nonzero"></path>
    </g>
</svg>