<?xml version="1.0" encoding="UTF-8"?>
<svg width="24px" height="24px" viewBox="0 0 24 24" version="1.1" xmlns="http://www.w3.org/2000/svg" xmlns:xlink="http://www.w3.org/1999/xlink">
    <title>icon/me/支付宝支付</title>
    <g id="icon/me/支付宝支付" stroke="none" stroke-width="1" fill="none" fill-rule="evenodd">
        <rect id="矩形" x="0" y="0" width="24" height="24"></rect>
        <path d="M7.41229967,16.9727714 C7.08307654,16.962675 4.94744129,16.82235 4.98868409,14.9349736 L4.98862876,14.9349736 C5.00124226,14.3607279 5.63656378,12.8093241 8.09757727,13.0642493 C9.39734756,13.1988485 10.8617571,13.9853383 11.150014,14.1242803 C11.438188,14.2632223 11.7316452,14.4150821 12.0301368,14.579832 C11.988977,14.6209918 11.9477619,14.6596621 11.9065744,14.6956769 C11.8654423,14.7317194 10.7488719,15.7818201 10.0643135,16.1885221 C9.37964441,16.5951689 8.50057272,17.0061584 7.41229967,16.9727714 Z M22.0327722,16.5168048 C18.2918215,15.9196003 14.7478182,14.2245244 14.7478182,14.2245244 C15.2110597,13.6275135 15.5842641,13.045827 15.867376,12.4796307 C16.1504327,11.9134897 16.3641152,11.4090885 16.5082022,10.9665099 C16.6813334,10.4573509 16.803817,9.97358484 16.8762063,9.5148798 L16.8786958,9.5148798 L16.8786958,9.4995002 C16.8779766,9.50453454 16.8770084,9.50973482 16.8762063,9.5148798 L13.2809469,9.51487983 L13.2809469,7.80093897 L17.8053446,7.80093897 L17.8053446,7.05967517 L13.2809469,7.0596752 L13.2809469,5.28382867 L12.0918765,5.28382867 C11.8963951,5.28382867 11.721217,5.29931891 11.566923,5.33029941 C11.4330706,5.35082399 11.3146532,5.38938365 11.2117537,5.4460337 C11.1087435,5.50268376 11.0573491,5.57728592 11.0573491,5.66997846 L11.0573491,7.05964752 L6.6564861,7.05964752 L6.6564861,7.80091132 L11.0573215,7.80091132 L11.0573215,9.51485218 L7.89177821,9.51485218 L7.89177821,10.256116 L14.5935243,10.256116 C14.5728337,10.3384356 14.5266396,10.4826056 14.4545269,10.6884046 C14.3824696,10.8943143 14.2794041,11.1491012 14.1456624,11.4529038 C14.01181,11.7565957 13.8419152,12.0911021 13.6360055,12.456589 C13.4301788,12.8219376 13.1780473,13.1951143 12.8793898,13.5760915 C12.7353304,13.5245864 12.5963884,13.473109 12.4625361,13.4216869 C12.3286561,13.3701818 12.1998934,13.3186767 12.0764969,13.2672823 C11.7676878,13.1334023 11.4407328,12.9944879 11.0958811,12.8502626 C10.7510571,12.7061756 10.3855702,12.5724062 9.99953103,12.4487885 C9.61349188,12.3253091 9.20944529,12.2197818 8.78728066,12.1322342 C8.36522667,12.0447419 7.92771009,11.990775 7.47475858,11.9701675 C7.01157245,11.9496152 6.55082048,12.0061823 6.09277933,12.139924 C5.63473817,12.273804 5.21769084,12.4693684 4.8419693,12.7268385 C4.46619242,12.9841426 4.15987272,13.2981521 3.92309318,13.6688117 C3.68642429,14.0394712 3.56286188,14.4511523 3.55254427,14.9042144 C3.55254427,15.4291403 3.66072708,15.8898646 3.87687137,16.2861384 C4.09298801,16.6824675 4.38650059,17.0119396 4.7569942,17.2743887 C5.1276261,17.5368931 5.56254252,17.735113 6.06188181,17.8688547 C6.56119342,18.0027347 7.09383673,18.06973 7.66006069,18.06973 L7.90718552,18.06973 C7.9380277,18.06973 7.96383557,18.0644744 7.98436015,18.0542398 C8.20047679,18.0438945 8.47340948,18.0207421 8.80279858,17.984755 C9.13216002,17.9485742 9.5156267,17.8611926 9.95322626,17.7222506 C10.3907152,17.5831149 10.8818391,17.3825439 11.404718,17.0813138 C12.0000415,16.7382601 13.6360055,15.4291127 13.6360055,15.4291127 C16.9219301,16.8888751 19.0616039,17.7775452 21.0763875,18.2158917 C19.0940228,21.1048786 15.7683767,22.9999171 12.0000138,22.9999171 C5.92487607,22.9999171 1,18.0750963 1,11.9999309 C1,5.92476546 5.92490372,1 12.0000138,1 C18.0751239,1 23,5.92482074 23,11.9999862 C23,13.6097274 22.6541248,15.1387811 22.0327722,16.5168048 Z" id="形状" fill="#8D8D8D" fill-rule="nonzero"></path>
    </g>
</svg>