<svg id="icon_走势" data-name="icon/走势" xmlns="http://www.w3.org/2000/svg" width="24" height="24" viewBox="0 0 24 24">
  <rect id="矩形" width="24" height="24" fill="none"/>
  <g id="彩友多_我的-走势图" transform="translate(2 2)">
    <path id="形状" d="M1.134,11.361a1,1,0,0,0-1,1v6.06a1,1,0,1,0,2,0v-6.06a1,1,0,0,0-1-1Zm4.34-3a1,1,0,0,0-1,1v9.265a1,1,0,1,0,2,0V9.366a1,1,0,0,0-1-1Zm8.685,1.925a1,1,0,0,0-1,1v7.34a1,1,0,1,0,2,0v-7.34A1,1,0,0,0,14.159,10.291Zm-4.345,0a1,1,0,0,0-1,1v7.34a1,1,0,1,0,2,0v-7.34a1,1,0,0,0-1-1ZM18.5,8.366a1,1,0,0,0-1,1v9.265a1,1,0,1,0,2,0V9.366A1,1,0,0,0,18.5,8.366Z" fill="#fff"/>
    <path id="路径" d="M19.929,1.431A1.5,1.5,0,0,0,18.379,0l-2.07.085a1,1,0,0,0-.96,1.04.988.988,0,0,0,.985.955L12.859,6.2a.294.294,0,0,1-.42.015L8.534,2.6a2.29,2.29,0,0,0-3.1-.03L.334,7.126a1,1,0,1,0,1.33,1.49l5.105-4.56a.293.293,0,0,1,.4.005l3.91,3.62a2.3,2.3,0,0,0,3.25-.13L18,3.2a1,1,0,0,0,1,.915h.04A1,1,0,0,0,20,3.076l-.07-1.645Z" fill="#fc243b"/>
  </g>
</svg>
