<svg width="21" height="20" viewBox="0 0 21 20" fill="none" xmlns="http://www.w3.org/2000/svg">
<path d="M10.2994 0.828491C5.02359 0.828491 0.707031 5.14208 0.707031 10.4142C0.707031 15.6864 5.02359 20 10.2994 20C15.5752 20 19.8917 15.6864 19.8917 10.4142C19.8917 5.14208 15.5752 0.828491 10.2994 0.828491Z" stroke="#000000"/>
<path d="M14.2962 13.29C14.6159 13.6095 14.6159 14.0888 14.2962 14.4083C13.9764 14.7278 13.4968 14.7278 13.1771 14.4083L10.2994 11.5326L7.42166 14.4083C7.10192 14.7278 6.6223 14.7278 6.30255 14.4083C5.98281 14.0888 5.98281 13.6095 6.30255 13.29L9.18026 10.4142L6.30255 7.53852C5.98281 7.219 5.98281 6.73971 6.30255 6.42019C6.6223 6.10066 7.10192 6.10066 7.42166 6.42019L10.2994 9.29591L13.1771 6.42019C13.4968 6.10066 13.9764 6.10066 14.2962 6.42019C14.6159 6.73971 14.6159 7.219 14.2962 7.53852L11.4185 10.4142L14.2962 13.29Z" fill="#000000"/>
</svg>
