<svg width="33" height="35" viewBox="0 0 33 35" fill="none" xmlns="http://www.w3.org/2000/svg">
<path d="M32.5533 26.8927L28.9959 22.6067V16.2947C28.9959 8.12975 24.0825 4.65105 18.9106 3.98544V3.21639C18.9106 2.57677 18.6565 1.96334 18.2042 1.51106C17.7519 1.05878 17.1385 0.804688 16.4989 0.804688C15.8592 0.804688 15.2458 1.05878 14.7935 1.51106C14.3412 1.96334 14.0872 2.57677 14.0872 3.21639V3.98544C8.9152 4.6533 4.00184 8.12975 4.00184 16.2924V22.6067L0.444429 26.8927C0.307043 27.0565 0.219422 27.2562 0.191921 27.4683C0.16442 27.6803 0.198187 27.8958 0.289234 28.0892C0.38028 28.2826 0.5248 28.446 0.705714 28.5599C0.886628 28.6738 1.09638 28.7336 1.31017 28.7321H31.6898C31.9034 28.7332 32.1128 28.6731 32.2934 28.559C32.474 28.4449 32.6182 28.2815 32.709 28.0882C32.7997 27.8948 32.8333 27.6795 32.8057 27.4677C32.7781 27.2559 32.6905 27.0564 32.5533 26.8927ZM16.5 34.1964C17.4117 34.1958 18.2859 33.8334 18.9305 33.1887C19.5752 32.5441 19.9376 31.6699 19.9382 30.7582H13.0618C13.0624 31.6699 13.4248 32.5441 14.0694 33.1887C14.7141 33.8334 15.5883 34.1958 16.5 34.1964Z" fill="white"/>
</svg>
