<svg width="150" height="50" viewBox="0 0 282 92" fill="none" xmlns="http://www.w3.org/2000/svg">
<path d="M47.6141 9.86399V89.544H26.2061L22.7501 87.528L24.8621 75.528L27.6461 77.16H28.4141V22.344H24.7661C23.5501 45.768 22.2061 68.424 20.7341 90.312L2.59013 89.16C4.25413 63.56 5.53413 41.288 6.43013 22.344H3.74213L0.286125 20.328L2.39813 8.232L5.18213 9.86399H7.10213L7.39013 2.75999L25.6301 3.62399L25.3421 9.86399H47.6141ZM88.6061 6.12V88.68H51.8381V21.48H67.9661V76.2H72.4781V18.504H53.2781L49.8221 16.488L51.9341 4.488L54.7181 6.12H88.6061ZM149.93 71.496L151.85 82.632L148.682 84.456H135.434V91.08H117.194V84.456H99.9139V72.936H117.194V69.384H104.33L100.97 67.752L103.562 51.24H102.122L98.9539 49.32L100.874 38.28L103.466 39.72H105.29L105.962 35.016L121.802 36.744L121.418 39.72H144.842L147.434 38.28L149.354 49.32L146.186 51.24H119.69L118.73 57.96H121.706V53.544H135.914V57.96H145.322L147.818 56.424L149.834 67.56L146.57 69.384H135.434V72.936H147.338L149.93 71.496ZM185.642 34.056H174.602L175.946 51.624L183.722 49.416L187.658 62.856L177.002 65.928L177.962 77.832H181.61L184.298 76.296L186.314 87.816L182.954 89.736H160.682L159.242 71.016L154.826 72.264L150.89 58.824L158.186 56.808L156.458 34.056H100.682L97.5139 32.232L99.4339 21.576L101.93 23.016H115.178V18.792H103.85L100.778 17.064L102.602 6.408L105.098 7.848H115.178V3.432H135.338V7.848H145.418L147.914 6.408L149.738 17.064L146.666 18.792H135.338V23.016H155.69L154.058 2.184L172.202 0.839996L173.834 23.016H184.394L186.89 21.576L188.714 32.232L185.642 34.056ZM189.098 11.112L181.61 18.696L174.026 11.112L181.61 3.528L189.098 11.112ZM281.162 18.312V66.504L277.61 68.52H249.002V91.272H228.842V68.52H196.682V33.384H216.842V56.04H228.842V30.696H198.602L195.05 28.68L197.162 16.68L199.946 18.312H228.842V2.75999H249.002V18.312H281.162ZM249.002 30.696V56.04H261.002V30.696H249.002Z" fill="#FFF500"/>
</svg>
