<svg width="17" height="16" viewBox="0 0 17 16" fill="none" xmlns="http://www.w3.org/2000/svg">
<path fill-rule="evenodd" clip-rule="evenodd" d="M0 5.25381V5.45506C0.00162755 5.46533 0.00324463 5.47561 0.00485236 5.4859C0.0358505 6.23222 0.212748 6.96461 0.459923 7.68069C0.972811 9.16445 1.81698 10.4407 2.84311 11.5959C4.40518 13.3514 6.23469 14.7574 8.24722 15.9225C8.33404 15.9721 8.41385 15.9976 8.49307 15.9998C8.49622 16 8.49938 16 8.50253 16C8.58906 16.0004 8.67519 15.973 8.76933 15.9188C10.1166 15.1468 11.3845 14.2369 12.5539 13.2029C13.8592 12.0463 15.0169 10.7554 15.8717 9.20201C16.3474 8.33779 16.7042 7.42617 16.8748 6.44453C16.9062 6.26442 16.9341 6.08378 16.9621 5.90311C16.9746 5.82224 16.9872 5.74137 17 5.66054V4.89868C17 4.89653 17 4.89438 17 4.89222V4.67052C16.9985 4.66162 16.997 4.65273 16.9955 4.64383C16.9182 2.71977 15.6454 0.875881 13.8873 0.248027C13.3135 0.0438979 12.7583 -0.0307721 12.222 0.0112994C12.0335 0.0165949 11.8411 0.0343578 11.6448 0.0650008C10.3913 0.260453 9.38047 0.887284 8.60227 1.9145C8.58087 1.94168 8.55858 1.96739 8.53348 1.99632C8.52323 2.00815 8.51251 2.02052 8.50119 2.03374C8.48686 2.01509 8.47347 1.99785 8.46075 1.98148C8.43567 1.94919 8.41324 1.92032 8.39158 1.8908C7.47908 0.641405 5.97555 -0.0746403 4.50697 0.00618466C3.56364 -0.0222029 2.69957 0.298223 1.92381 0.914542C0.950688 1.68682 0.342248 2.70652 0.0901252 3.95115C0.0662066 4.06809 0.0461885 4.18579 0.0261767 4.30346C0.0175538 4.35416 0.00893206 4.40486 0 4.45548V5.25381Z" fill="#FF0406"/>
</svg>
