<svg width="17" height="16" viewBox="0 0 17 16" fill="none" xmlns="http://www.w3.org/2000/svg">
<path d="M17 5.66054C16.9585 5.92199 16.9202 6.18381 16.8748 6.44453C16.7042 7.42617 16.3474 8.33779 15.8717 9.20201C15.0169 10.7554 13.8592 12.0463 12.5539 13.2029C11.3845 14.2369 10.1166 15.1468 8.76933 15.9188C8.5856 16.0246 8.43237 16.0282 8.24722 15.9225C6.23469 14.7574 4.40518 13.3513 2.84311 11.5959C1.81698 10.4407 0.972811 9.16445 0.459923 7.68069C0.10523 6.65311 -0.104749 5.59198 0.0534444 4.50424C0.350323 2.45126 1.42753 0.976257 3.33294 0.252794C5.11705 -0.42363 7.23174 0.30275 8.39158 1.8908C8.42422 1.93528 8.45862 1.97831 8.50119 2.03374C8.5402 1.98816 8.57212 1.95279 8.60227 1.9145C9.38047 0.887283 10.3913 0.260451 11.6448 0.0649994C13.0835 -0.159624 14.3132 0.307855 15.3649 1.30481C16.1849 2.0826 16.6953 3.04673 16.9156 4.17168C16.9479 4.33723 16.972 4.50424 17 4.67052V5.66054ZM4.63609 0.586812C4.42079 0.617078 4.13668 0.630935 3.86534 0.698759C2.09542 1.14108 0.806104 2.79039 0.610668 4.61801C0.514546 5.51614 0.652522 6.39458 0.92138 7.2515C1.37574 8.69952 2.17416 9.93787 3.1556 11.0577C4.66978 12.7887 6.45212 14.1769 8.41145 15.3314C8.44369 15.3455 8.47854 15.3521 8.51354 15.3508C8.54854 15.3494 8.58283 15.3402 8.61398 15.3237C9.0687 15.0441 9.5266 14.7687 9.96678 14.4661C11.625 13.3258 13.1424 12.0204 14.3895 10.4072C15.2957 9.2341 15.992 7.9498 16.2917 6.46605C16.4179 5.83994 16.4754 5.20618 16.3981 4.56987C16.2869 3.6215 15.8908 2.7324 15.2648 2.02645C14.5796 1.24282 13.7397 0.729754 12.711 0.621818C11.6019 0.504766 10.6038 0.832585 9.73339 1.55459C9.34607 1.87585 9.03784 2.26602 8.78033 2.70251C8.63526 2.94864 8.39017 2.94536 8.23587 2.70579C8.21459 2.6726 8.19579 2.6376 8.17487 2.60441C7.3573 1.30991 6.1939 0.65646 4.63609 0.586812Z" fill="#5A5A5A"/>
</svg>
