<?xml version="1.0" encoding="UTF-8"?>
<svg width="24px" height="22px" viewBox="0 0 24 22" version="1.1" xmlns="http://www.w3.org/2000/svg" xmlns:xlink="http://www.w3.org/1999/xlink">
    <title>礼物</title>
    <g id="签到" stroke="none" stroke-width="1" fill="none" fill-rule="evenodd">
        <g id="签到中心v2" transform="translate(-318.000000, -207.000000)" fill-rule="nonzero">
            <g id="签到板块V2" transform="translate(12.000000, 130.000000)">
                <g id="签到状态" transform="translate(10.000000, 54.000000)">
                    <g id="签到状态-完成备份-5" transform="translate(288.000000, 0.000000)">
                        <g id="礼物" transform="translate(8.000000, 23.000000)">
                            <rect id="矩形" fill="#000000" opacity="0" x="0" y="8.61503509e-08" width="21.6964544" height="21.6964544"></rect>
                            <path d="M0.37894737,4.80171767 L23.6210526,4.80171767 C23.8294737,4.80171767 24,4.97224399 24,5.18066504 L24,9.7027703 C24,9.91119135 23.8294737,10.0817177 23.6210526,10.0817177 L0.37894737,10.0817177 C0.170526313,10.0817177 0,9.91119135 0,9.7027703 L0,5.18066504 C0,4.97224399 0.170526313,4.80171767 0.37894737,4.80171767 Z" id="路径" fill="#FF505D"></path>
                            <path d="M3.01578947,10.0817177 L20.9842105,10.0817177 C21.1231579,10.0817177 21.2368421,10.1954019 21.2368421,10.3343493 L21.2368421,21.4438229 C21.2368421,21.5827703 21.1231579,21.6964545 20.9842105,21.6964545 L3.01578947,21.6964545 C2.87684209,21.6964545 2.76315789,21.5827703 2.76315789,21.4438229 L2.76315789,10.3343493 C2.76315789,10.1954019 2.87684209,10.0817177 3.01578947,10.0817177 Z" id="路径" fill="#FF6174"></path>
                            <path d="M5.47578948,3.4027703 C5.47578948,3.4027703 2.72210527,2.87224397 2.17263159,2.6827703 L3.14526315,4.08171766 L1.38947368,4.7796124 C1.38947368,4.7796124 5.49789473,5.54066503 9.92526316,4.88382293 L7.79368421,3.91750713 L5.47578948,3.4027703 Z M7.45578947,0.0711913442 C6.05684209,-0.17828235 5.39052631,0.308033443 5.39052631,0.308033464 L5.00842104,2.72382294 C5.00842104,2.72382294 5.9968421,2.05119136 7.16842106,2.34171767 C8.69368422,2.72382294 10.6010526,4.88382293 10.6010526,4.88382293 L10.6010526,3.23224398 C10.6010526,3.23224398 9.35052632,0.409086077 7.45578947,0.0711913442 Z M20.9684211,4.08171766 L21.9442105,2.6827703 C21.3947369,2.87224397 18.6410526,3.4027703 18.6410526,3.4027703 L16.3231579,3.91750713 L14.1915789,4.88698082 C18.6189474,5.54382293 22.7273684,4.7796124 22.7273684,4.7796124 L20.9684211,4.08171766 Z M19.1052632,2.72382294 L18.7263158,0.311191357 C18.7263158,0.311191357 18.06,-0.175124435 16.6610526,0.0743492377 C14.7663158,0.412243971 13.5157895,3.23540188 13.5157895,3.23540188 L13.5157895,4.88698082 C13.5157895,4.88698082 15.42,2.72698083 16.9452632,2.34487557 C18.1136842,2.05119136 19.1052632,2.72382294 19.1052632,2.72382294 Z" id="形状" fill="#FFCA3E"></path>
                            <polygon id="路径" fill="#FFCA3E" points="10.4210526 2.99855978 13.5789474 2.99855978 13.5789474 21.6964545 10.4210526 21.6964545"></polygon>
                            <polygon id="路径" fill="#FFB82C" points="10.4210526 10.1701387 13.5789474 10.1701387 13.5789474 21.6964545 10.4210526 21.6964545"></polygon>
                            <path d="M8.20421053,2.71119134 C6.82736843,1.91540186 5.19157895,2.18382291 5.01157894,2.72698083 C4.81263156,3.32382294 5.78842104,3.95855977 7.19999999,4.69750715 C8.12842105,5.18382294 10.6042105,4.88698082 10.6042105,4.88698082 C10.6042105,4.88698082 9.58105263,3.50382293 8.20421053,2.71119134 L8.20421053,2.71119134 Z M19.1052632,2.72382294 C18.9252632,2.18066504 17.2894737,1.91224398 15.9126316,2.70803345 C14.5357894,3.50382291 13.5126316,4.88382293 13.5126316,4.88382293 C13.5126316,4.88382293 15.991579,5.18066502 16.9168421,4.69434925 C18.3284211,3.95855979 19.3042105,3.32066504 19.1052632,2.72382294 Z" id="形状" fill="#FFB82C"></path>
                        </g>
                    </g>
                </g>
            </g>
        </g>
    </g>
</svg>