<svg  class="icon" viewBox="0 0 1024 1024" version="1.1" xmlns="http://www.w3.org/2000/svg"  width="200" height="200"><path d="M514 114.3c-219.9 0-398.8 178.9-398.8 398.8 0 220 178.9 398.9 398.8 398.9s398.8-178.9 398.8-398.8S733.9 114.3 514 114.3z m0 685.2c-42 0-76.1-34.1-76.1-76.1 0-42 34.1-76.1 76.1-76.1 42 0 76.1 34.1 76.1 76.1 0 42.1-34.1 76.1-76.1 76.1z m0-193.8c-50.7 0-91.4-237-91.4-287.4 0-50.5 41-91.4 91.5-91.4s91.4 40.9 91.4 91.4c-0.1 50.4-40.8 287.4-91.5 287.4z"  fill="#ff0000"></path></svg>