<svg width="38" height="39" viewBox="0 0 38 39" fill="none" xmlns="http://www.w3.org/2000/svg">
<rect opacity="0.01" width="38" height="38" fill="black"/>
<rect opacity="0.01" x="5" y="6" width="26.4" height="26.3858" fill="black"/>
<g filter="url(#filter0_d_50_1888)">
<path fill-rule="evenodd" clip-rule="evenodd" d="M19 6C11.831 6 6 11.8279 6 18.993C6 26.1582 11.831 31.9861 19 31.9861C26.169 31.9861 32 26.1582 32 18.993C32 11.8279 26.169 6 19 6Z" fill="url(#paint0_linear_50_1888)"/>
<path fill-rule="evenodd" clip-rule="evenodd" d="M19 6C11.831 6 6 11.8279 6 18.993C6 26.1582 11.831 31.9861 19 31.9861C26.169 31.9861 32 26.1582 32 18.993C32 11.8279 26.169 6 19 6Z" stroke="url(#paint1_linear_50_1888)" stroke-width="0.4" stroke-linejoin="round"/>
</g>
<path fill-rule="evenodd" clip-rule="evenodd" d="M6.00333 18.6968C6.16147 25.7293 11.9301 31.4002 19 31.4002C26.0699 31.4002 31.8385 25.7293 31.9967 18.6968C31.9989 18.7953 32 18.8941 32 18.9931C32 26.1583 26.169 31.9862 19 31.9862C11.831 31.9862 6 26.1583 6 18.9931C6 18.8941 6.00111 18.7953 6.00333 18.6968Z" fill="#2F72F4"/>
<path d="M19.4423 13C19.5937 13.0368 19.7476 13.0663 19.8968 13.1114C21.2789 13.5291 22.1466 14.4508 22.3733 15.8803C22.602 17.3189 22.0546 18.4703 20.8626 19.3035C20.8102 19.3399 20.7564 19.3746 20.704 19.411C20.6997 19.414 20.6992 19.4236 20.6915 19.4483C20.7594 19.4747 20.8287 19.5024 20.8988 19.528C21.9387 19.9017 22.8409 20.586 23.4851 21.4895C24.1293 22.393 24.485 23.4729 24.5048 24.5853C24.5048 24.6139 24.5074 24.6425 24.5048 24.672C24.4953 24.8696 24.3814 24.9952 24.2081 25.0004C24.0348 25.0056 23.9204 24.8921 23.8925 24.691C23.8284 24.2369 23.8065 23.7702 23.6856 23.3313C23.0742 21.1183 21.0028 19.6983 18.6692 19.8647C16.5307 20.0159 14.6868 21.7713 14.3691 23.967C14.3364 24.1945 14.3295 24.4254 14.3114 24.6546C14.2934 24.8839 14.1773 25.0095 13.9864 25.0013C13.7954 24.9931 13.6952 24.8596 13.6944 24.6252C13.6849 22.4209 15.1242 20.3465 17.2041 19.5653L17.4681 19.4652C17.4092 19.4218 17.3684 19.3906 17.3245 19.3633C16.0917 18.5998 15.4656 17.2063 15.7223 15.7967C15.979 14.3871 17.0751 13.3059 18.5088 13.0455C18.5487 13.0347 18.5876 13.0202 18.6249 13.0022L19.4423 13ZM16.2951 16.4232C16.2951 17.9685 17.5374 19.2234 19.0566 19.2164C20.5758 19.2095 21.8087 17.9524 21.8052 16.4076C21.8042 16.0431 21.7319 15.6822 21.5925 15.3458C21.4531 15.0094 21.2493 14.7039 20.9928 14.4468C20.7362 14.1897 20.432 13.9861 20.0973 13.8475C19.7627 13.7089 19.4042 13.6381 19.0424 13.6392C18.6806 13.6402 18.3225 13.713 17.9887 13.8535C17.6548 13.9939 17.3517 14.1993 17.0965 14.4578C16.8414 14.7164 16.6393 15.023 16.5018 15.3602C16.3643 15.6974 16.2941 16.0587 16.2951 16.4232V16.4232Z" fill="white" stroke="white" stroke-width="0.872716"/>
<path d="M11.0017 22.024C11.0496 21.7783 11.0872 21.5291 11.147 21.2873C11.4697 20.016 12.2323 19.1463 13.4607 18.7065C13.4941 18.6948 13.5278 18.6826 13.5603 18.6688C13.579 18.658 13.5968 18.6455 13.6133 18.6315C13.5475 18.5734 13.4851 18.5201 13.424 18.4647C13.0034 18.0832 12.7047 17.583 12.5662 17.0284C12.4276 16.4737 12.4556 15.8897 12.6465 15.3513C13.0346 14.2736 14.0382 13.5144 15.1256 13.4754C15.4248 13.465 15.5756 13.5564 15.5915 13.7601C15.6073 13.9638 15.4684 14.0747 15.1687 14.1003C13.951 14.2051 13.0658 15.1762 13.0918 16.3787C13.1044 16.8314 13.2514 17.2697 13.5135 17.6364C13.7757 18.003 14.1409 18.281 14.5613 18.4339C14.6079 18.4508 14.6558 18.4651 14.7028 18.4816C14.8571 18.5357 14.9354 18.6462 14.9165 18.8105C14.8977 18.9747 14.7947 19.0601 14.6362 19.0878C14.3844 19.1311 14.1288 19.1628 13.8839 19.2321C12.5422 19.6121 11.7185 20.6725 11.636 22.1211C11.6202 22.3932 11.6245 22.667 11.6322 22.94C11.6377 23.1368 11.6394 23.327 11.412 23.3963C11.1945 23.4626 11.0906 23.3097 11 23.1472L11.0017 22.024Z" fill="white" stroke="white" stroke-width="0.872716"/>
<path d="M24.473 18.6367C24.645 18.7021 24.7848 18.7507 24.9215 18.81C26.1771 19.3651 26.854 20.3639 27.0501 21.7007C27.1154 22.1453 27.0931 22.6038 27.0995 23.0557C27.1025 23.2771 26.9649 23.411 26.7779 23.4024C26.5839 23.3954 26.4837 23.2412 26.4769 23.0094C26.464 22.537 26.4872 22.056 26.3986 21.595C26.1307 20.2114 25.1701 19.3326 23.7725 19.1251C23.6594 19.1082 23.5322 19.1207 23.4367 19.0709C23.3348 19.0172 23.2079 18.9149 23.1925 18.8174C23.177 18.7199 23.2737 18.5938 23.3455 18.4989C23.3825 18.4504 23.4724 18.4413 23.5395 18.417C24.525 18.0591 25.1451 17.039 24.9985 16.0177C24.9294 15.5031 24.6851 15.0287 24.3074 14.6755C23.9296 14.3223 23.4419 14.1122 22.9276 14.0812C22.8992 14.0812 22.8704 14.0812 22.8416 14.0777C22.6214 14.0625 22.4941 13.936 22.5062 13.7445C22.5173 13.5642 22.6532 13.4468 22.8626 13.4529C23.2853 13.461 23.7007 13.5646 24.0783 13.7562C25.8753 14.6805 26.1763 17.1474 24.6545 18.4777C24.6007 18.524 24.5483 18.5708 24.473 18.6367Z" fill="white" stroke="white" stroke-width="0.872716"/>
<defs>
<filter id="filter0_d_50_1888" x="1.7998" y="3.7998" width="34.4004" height="34.3862" filterUnits="userSpaceOnUse" color-interpolation-filters="sRGB">
<feFlood flood-opacity="0" result="BackgroundImageFix"/>
<feColorMatrix in="SourceAlpha" type="matrix" values="0 0 0 0 0 0 0 0 0 0 0 0 0 0 0 0 0 0 127 0" result="hardAlpha"/>
<feOffset dy="2"/>
<feGaussianBlur stdDeviation="2"/>
<feColorMatrix type="matrix" values="0 0 0 0 0.456974 0 0 0 0 0.701336 0 0 0 0 1 0 0 0 1 0"/>
<feBlend mode="normal" in2="BackgroundImageFix" result="effect1_dropShadow_50_1888"/>
<feBlend mode="normal" in="SourceGraphic" in2="effect1_dropShadow_50_1888" result="shape"/>
</filter>
<linearGradient id="paint0_linear_50_1888" x1="0.141483" y1="17.0431" x2="19.6671" y2="41.5905" gradientUnits="userSpaceOnUse">
<stop stop-color="#D0E7FF"/>
<stop offset="0.998852" stop-color="#2E83FF"/>
<stop offset="1" stop-color="#5A9BF9"/>
</linearGradient>
<linearGradient id="paint1_linear_50_1888" x1="6" y1="6" x2="6" y2="31.9861" gradientUnits="userSpaceOnUse">
<stop stop-color="white" stop-opacity="0.49817"/>
<stop offset="0.512511" stop-color="white" stop-opacity="0.301901"/>
<stop offset="1" stop-color="white" stop-opacity="0.412205"/>
</linearGradient>
</defs>
</svg>
