<?xml version="1.0" standalone="no"?><!DOCTYPE svg PUBLIC "-//W3C//DTD SVG 1.1//EN" "http://www.w3.org/Graphics/SVG/1.1/DTD/svg11.dtd"><svg t="1671198656008" class="icon" viewBox="0 0 1024 1024" version="1.1" xmlns="http://www.w3.org/2000/svg" p-id="2639" width="16" height="16" xmlns:xlink="http://www.w3.org/1999/xlink"><path d="M858.171 675.4l-31.787 54.633c-17.383 30.296-56.619 40.726-86.914 23.343l-132.111-75.988 0 152.474c0 34.766-28.807 63.572-63.572 63.572l-63.572 0c-34.766 0-63.572-28.807-63.572-63.572L416.643 677.388 284.53 753.376c-30.296 17.383-69.532 6.953-86.915-23.343L165.829 675.4c-17.383-30.296-6.953-69.532 23.343-86.915L321.283 512l-132.111-76.485c-30.296-17.383-40.726-56.619-23.343-86.915l31.786-54.633c17.383-30.296 56.619-40.726 86.915-23.343l132.111 75.989L416.641 194.139c0-34.766 28.806-63.572 63.572-63.572l63.572 0c34.766 0 63.572 28.806 63.572 63.572l0 152.474 132.111-75.989c30.295-17.383 69.531-6.953 86.914 23.343l31.787 54.633c17.383 30.296 6.953 69.532-23.344 86.915L702.716 512l132.111 76.485C865.124 605.868 875.554 645.104 858.171 675.4z" p-id="2640" fill="#d81e06"></path></svg>