<svg width="311" height="50" viewBox="0 0 311 50" fill="none" xmlns="http://www.w3.org/2000/svg">
<g filter="url(#filter0_d_1_424)">
<path d="M39.4945 36.8207C39.0792 39.2854 38.4776 39.2351 35.9975 39.386C33.6216 39.4866 31.2523 39.4866 28.8897 39.386C26.3288 39.2351 26.1505 38.883 26.3204 36.3177L27.2334 22.5356H36.3072C36.2406 23.5416 36.1073 25.5536 35.8861 26.6099C35.6249 28.2698 35.1512 28.5716 33.3769 28.7225L29.7273 29.0243L30.8631 34.7082L34.9159 34.4064C39.3786 34.004 40.7926 32.4447 41.2304 28.1189C41.3303 26.6099 41.7952 22.6362 41.9985 19.5679C43.1821 20.7248 44.3757 21.7308 45.6735 22.6865L49.2696 17.1033C43.9206 13.3811 38.1396 6.28882 36.1331 0.0516534H31.5458C29.102 4.98102 24.5177 10.2625 20.225 14.1859L20.5849 8.7535H15.8464L16.3229 1.56064L10.3407 1.30915L9.84758 8.7535H5.15945L4.74961 14.9404H9.43773L8.93459 22.5356C6.42118 23.1895 4.0086 23.8434 2.21759 24.2458L2.64806 30.6842C4.08286 30.3321 6.18632 29.7788 8.49809 29.1249L7.91497 37.9273C7.825 39.2854 7.55963 39.4866 6.3902 39.6375L2.73736 39.9896L3.98105 46.3274L7.6843 45.9753C12.3991 45.5729 13.4706 44.6172 13.7505 40.392L14.6135 27.3644L18.7833 26.0566L18.3346 22.938L18.0338 19.8697L15.0467 20.8254L15.4365 14.9404H19.3685C18.4615 15.6949 17.605 16.4494 16.7585 17.053L19.8902 22.2841L21.5933 20.926L20.4537 38.1285C20.0939 43.5609 22.1078 45.1202 26.8363 45.2711C30.0559 45.3717 33.2821 45.3717 36.515 45.2711C41.9189 45.1202 43.5316 44.3657 44.6447 39.7381C44.8759 38.5309 45.3687 36.4183 45.4287 35.513L39.8927 33.8531C39.7757 34.8591 39.709 35.8651 39.4945 36.8207ZM33.4124 8.40141C34.5027 10.9667 36.4837 13.7835 39.0697 16.6003H26.5176C29.4767 13.7835 31.673 11.0673 33.4124 8.40141ZM57.3453 19.5176C58.4139 19.3667 59.8758 19.3667 61.4485 19.2158C59.296 22.0326 57.6908 24.1955 56.8847 24.95C56.2802 25.7045 55.7494 26.1069 53.7434 26.7105L54.6576 32.6962L58.0213 32.1429C61.9899 31.5896 69.1577 30.6842 70.3271 30.5333L70.6362 24.3464C68.6939 24.7488 65.5418 25.1512 63.5492 25.5536C67.7777 21.0769 71.6963 15.1919 73.5127 12.1236L68.7891 8.8541C67.7346 10.3128 66.7273 11.8218 65.6662 13.3811L61.311 13.6829C62.6008 12.4757 66.4223 7.29481 68.8227 3.01934L63.6254 0.0516534C60.8559 5.33312 56.4537 11.6709 55.4326 12.6266C55.0564 12.9787 54.6669 13.532 53.37 14.0853L54.1966 19.8697C55.0132 19.7188 56.0751 19.6685 57.3453 19.5176ZM85.3736 37.7764L87.1796 10.514H95.7997L96.2262 4.07563H73.0376L72.6111 10.514H80.5759L78.7699 37.7764H69.9481L69.9064 35.3621L69.9422 33.2998C67.8354 33.9034 54.2364 36.7704 51.7397 37.1728L52.2272 43.5106C54.334 42.907 65.0163 40.6938 68.9512 39.889L68.678 44.0136H95.5969L96.0101 37.7764H85.3736ZM140.213 33.6016C139.857 35.1609 139.663 35.8148 139.233 36.9716C138.428 39.2351 137.763 39.386 135.232 39.5369C128.41 39.7884 121.655 39.7884 114.967 39.5369C112.154 39.386 111.603 39.3357 111.79 36.5189L112.106 31.7405H128.893L130.032 14.538H112.54C113.588 13.1799 114.481 11.8721 115.378 10.514H136.348C136.345 10.5643 134.992 25.6542 134.849 27.0626C134.514 29.8291 134.185 30.2315 131.638 30.6339L129.299 30.9357L130.664 36.9716L132.747 36.7201C139.253 35.9154 140.136 34.7585 140.758 29.1752C140.885 27.2638 142.025 12.3248 142.743 4.52833H118.849C119.252 3.77383 119.443 3.17023 119.846 2.41574L113.285 1.00735C111.06 6.43972 106.476 12.4757 101.505 17.5057L105.78 22.2338L106.861 21.1272L105.741 38.0279C105.355 43.8627 107.628 45.3214 113.011 45.4723C120.499 45.8244 128.162 45.8244 135.696 45.4723C141.711 45.2208 142.911 44.6172 144.542 40.5429C145.038 39.1345 145.699 36.7704 145.759 35.8651L140.213 33.6016ZM123.788 20.5236L123.425 26.0063L112.49 25.956L112.849 20.5236H123.788ZM169.574 12.8781H205.617L205.853 9.3068H175.658L175.754 7.84811H209.176L209.449 3.72353H191.806L191.253 0.655251L184.478 0.957049L185.051 3.72353H166.954L166.681 7.84811H169.907L169.574 12.8781ZM204.875 14.1859H170.142L169.622 22.0326H204.355L204.875 14.1859ZM198.721 18.8134H175.784L175.877 17.4051H198.814L198.721 18.8134ZM187.009 36.5692C187.23 35.513 187.253 34.4064 187.343 33.0483L187.666 28.1692L184.299 28.0183L183.989 32.6962C183.672 37.4746 183.216 39.0339 177.458 42.2531C177.535 41.8507 177.565 41.398 177.595 40.9453L178.761 23.3404H167.469L166.943 31.2878C166.463 38.5309 165.479 39.6878 162.389 43.7118L166.03 46.5789C168.173 43.913 169.529 41.6998 170.307 38.3297H173.634L173.574 39.2351C173.521 40.0399 173.226 40.6938 172.258 40.8447L170.474 41.1465L171.716 45.9753L173.702 45.6735C176.095 45.3214 176.908 44.4663 177.377 42.7058L179.681 45.9753C182.792 43.913 184.508 42.3537 185.583 40.5932C186.528 41.5489 187.479 42.404 188.229 43.2591L190.875 39.8387C189.736 38.7824 188.303 37.5752 187.009 36.5692ZM191.603 37.2231L192.523 23.3404H179.971L179.048 37.2734H182.526L183.196 27.1632H188.892L188.226 37.2231H191.603ZM205.405 35.8651C205.258 37.3237 205.201 38.1788 204.856 39.5872C204.654 40.3417 204.54 40.5429 204.137 40.5429H203.734C203.33 40.5429 203.25 40.2411 203.313 39.2854L204.366 23.3907H193.78L193.237 31.5896C192.79 38.3297 192.236 39.8387 188.885 44.0136L192.956 46.4783C195.804 42.3034 196.737 40.392 197.241 35.0603L198.009 37.1728L199.265 36.4686L198.938 41.398C198.765 44.0136 199.364 45.6232 201.569 45.8244C202.722 45.925 203.932 45.925 205.098 45.8244C207.127 45.6232 207.634 44.8184 208.285 41.8507C208.653 40.0902 208.737 38.8327 209.005 37.0722L205.405 35.8651ZM174.381 27.0626L174.271 28.7225H171.246L171.356 27.0626H174.381ZM197.558 30.2818L197.738 27.5656H199.855L199.558 32.0423C199.212 31.1872 198.862 30.3824 198.653 29.7285L197.558 30.2818ZM170.87 34.4064L170.893 34.0543L170.986 32.6459H174.011L173.894 34.4064H170.87ZM257.285 17.7572L257.698 11.52H240.761L241.444 1.20855L234.705 0.957049L234.006 11.52H217.219L216.806 17.7572H233.592C231.683 28.3201 222.623 35.7142 212.857 40.8447L216.97 46.4783C225.157 41.5992 232.547 35.0603 236.885 27.4147C239.557 34.2555 245.244 41.2471 253.826 46.3777L258.252 40.4423C250.107 36.3177 242.394 30.2315 240.65 17.7572H257.285ZM305.874 33.3501L306.241 27.8171H289.051L289.279 25.9057L287.971 25.8554C298.572 21.8314 304.131 17.053 308.019 10.8661L308.419 4.83013H295.363L297.273 1.86244L291.489 0.152252C289.209 4.12593 285.978 7.99901 282.347 11.0673L282.97 1.66124L276.887 1.40975L276.394 8.8541C274.713 6.84211 272.732 4.77983 270.295 2.76784L266.106 6.64092C268.779 8.9044 271.452 11.9224 272.885 13.8841L276.254 10.9667L276.061 13.8841C273.024 15.5943 267.568 18.059 264.389 18.8637L266.697 24.3464C269.332 23.3907 272.876 21.6302 275.635 20.3224L275.285 25.6039H281.384L282.104 14.7392L284.108 17.2039C285.331 16.2482 286.295 15.3931 287.316 14.4374C288.799 15.6446 290.12 17.0027 291.052 18.1596L294.612 13.8841C293.274 12.7775 291.979 11.7715 290.776 10.9164L291.652 9.8601H301.381C298.443 13.8841 293.513 19.0649 283.17 21.4793L285.558 25.7548L282.742 25.6542L282.599 27.8171H265.56L265.197 33.2998H280.824C278.238 36.5692 272.688 38.9333 262.435 40.7441L265.322 46.6292C275.581 43.9633 281.904 40.5932 285.393 36.6195C288.541 40.8447 294.135 43.913 303.997 46.4783L307.361 40.5932C297.751 38.7824 292.4 36.6195 289.592 33.3501H305.874Z" fill="url(#paint0_linear_1_424)"/>
</g>
<defs>
<filter id="filter0_d_1_424" x="0.734802" y="0.0516357" width="309.311" height="49.7282" filterUnits="userSpaceOnUse" color-interpolation-filters="sRGB">
<feFlood flood-opacity="0" result="BackgroundImageFix"/>
<feColorMatrix in="SourceAlpha" type="matrix" values="0 0 0 0 0 0 0 0 0 0 0 0 0 0 0 0 0 0 127 0" result="hardAlpha"/>
<feOffset dy="3.15062"/>
<feComposite in2="hardAlpha" operator="out"/>
<feColorMatrix type="matrix" values="0 0 0 0 1 0 0 0 0 0.166667 0 0 0 0 0.180871 0 0 0 1 0"/>
<feBlend mode="normal" in2="BackgroundImageFix" result="effect1_dropShadow_1_424"/>
<feBlend mode="normal" in="SourceGraphic" in2="effect1_dropShadow_1_424" result="shape"/>
</filter>
<linearGradient id="paint0_linear_1_424" x1="157.821" y1="-7" x2="157.821" y2="52.8688" gradientUnits="userSpaceOnUse">
<stop stop-color="#FFFBD5"/>
<stop offset="1" stop-color="white"/>
</linearGradient>
</defs>
</svg>
