<svg width="247" height="63" viewBox="0 0 247 63" fill="none" xmlns="http://www.w3.org/2000/svg">
<g filter="url(#filter0_d_1_902)">
<path d="M49.4308 47.7599C49.1073 50.9298 48.331 50.8651 45.161 51.0592C42.1205 51.1886 39.0799 51.1886 36.0394 51.0592C32.74 50.8651 32.4813 50.4123 32.4813 47.113V29.3871H44.126C44.126 30.681 44.126 33.2687 43.9319 34.6273C43.7378 36.7621 43.1556 37.1503 40.8913 37.3443L36.2334 37.7325L38.1742 45.0428L43.3496 44.6546C49.0426 44.1371 50.7246 42.1316 50.9187 36.568C50.9187 34.6273 51.1775 29.5165 51.1775 25.5703C52.7948 27.0582 54.4121 28.3521 56.1588 29.5812L60.2992 22.4003C53.1183 17.613 45.0963 8.49137 41.9911 0.469461H36.1041C33.387 6.80935 27.9528 13.6021 22.7773 18.6481V11.6613H16.6962V2.41024L8.99777 2.08678V11.6613H2.98134V19.6185H8.99777V29.3871C5.82783 30.2281 2.78727 31.0691 0.523018 31.5867L1.6228 39.8674C3.43419 39.4145 6.0866 38.7029 8.99777 37.8619V49.1831C8.99777 50.9298 8.67431 51.1886 7.18637 51.3827L2.52849 51.8355L4.66336 59.9868L9.38593 59.534C15.4024 59.0164 16.6962 57.7873 16.6962 52.3531V35.5976L21.9363 33.9156L21.0953 29.9047L20.4484 25.9584L16.6962 27.1876V19.6185H21.7423C20.6425 20.5889 19.6074 21.5593 18.5723 22.3356L23.0361 29.0637L25.1063 27.317V49.4419C25.1063 56.4287 27.8234 58.4342 33.9045 58.6283C38.0448 58.7577 42.1852 58.7577 46.3255 58.6283C53.2476 58.4342 55.2531 57.4638 56.2882 51.5121C56.4823 49.9594 56.9351 47.2423 56.9351 46.0779L49.6895 43.943C49.6248 45.2369 49.6248 46.5307 49.4308 47.7599ZM39.2093 11.2085C40.8266 14.5078 43.6084 18.1306 47.1665 21.7534H31.058C34.6161 18.1306 37.2038 14.6372 39.2093 11.2085ZM70.8683 25.5056C72.2269 25.3115 74.103 25.3115 76.1084 25.1174C73.5854 28.7402 71.7093 31.522 70.7389 32.4924C70.0273 33.4628 69.3804 33.9803 66.8574 34.7566L68.5394 42.4551L72.8091 41.7435C77.8551 41.0318 86.9768 39.8674 88.4648 39.6733L88.3354 31.7161C85.8771 32.2336 81.8661 32.7512 79.3431 33.2687C84.3891 27.511 88.9176 19.942 90.9878 15.9957L84.6479 11.7907C83.4187 13.6668 82.2543 15.6076 81.0251 17.613L75.4615 18.0012C77.0141 16.4486 81.4779 9.78522 84.195 4.28634L77.2729 0.469461C74.1677 7.2622 69.0569 15.4135 67.8278 16.6427C67.3749 17.0955 66.9221 17.8071 65.3047 18.5187L66.8574 25.9584C67.8925 25.7643 69.251 25.6996 70.8683 25.5056ZM108.39 48.989V13.9256H119.453V5.64488H89.6939V13.9256H99.9154V48.989H88.5942L88.3354 45.8838L88.206 43.2314C85.5536 44.0077 68.3453 47.6952 65.1754 48.2127L66.3398 56.364C68.9922 55.5877 82.513 52.7412 87.4944 51.7061V57.011H122.04V48.989H108.39ZM178.412 43.6195C178.089 45.625 177.894 46.466 177.442 47.954C176.601 50.8651 175.76 51.0592 172.525 51.2533C163.791 51.5768 155.123 51.5768 146.518 51.2533C142.896 51.0592 142.184 50.9945 142.184 47.3717V41.2259H163.727V19.101H141.278C142.507 17.3543 143.543 15.6723 144.578 13.9256H171.49C171.49 13.9903 171.037 33.3981 170.972 35.2095C170.778 38.7676 170.39 39.2851 167.155 39.8027L164.18 40.1908L166.444 47.954L169.096 47.6305C177.377 46.5954 178.412 45.1075 178.735 37.9266C178.735 35.4683 178.93 16.2545 179.188 6.22712H148.524C148.977 5.25673 149.171 4.48041 149.624 3.51002L141.084 1.69862C138.691 8.68544 133.321 16.4486 127.369 22.9179L133.256 28.999L134.55 27.5757V49.3125C134.55 56.8169 137.591 58.693 144.513 58.887C154.152 59.3399 163.985 59.3399 173.625 58.887C181.323 58.5636 182.811 57.7873 184.558 52.5472C185.075 50.7358 185.722 47.6952 185.722 46.5307L178.412 43.6195ZM156.222 26.7994V33.8509L142.184 33.7862V26.7994H156.222ZM246.04 12.0495H225.339V1.82801L216.864 1.50454V12.0495H195.709V41.6788H216.864V59.728H225.339V41.6788H246.04V12.0495ZM204.313 33.5275V20.2655H216.864V33.5275H204.313ZM237.501 33.5275H225.339V20.2655H237.501V33.5275Z" fill="url(#paint0_linear_1_902)"/>
</g>
<defs>
<filter id="filter0_d_1_902" x="0.52301" y="0.469482" width="245.517" height="62.5173" filterUnits="userSpaceOnUse" color-interpolation-filters="sRGB">
<feFlood flood-opacity="0" result="BackgroundImageFix"/>
<feColorMatrix in="SourceAlpha" type="matrix" values="0 0 0 0 0 0 0 0 0 0 0 0 0 0 0 0 0 0 127 0" result="hardAlpha"/>
<feOffset dy="3"/>
<feComposite in2="hardAlpha" operator="out"/>
<feColorMatrix type="matrix" values="0 0 0 0 1 0 0 0 0 0.166667 0 0 0 0 0.180871 0 0 0 1 0"/>
<feBlend mode="normal" in2="BackgroundImageFix" result="effect1_dropShadow_1_902"/>
<feBlend mode="normal" in="SourceGraphic" in2="effect1_dropShadow_1_902" result="shape"/>
</filter>
<linearGradient id="paint0_linear_1_902" x1="125.5" y1="-10" x2="125.5" y2="68" gradientUnits="userSpaceOnUse">
<stop stop-color="#FFFBD5"/>
<stop offset="1" stop-color="white"/>
</linearGradient>
</defs>
</svg>
